<?xml version="1.0" encoding="utf-8" standalone="no"?>
<!DOCTYPE svg PUBLIC "-//W3C//DTD SVG 1.1//EN"
  "http://www.w3.org/Graphics/SVG/1.1/DTD/svg11.dtd">
<svg xmlns:xlink="http://www.w3.org/1999/xlink" width="1440pt" height="432pt" viewBox="0 0 1440 432" xmlns="http://www.w3.org/2000/svg" version="1.1">
 <metadata>
  <rdf:RDF xmlns:dc="http://purl.org/dc/elements/1.1/" xmlns:cc="http://creativecommons.org/ns#" xmlns:rdf="http://www.w3.org/1999/02/22-rdf-syntax-ns#">
   <cc:Work>
    <dc:type rdf:resource="http://purl.org/dc/dcmitype/StillImage"/>
    <dc:date>2022-09-15T21:16:28.294068</dc:date>
    <dc:format>image/svg+xml</dc:format>
    <dc:creator>
     <cc:Agent>
      <dc:title>Matplotlib v3.5.3, https://matplotlib.org/</dc:title>
     </cc:Agent>
    </dc:creator>
   </cc:Work>
  </rdf:RDF>
 </metadata>
 <defs>
  <style type="text/css">*{stroke-linejoin: round; stroke-linecap: butt}</style>
 </defs>
 <g id="figure_1">
  <g id="patch_1">
   <path d="M 0 432 
L 1440 432 
L 1440 0 
L 0 0 
L 0 432 
z
" style="fill: none"/>
  </g>
  <g id="axes_1">
   <g id="patch_2">
    <path d="M 180 378 
L 1296 378 
L 1296 51.84 
L 180 51.84 
z
" style="fill: #ffffff"/>
   </g>
   <g id="PolyCollection_1">
    <defs>
     <path id="m35c264419f" d="M 230.727273 -119.003181 
L 230.727273 -110.206683 
L 274.837945 -102.583832 
L 318.948617 -95.441685 
L 363.059289 -81.273634 
L 407.16996 -71.165261 
L 451.280632 -70.74987 
L 495.391304 -73.229567 
L 539.501976 -81.795562 
L 583.612648 -105.189666 
L 627.72332 -138.686112 
L 671.833992 -186.184906 
L 715.944664 -213.498114 
L 760.055336 -240.598558 
L 804.166008 -241.41323 
L 848.27668 -236.331171 
L 892.387352 -231.593042 
L 936.498024 -233.685029 
L 980.608696 -214.340953 
L 1024.719368 -190.884471 
L 1068.83004 -168.963281 
L 1112.940711 -143.29356 
L 1157.051383 -124.193439 
L 1201.162055 -110.271966 
L 1245.272727 -95.213531 
L 1245.272727 -101.588983 
L 1245.272727 -101.588983 
L 1201.162055 -119.465223 
L 1157.051383 -138.856203 
L 1112.940711 -161.272193 
L 1068.83004 -193.339971 
L 1024.719368 -218.981404 
L 980.608696 -245.007989 
L 936.498024 -263.327892 
L 892.387352 -261.120456 
L 848.27668 -266.553577 
L 804.166008 -273.181203 
L 760.055336 -270.772245 
L 715.944664 -240.895583 
L 671.833992 -209.068011 
L 627.72332 -154.410525 
L 583.612648 -113.855483 
L 539.501976 -85.727844 
L 495.391304 -75.763556 
L 451.280632 -72.174764 
L 407.16996 -72.335166 
L 363.059289 -84.330293 
L 318.948617 -101.08239 
L 274.837945 -109.81685 
L 230.727273 -119.003181 
z
" style="stroke: #a1c9f4; stroke-opacity: 0.2"/>
    </defs>
    <g clip-path="url(#paa2394b986)">
     <use xlink:href="#m35c264419f" x="0" y="432" style="fill: #a1c9f4; fill-opacity: 0.2; stroke: #a1c9f4; stroke-opacity: 0.2"/>
    </g>
   </g>
   <g id="PolyCollection_2">
    <defs>
     <path id="m5e977afb7e" d="M 230.727273 -87.066571 
L 230.727273 -81.99382 
L 274.837945 -74.1313 
L 318.948617 -71.260488 
L 363.059289 -69.139712 
L 407.16996 -69.599566 
L 451.280632 -76.836084 
L 495.391304 -106.287486 
L 539.501976 -179.405753 
L 583.612648 -255.841381 
L 627.72332 -169.483696 
L 671.833992 -131.576686 
L 715.944664 -142.332355 
L 760.055336 -164.067903 
L 804.166008 -161.046517 
L 848.27668 -155.851271 
L 892.387352 -160.931178 
L 936.498024 -199.946538 
L 980.608696 -300.262281 
L 1024.719368 -290.276879 
L 1068.83004 -225.674391 
L 1112.940711 -178.368437 
L 1157.051383 -147.864951 
L 1201.162055 -120.2763 
L 1245.272727 -96.802739 
L 1245.272727 -103.566225 
L 1245.272727 -103.566225 
L 1201.162055 -131.545685 
L 1157.051383 -163.675629 
L 1112.940711 -201.580442 
L 1068.83004 -257.91699 
L 1024.719368 -333.160174 
L 980.608696 -344.765566 
L 936.498024 -223.884872 
L 892.387352 -178.884349 
L 848.27668 -174.409085 
L 804.166008 -181.381645 
L 760.055336 -181.954311 
L 715.944664 -158.495884 
L 671.833992 -144.164837 
L 627.72332 -186.297149 
L 583.612648 -295.879777 
L 539.501976 -206.710146 
L 495.391304 -115.077515 
L 451.280632 -79.224144 
L 407.16996 -70.309488 
L 363.059289 -70.076665 
L 318.948617 -73.363867 
L 274.837945 -77.651999 
L 230.727273 -87.066571 
z
" style="stroke: #ffb482; stroke-opacity: 0.2"/>
    </defs>
    <g clip-path="url(#paa2394b986)">
     <use xlink:href="#m5e977afb7e" x="0" y="432" style="fill: #ffb482; fill-opacity: 0.2; stroke: #ffb482; stroke-opacity: 0.2"/>
    </g>
   </g>
   <g id="PolyCollection_3">
    <defs>
     <path id="m00c2cebb78" d="M 230.727273 -82.372145 
L 230.727273 -79.672104 
L 274.837945 -72.731174 
L 318.948617 -70.014971 
L 363.059289 -68.825455 
L 407.16996 -69.368151 
L 451.280632 -78.224181 
L 495.391304 -116.341177 
L 539.501976 -205.704669 
L 583.612648 -288.259915 
L 627.72332 -177.673251 
L 671.833992 -126.523242 
L 715.944664 -134.376948 
L 760.055336 -151.745637 
L 804.166008 -152.073288 
L 848.27668 -144.255765 
L 892.387352 -153.831929 
L 936.498024 -200.303295 
L 980.608696 -321.874557 
L 1024.719368 -309.65732 
L 1068.83004 -232.383808 
L 1112.940711 -184.754051 
L 1157.051383 -153.3519 
L 1201.162055 -128.376128 
L 1245.272727 -101.988464 
L 1245.272727 -109.49378 
L 1245.272727 -109.49378 
L 1201.162055 -139.986159 
L 1157.051383 -170.172432 
L 1112.940711 -207.076423 
L 1068.83004 -261.764664 
L 1024.719368 -351.356227 
L 980.608696 -365.334545 
L 936.498024 -224.992856 
L 892.387352 -170.640866 
L 848.27668 -161.481509 
L 804.166008 -167.999915 
L 760.055336 -168.709018 
L 715.944664 -147.793704 
L 671.833992 -137.97228 
L 627.72332 -196.370569 
L 583.612648 -323.762869 
L 539.501976 -232.754218 
L 495.391304 -125.941339 
L 451.280632 -80.65741 
L 407.16996 -69.850371 
L 363.059289 -69.410729 
L 318.948617 -70.910041 
L 274.837945 -74.031101 
L 230.727273 -82.372145 
z
" style="stroke: #8de5a1; stroke-opacity: 0.2"/>
    </defs>
    <g clip-path="url(#paa2394b986)">
     <use xlink:href="#m00c2cebb78" x="0" y="432" style="fill: #8de5a1; fill-opacity: 0.2; stroke: #8de5a1; stroke-opacity: 0.2"/>
    </g>
   </g>
   <g id="PolyCollection_4">
    <defs>
     <path id="m6e6f32eed4" d="M 230.727273 -87.974141 
L 230.727273 -81.923192 
L 274.837945 -73.574989 
L 318.948617 -69.965614 
L 363.059289 -69.132234 
L 407.16996 -69.214902 
L 451.280632 -78.798673 
L 495.391304 -117.068176 
L 539.501976 -207.477728 
L 583.612648 -294.519391 
L 627.72332 -178.855057 
L 671.833992 -127.555576 
L 715.944664 -137.094636 
L 760.055336 -156.252089 
L 804.166008 -152.775573 
L 848.27668 -144.792182 
L 892.387352 -150.066029 
L 936.498024 -192.920642 
L 980.608696 -302.16714 
L 1024.719368 -294.026368 
L 1068.83004 -230.995334 
L 1112.940711 -184.628216 
L 1157.051383 -155.061561 
L 1201.162055 -131.992181 
L 1245.272727 -105.03395 
L 1245.272727 -114.347549 
L 1245.272727 -114.347549 
L 1201.162055 -147.836945 
L 1157.051383 -176.271672 
L 1112.940711 -210.635678 
L 1068.83004 -265.135418 
L 1024.719368 -339.560406 
L 980.608696 -351.222703 
L 936.498024 -219.273033 
L 892.387352 -168.246581 
L 848.27668 -162.718501 
L 804.166008 -170.104938 
L 760.055336 -174.409329 
L 715.944664 -151.541876 
L 671.833992 -140.21708 
L 627.72332 -196.656761 
L 583.612648 -334.189801 
L 539.501976 -236.130546 
L 495.391304 -126.415981 
L 451.280632 -81.337589 
L 407.16996 -69.833703 
L 363.059289 -69.881271 
L 318.948617 -72.281281 
L 274.837945 -76.411467 
L 230.727273 -87.974141 
z
" style="stroke: #ff9f9b; stroke-opacity: 0.2"/>
    </defs>
    <g clip-path="url(#paa2394b986)">
     <use xlink:href="#m6e6f32eed4" x="0" y="432" style="fill: #ff9f9b; fill-opacity: 0.2; stroke: #ff9f9b; stroke-opacity: 0.2"/>
    </g>
   </g>
   <g id="PolyCollection_5">
    <defs>
     <path id="m65b7efae86" d="M 230.727273 -89.034525 
L 230.727273 -85.015783 
L 274.837945 -74.8712 
L 318.948617 -71.100425 
L 363.059289 -69.262933 
L 407.16996 -69.369972 
L 451.280632 -78.913234 
L 495.391304 -117.264433 
L 539.501976 -207.13761 
L 583.612648 -297.878864 
L 627.72332 -181.458327 
L 671.833992 -128.986566 
L 715.944664 -140.827006 
L 760.055336 -160.006796 
L 804.166008 -159.11407 
L 848.27668 -150.613217 
L 892.387352 -158.654768 
L 936.498024 -199.101087 
L 980.608696 -311.496149 
L 1024.719368 -299.47273 
L 1068.83004 -232.682957 
L 1112.940711 -190.270048 
L 1157.051383 -158.800525 
L 1201.162055 -134.145504 
L 1245.272727 -111.801164 
L 1245.272727 -120.633301 
L 1245.272727 -120.633301 
L 1201.162055 -148.631923 
L 1157.051383 -176.762361 
L 1112.940711 -215.664579 
L 1068.83004 -264.959241 
L 1024.719368 -344.201322 
L 980.608696 -356.660221 
L 936.498024 -223.690932 
L 892.387352 -174.964133 
L 848.27668 -163.238057 
L 804.166008 -174.20056 
L 760.055336 -176.098155 
L 715.944664 -153.689816 
L 671.833992 -139.901253 
L 627.72332 -197.096546 
L 583.612648 -333.827814 
L 539.501976 -234.625142 
L 495.391304 -125.866834 
L 451.280632 -81.461888 
L 407.16996 -69.989408 
L 363.059289 -69.863925 
L 318.948617 -72.175752 
L 274.837945 -76.690417 
L 230.727273 -89.034525 
z
" style="stroke: #d0bbff; stroke-opacity: 0.2"/>
    </defs>
    <g clip-path="url(#paa2394b986)">
     <use xlink:href="#m65b7efae86" x="0" y="432" style="fill: #d0bbff; fill-opacity: 0.2; stroke: #d0bbff; stroke-opacity: 0.2"/>
    </g>
   </g>
   <g id="PolyCollection_6">
    <defs>
     <path id="m780143f8b1" d="M 230.727273 -96.175638 
L 230.727273 -90.988692 
L 274.837945 -78.276292 
L 318.948617 -72.808506 
L 363.059289 -69.905881 
L 407.16996 -69.741534 
L 451.280632 -77.997649 
L 495.391304 -108.881081 
L 539.501976 -185.542626 
L 583.612648 -283.802778 
L 627.72332 -190.220862 
L 671.833992 -141.185803 
L 715.944664 -154.833606 
L 760.055336 -178.809531 
L 804.166008 -179.588952 
L 848.27668 -173.239587 
L 892.387352 -184.352624 
L 936.498024 -221.072072 
L 980.608696 -295.41293 
L 1024.719368 -261.976424 
L 1068.83004 -207.180655 
L 1112.940711 -165.669341 
L 1157.051383 -145.808993 
L 1201.162055 -134.867317 
L 1245.272727 -119.659208 
L 1245.272727 -131.41985 
L 1245.272727 -131.41985 
L 1201.162055 -148.125531 
L 1157.051383 -161.624675 
L 1112.940711 -185.092134 
L 1068.83004 -234.366047 
L 1024.719368 -300.357604 
L 980.608696 -338.102773 
L 936.498024 -250.097636 
L 892.387352 -206.427597 
L 848.27668 -193.355999 
L 804.166008 -199.939459 
L 760.055336 -198.083544 
L 715.944664 -170.130203 
L 671.833992 -152.889569 
L 627.72332 -206.319825 
L 583.612648 -320.651845 
L 539.501976 -207.482366 
L 495.391304 -116.67932 
L 451.280632 -80.195064 
L 407.16996 -70.411796 
L 363.059289 -70.811838 
L 318.948617 -74.156077 
L 274.837945 -80.864761 
L 230.727273 -96.175638 
z
" style="stroke: #debb9b; stroke-opacity: 0.2"/>
    </defs>
    <g clip-path="url(#paa2394b986)">
     <use xlink:href="#m780143f8b1" x="0" y="432" style="fill: #debb9b; fill-opacity: 0.2; stroke: #debb9b; stroke-opacity: 0.2"/>
    </g>
   </g>
   <g id="PolyCollection_7">
    <defs>
     <path id="m50857ebf35" d="M 230.727273 -119.856782 
L 230.727273 -110.286715 
L 274.837945 -98.119344 
L 318.948617 -90.436839 
L 363.059289 -77.525516 
L 407.16996 -70.451325 
L 451.280632 -70.661072 
L 495.391304 -76.370058 
L 539.501976 -88.033079 
L 583.612648 -119.307704 
L 627.72332 -152.955503 
L 671.833992 -188.310741 
L 715.944664 -217.361127 
L 760.055336 -240.143531 
L 804.166008 -244.078594 
L 848.27668 -243.946462 
L 892.387352 -244.170107 
L 936.498024 -234.934056 
L 980.608696 -218.404642 
L 1024.719368 -199.420374 
L 1068.83004 -176.189573 
L 1112.940711 -149.282458 
L 1157.051383 -138.252294 
L 1201.162055 -131.03673 
L 1245.272727 -120.383095 
L 1245.272727 -131.01293 
L 1245.272727 -131.01293 
L 1201.162055 -144.912769 
L 1157.051383 -154.492838 
L 1112.940711 -168.824373 
L 1068.83004 -200.615014 
L 1024.719368 -230.880988 
L 980.608696 -253.792036 
L 936.498024 -269.990818 
L 892.387352 -276.957659 
L 848.27668 -277.754681 
L 804.166008 -280.460905 
L 760.055336 -275.241759 
L 715.944664 -248.602023 
L 671.833992 -213.988441 
L 627.72332 -172.041843 
L 583.612648 -130.780446 
L 539.501976 -92.932112 
L 495.391304 -79.01076 
L 451.280632 -71.741116 
L 407.16996 -71.302506 
L 363.059289 -79.735853 
L 318.948617 -94.914935 
L 274.837945 -104.387566 
L 230.727273 -119.856782 
z
" style="stroke: #fab0e4; stroke-opacity: 0.2"/>
    </defs>
    <g clip-path="url(#paa2394b986)">
     <use xlink:href="#m50857ebf35" x="0" y="432" style="fill: #fab0e4; fill-opacity: 0.2; stroke: #fab0e4; stroke-opacity: 0.2"/>
    </g>
   </g>
   <g id="matplotlib.axis_1">
    <g id="xtick_1">
     <g id="line2d_1">
      <defs>
       <path id="m6a05b588b9" d="M 0 0 
L 0 3.5 
" style="stroke: #000000; stroke-width: 0.8"/>
      </defs>
      <g>
       <use xlink:href="#m6a05b588b9" x="230.727273" y="378" style="stroke: #000000; stroke-width: 0.8"/>
      </g>
     </g>
     <g id="text_1">
      <!-- 0 -->
      <g transform="translate(227.546023 392.598437)scale(0.1 -0.1)">
       <defs>
        <path id="DejaVuSans-30" d="M 2034 4250 
Q 1547 4250 1301 3770 
Q 1056 3291 1056 2328 
Q 1056 1369 1301 889 
Q 1547 409 2034 409 
Q 2525 409 2770 889 
Q 3016 1369 3016 2328 
Q 3016 3291 2770 3770 
Q 2525 4250 2034 4250 
z
M 2034 4750 
Q 2819 4750 3233 4129 
Q 3647 3509 3647 2328 
Q 3647 1150 3233 529 
Q 2819 -91 2034 -91 
Q 1250 -91 836 529 
Q 422 1150 422 2328 
Q 422 3509 836 4129 
Q 1250 4750 2034 4750 
z
" transform="scale(0.015625)"/>
       </defs>
       <use xlink:href="#DejaVuSans-30"/>
      </g>
     </g>
    </g>
    <g id="xtick_2">
     <g id="line2d_2">
      <g>
       <use xlink:href="#m6a05b588b9" x="451.280632" y="378" style="stroke: #000000; stroke-width: 0.8"/>
      </g>
     </g>
     <g id="text_2">
      <!-- 5 -->
      <g transform="translate(448.099382 392.598437)scale(0.1 -0.1)">
       <defs>
        <path id="DejaVuSans-35" d="M 691 4666 
L 3169 4666 
L 3169 4134 
L 1269 4134 
L 1269 2991 
Q 1406 3038 1543 3061 
Q 1681 3084 1819 3084 
Q 2600 3084 3056 2656 
Q 3513 2228 3513 1497 
Q 3513 744 3044 326 
Q 2575 -91 1722 -91 
Q 1428 -91 1123 -41 
Q 819 9 494 109 
L 494 744 
Q 775 591 1075 516 
Q 1375 441 1709 441 
Q 2250 441 2565 725 
Q 2881 1009 2881 1497 
Q 2881 1984 2565 2268 
Q 2250 2553 1709 2553 
Q 1456 2553 1204 2497 
Q 953 2441 691 2322 
L 691 4666 
z
" transform="scale(0.015625)"/>
       </defs>
       <use xlink:href="#DejaVuSans-35"/>
      </g>
     </g>
    </g>
    <g id="xtick_3">
     <g id="line2d_3">
      <g>
       <use xlink:href="#m6a05b588b9" x="671.833992" y="378" style="stroke: #000000; stroke-width: 0.8"/>
      </g>
     </g>
     <g id="text_3">
      <!-- 10 -->
      <g transform="translate(665.471492 392.598437)scale(0.1 -0.1)">
       <defs>
        <path id="DejaVuSans-31" d="M 794 531 
L 1825 531 
L 1825 4091 
L 703 3866 
L 703 4441 
L 1819 4666 
L 2450 4666 
L 2450 531 
L 3481 531 
L 3481 0 
L 794 0 
L 794 531 
z
" transform="scale(0.015625)"/>
       </defs>
       <use xlink:href="#DejaVuSans-31"/>
       <use xlink:href="#DejaVuSans-30" x="63.623047"/>
      </g>
     </g>
    </g>
    <g id="xtick_4">
     <g id="line2d_4">
      <g>
       <use xlink:href="#m6a05b588b9" x="892.387352" y="378" style="stroke: #000000; stroke-width: 0.8"/>
      </g>
     </g>
     <g id="text_4">
      <!-- 15 -->
      <g transform="translate(886.024852 392.598437)scale(0.1 -0.1)">
       <use xlink:href="#DejaVuSans-31"/>
       <use xlink:href="#DejaVuSans-35" x="63.623047"/>
      </g>
     </g>
    </g>
    <g id="xtick_5">
     <g id="line2d_5">
      <g>
       <use xlink:href="#m6a05b588b9" x="1112.940711" y="378" style="stroke: #000000; stroke-width: 0.8"/>
      </g>
     </g>
     <g id="text_5">
      <!-- 20 -->
      <g transform="translate(1106.578211 392.598437)scale(0.1 -0.1)">
       <defs>
        <path id="DejaVuSans-32" d="M 1228 531 
L 3431 531 
L 3431 0 
L 469 0 
L 469 531 
Q 828 903 1448 1529 
Q 2069 2156 2228 2338 
Q 2531 2678 2651 2914 
Q 2772 3150 2772 3378 
Q 2772 3750 2511 3984 
Q 2250 4219 1831 4219 
Q 1534 4219 1204 4116 
Q 875 4013 500 3803 
L 500 4441 
Q 881 4594 1212 4672 
Q 1544 4750 1819 4750 
Q 2544 4750 2975 4387 
Q 3406 4025 3406 3419 
Q 3406 3131 3298 2873 
Q 3191 2616 2906 2266 
Q 2828 2175 2409 1742 
Q 1991 1309 1228 531 
z
" transform="scale(0.015625)"/>
       </defs>
       <use xlink:href="#DejaVuSans-32"/>
       <use xlink:href="#DejaVuSans-30" x="63.623047"/>
      </g>
     </g>
    </g>
    <g id="text_6">
     <!-- Hour -->
     <g transform="translate(716.16875 410.835625)scale(0.16 -0.16)">
      <defs>
       <path id="DejaVuSans-Bold-48" d="M 588 4666 
L 1791 4666 
L 1791 2888 
L 3566 2888 
L 3566 4666 
L 4769 4666 
L 4769 0 
L 3566 0 
L 3566 1978 
L 1791 1978 
L 1791 0 
L 588 0 
L 588 4666 
z
" transform="scale(0.015625)"/>
       <path id="DejaVuSans-Bold-6f" d="M 2203 2784 
Q 1831 2784 1636 2517 
Q 1441 2250 1441 1747 
Q 1441 1244 1636 976 
Q 1831 709 2203 709 
Q 2569 709 2762 976 
Q 2956 1244 2956 1747 
Q 2956 2250 2762 2517 
Q 2569 2784 2203 2784 
z
M 2203 3584 
Q 3106 3584 3614 3096 
Q 4122 2609 4122 1747 
Q 4122 884 3614 396 
Q 3106 -91 2203 -91 
Q 1297 -91 786 396 
Q 275 884 275 1747 
Q 275 2609 786 3096 
Q 1297 3584 2203 3584 
z
" transform="scale(0.015625)"/>
       <path id="DejaVuSans-Bold-75" d="M 500 1363 
L 500 3500 
L 1625 3500 
L 1625 3150 
Q 1625 2866 1622 2436 
Q 1619 2006 1619 1863 
Q 1619 1441 1641 1255 
Q 1663 1069 1716 984 
Q 1784 875 1895 815 
Q 2006 756 2150 756 
Q 2500 756 2700 1025 
Q 2900 1294 2900 1772 
L 2900 3500 
L 4019 3500 
L 4019 0 
L 2900 0 
L 2900 506 
Q 2647 200 2364 54 
Q 2081 -91 1741 -91 
Q 1134 -91 817 281 
Q 500 653 500 1363 
z
" transform="scale(0.015625)"/>
       <path id="DejaVuSans-Bold-72" d="M 3138 2547 
Q 2991 2616 2845 2648 
Q 2700 2681 2553 2681 
Q 2122 2681 1889 2404 
Q 1656 2128 1656 1613 
L 1656 0 
L 538 0 
L 538 3500 
L 1656 3500 
L 1656 2925 
Q 1872 3269 2151 3426 
Q 2431 3584 2822 3584 
Q 2878 3584 2943 3579 
Q 3009 3575 3134 3559 
L 3138 2547 
z
" transform="scale(0.015625)"/>
      </defs>
      <use xlink:href="#DejaVuSans-Bold-48"/>
      <use xlink:href="#DejaVuSans-Bold-6f" x="83.691406"/>
      <use xlink:href="#DejaVuSans-Bold-75" x="152.392578"/>
      <use xlink:href="#DejaVuSans-Bold-72" x="223.583984"/>
     </g>
    </g>
   </g>
   <g id="matplotlib.axis_2">
    <g id="ytick_1">
     <g id="line2d_6">
      <defs>
       <path id="m19ec0312b8" d="M 0 0 
L -3.5 0 
" style="stroke: #000000; stroke-width: 0.8"/>
      </defs>
      <g>
       <use xlink:href="#m19ec0312b8" x="180" y="365.001147" style="stroke: #000000; stroke-width: 0.8"/>
      </g>
     </g>
     <g id="text_7">
      <!-- 0 -->
      <g transform="translate(166.6375 368.800366)scale(0.1 -0.1)">
       <use xlink:href="#DejaVuSans-30"/>
      </g>
     </g>
    </g>
    <g id="ytick_2">
     <g id="line2d_7">
      <g>
       <use xlink:href="#m19ec0312b8" x="180" y="314.227709" style="stroke: #000000; stroke-width: 0.8"/>
      </g>
     </g>
     <g id="text_8">
      <!-- 100 -->
      <g transform="translate(153.9125 318.026928)scale(0.1 -0.1)">
       <use xlink:href="#DejaVuSans-31"/>
       <use xlink:href="#DejaVuSans-30" x="63.623047"/>
       <use xlink:href="#DejaVuSans-30" x="127.246094"/>
      </g>
     </g>
    </g>
    <g id="ytick_3">
     <g id="line2d_8">
      <g>
       <use xlink:href="#m19ec0312b8" x="180" y="263.45427" style="stroke: #000000; stroke-width: 0.8"/>
      </g>
     </g>
     <g id="text_9">
      <!-- 200 -->
      <g transform="translate(153.9125 267.253489)scale(0.1 -0.1)">
       <use xlink:href="#DejaVuSans-32"/>
       <use xlink:href="#DejaVuSans-30" x="63.623047"/>
       <use xlink:href="#DejaVuSans-30" x="127.246094"/>
      </g>
     </g>
    </g>
    <g id="ytick_4">
     <g id="line2d_9">
      <g>
       <use xlink:href="#m19ec0312b8" x="180" y="212.680832" style="stroke: #000000; stroke-width: 0.8"/>
      </g>
     </g>
     <g id="text_10">
      <!-- 300 -->
      <g transform="translate(153.9125 216.480051)scale(0.1 -0.1)">
       <defs>
        <path id="DejaVuSans-33" d="M 2597 2516 
Q 3050 2419 3304 2112 
Q 3559 1806 3559 1356 
Q 3559 666 3084 287 
Q 2609 -91 1734 -91 
Q 1441 -91 1130 -33 
Q 819 25 488 141 
L 488 750 
Q 750 597 1062 519 
Q 1375 441 1716 441 
Q 2309 441 2620 675 
Q 2931 909 2931 1356 
Q 2931 1769 2642 2001 
Q 2353 2234 1838 2234 
L 1294 2234 
L 1294 2753 
L 1863 2753 
Q 2328 2753 2575 2939 
Q 2822 3125 2822 3475 
Q 2822 3834 2567 4026 
Q 2313 4219 1838 4219 
Q 1578 4219 1281 4162 
Q 984 4106 628 3988 
L 628 4550 
Q 988 4650 1302 4700 
Q 1616 4750 1894 4750 
Q 2613 4750 3031 4423 
Q 3450 4097 3450 3541 
Q 3450 3153 3228 2886 
Q 3006 2619 2597 2516 
z
" transform="scale(0.015625)"/>
       </defs>
       <use xlink:href="#DejaVuSans-33"/>
       <use xlink:href="#DejaVuSans-30" x="63.623047"/>
       <use xlink:href="#DejaVuSans-30" x="127.246094"/>
      </g>
     </g>
    </g>
    <g id="ytick_5">
     <g id="line2d_10">
      <g>
       <use xlink:href="#m19ec0312b8" x="180" y="161.907393" style="stroke: #000000; stroke-width: 0.8"/>
      </g>
     </g>
     <g id="text_11">
      <!-- 400 -->
      <g transform="translate(153.9125 165.706612)scale(0.1 -0.1)">
       <defs>
        <path id="DejaVuSans-34" d="M 2419 4116 
L 825 1625 
L 2419 1625 
L 2419 4116 
z
M 2253 4666 
L 3047 4666 
L 3047 1625 
L 3713 1625 
L 3713 1100 
L 3047 1100 
L 3047 0 
L 2419 0 
L 2419 1100 
L 313 1100 
L 313 1709 
L 2253 4666 
z
" transform="scale(0.015625)"/>
       </defs>
       <use xlink:href="#DejaVuSans-34"/>
       <use xlink:href="#DejaVuSans-30" x="63.623047"/>
       <use xlink:href="#DejaVuSans-30" x="127.246094"/>
      </g>
     </g>
    </g>
    <g id="ytick_6">
     <g id="line2d_11">
      <g>
       <use xlink:href="#m19ec0312b8" x="180" y="111.133955" style="stroke: #000000; stroke-width: 0.8"/>
      </g>
     </g>
     <g id="text_12">
      <!-- 500 -->
      <g transform="translate(153.9125 114.933174)scale(0.1 -0.1)">
       <use xlink:href="#DejaVuSans-35"/>
       <use xlink:href="#DejaVuSans-30" x="63.623047"/>
       <use xlink:href="#DejaVuSans-30" x="127.246094"/>
      </g>
     </g>
    </g>
    <g id="ytick_7">
     <g id="line2d_12">
      <g>
       <use xlink:href="#m19ec0312b8" x="180" y="60.360516" style="stroke: #000000; stroke-width: 0.8"/>
      </g>
     </g>
     <g id="text_13">
      <!-- 600 -->
      <g transform="translate(153.9125 64.159735)scale(0.1 -0.1)">
       <defs>
        <path id="DejaVuSans-36" d="M 2113 2584 
Q 1688 2584 1439 2293 
Q 1191 2003 1191 1497 
Q 1191 994 1439 701 
Q 1688 409 2113 409 
Q 2538 409 2786 701 
Q 3034 994 3034 1497 
Q 3034 2003 2786 2293 
Q 2538 2584 2113 2584 
z
M 3366 4563 
L 3366 3988 
Q 3128 4100 2886 4159 
Q 2644 4219 2406 4219 
Q 1781 4219 1451 3797 
Q 1122 3375 1075 2522 
Q 1259 2794 1537 2939 
Q 1816 3084 2150 3084 
Q 2853 3084 3261 2657 
Q 3669 2231 3669 1497 
Q 3669 778 3244 343 
Q 2819 -91 2113 -91 
Q 1303 -91 875 529 
Q 447 1150 447 2328 
Q 447 3434 972 4092 
Q 1497 4750 2381 4750 
Q 2619 4750 2861 4703 
Q 3103 4656 3366 4563 
z
" transform="scale(0.015625)"/>
       </defs>
       <use xlink:href="#DejaVuSans-36"/>
       <use xlink:href="#DejaVuSans-30" x="63.623047"/>
       <use xlink:href="#DejaVuSans-30" x="127.246094"/>
      </g>
     </g>
    </g>
    <g id="text_14">
     <!-- Count -->
     <g transform="translate(146.585 241.50125)rotate(-90)scale(0.16 -0.16)">
      <defs>
       <path id="DejaVuSans-Bold-43" d="M 4288 256 
Q 3956 84 3597 -3 
Q 3238 -91 2847 -91 
Q 1681 -91 1000 561 
Q 319 1213 319 2328 
Q 319 3447 1000 4098 
Q 1681 4750 2847 4750 
Q 3238 4750 3597 4662 
Q 3956 4575 4288 4403 
L 4288 3438 
Q 3953 3666 3628 3772 
Q 3303 3878 2944 3878 
Q 2300 3878 1931 3465 
Q 1563 3053 1563 2328 
Q 1563 1606 1931 1193 
Q 2300 781 2944 781 
Q 3303 781 3628 887 
Q 3953 994 4288 1222 
L 4288 256 
z
" transform="scale(0.015625)"/>
       <path id="DejaVuSans-Bold-6e" d="M 4056 2131 
L 4056 0 
L 2931 0 
L 2931 347 
L 2931 1631 
Q 2931 2084 2911 2256 
Q 2891 2428 2841 2509 
Q 2775 2619 2662 2680 
Q 2550 2741 2406 2741 
Q 2056 2741 1856 2470 
Q 1656 2200 1656 1722 
L 1656 0 
L 538 0 
L 538 3500 
L 1656 3500 
L 1656 2988 
Q 1909 3294 2193 3439 
Q 2478 3584 2822 3584 
Q 3428 3584 3742 3212 
Q 4056 2841 4056 2131 
z
" transform="scale(0.015625)"/>
       <path id="DejaVuSans-Bold-74" d="M 1759 4494 
L 1759 3500 
L 2913 3500 
L 2913 2700 
L 1759 2700 
L 1759 1216 
Q 1759 972 1856 886 
Q 1953 800 2241 800 
L 2816 800 
L 2816 0 
L 1856 0 
Q 1194 0 917 276 
Q 641 553 641 1216 
L 641 2700 
L 84 2700 
L 84 3500 
L 641 3500 
L 641 4494 
L 1759 4494 
z
" transform="scale(0.015625)"/>
      </defs>
      <use xlink:href="#DejaVuSans-Bold-43"/>
      <use xlink:href="#DejaVuSans-Bold-6f" x="73.388672"/>
      <use xlink:href="#DejaVuSans-Bold-75" x="142.089844"/>
      <use xlink:href="#DejaVuSans-Bold-6e" x="213.28125"/>
      <use xlink:href="#DejaVuSans-Bold-74" x="284.472656"/>
     </g>
    </g>
   </g>
   <g id="line2d_13">
    <path d="M 230.727273 317.278997 
L 274.837945 325.685907 
L 318.948617 333.710772 
L 363.059289 349.188151 
L 407.16996 360.24736 
L 451.280632 360.586967 
L 495.391304 357.641464 
L 539.501976 348.192722 
L 583.612648 322.423993 
L 627.72332 285.518956 
L 671.833992 233.710707 
L 715.944664 204.871394 
L 760.055336 175.635564 
L 804.166008 174.634602 
L 848.27668 180.374418 
L 892.387352 185.297024 
L 936.498024 184.552347 
L 980.608696 203.149932 
L 1024.719368 226.578247 
L 1068.83004 250.519133 
L 1112.940711 279.687264 
L 1157.051383 300.190062 
L 1201.162055 317.211253 
L 1245.272727 333.574807 
" clip-path="url(#paa2394b986)" style="fill: none; stroke: #a1c9f4; stroke-width: 1.5; stroke-linecap: square"/>
   </g>
   <g id="line2d_14">
    <path d="M 230.727273 347.733343 
L 274.837945 356.213437 
L 318.948617 359.764816 
L 363.059289 362.404897 
L 407.16996 362.063541 
L 451.280632 354.006745 
L 495.391304 321.404339 
L 539.501976 238.809625 
L 583.612648 155.71694 
L 627.72332 254.090477 
L 671.833992 294.411422 
L 715.944664 281.888934 
L 760.055336 259.641381 
L 804.166008 260.603147 
L 848.27668 267.159755 
L 892.387352 262.253283 
L 936.498024 220.575125 
L 980.608696 109.918322 
L 1024.719368 120.605154 
L 1068.83004 190.047595 
L 1112.940711 242.09037 
L 1157.051383 276.381969 
L 1201.162055 306.22601 
L 1245.272727 331.793366 
" clip-path="url(#paa2394b986)" style="fill: none; stroke: #ffb482; stroke-width: 1.5; stroke-linecap: square"/>
   </g>
   <g id="line2d_15">
    <path d="M 230.727273 350.975613 
L 274.837945 358.634158 
L 318.948617 361.547548 
L 363.059289 362.892946 
L 407.16996 362.395803 
L 451.280632 352.584277 
L 495.391304 310.927435 
L 539.501976 212.835143 
L 583.612648 125.460029 
L 627.72332 244.946854 
L 671.833992 299.388923 
L 715.944664 290.712638 
L 760.055336 272.199133 
L 804.166008 272.090637 
L 848.27668 279.516252 
L 892.387352 270.103638 
L 936.498024 219.432723 
L 980.608696 88.652062 
L 1024.719368 102.214429 
L 1068.83004 185.302232 
L 1112.940711 236.446707 
L 1157.051383 270.445382 
L 1201.162055 297.838629 
L 1245.272727 326.325457 
" clip-path="url(#paa2394b986)" style="fill: none; stroke: #8de5a1; stroke-width: 1.5; stroke-linecap: square"/>
   </g>
   <g id="line2d_16">
    <path d="M 230.727273 347.455019 
L 274.837945 357.21426 
L 318.948617 361.03385 
L 363.059289 362.518891 
L 407.16996 362.478342 
L 451.280632 351.926987 
L 495.391304 310.263475 
L 539.501976 210.659659 
L 583.612648 117.060777 
L 627.72332 243.89185 
L 671.833992 298.033911 
L 715.944664 287.722998 
L 760.055336 266.549497 
L 804.166008 270.650429 
L 848.27668 278.408025 
L 892.387352 272.954762 
L 936.498024 226.409189 
L 980.608696 104.460177 
L 1024.719368 114.165573 
L 1068.83004 183.48364 
L 1112.940711 234.685942 
L 1157.051383 266.160544 
L 1201.162055 292.045139 
L 1245.272727 322.484555 
" clip-path="url(#paa2394b986)" style="fill: none; stroke: #ff9f9b; stroke-width: 1.5; stroke-linecap: square"/>
   </g>
   <g id="line2d_17">
    <path d="M 230.727273 345.061482 
L 274.837945 356.256285 
L 318.948617 360.351893 
L 363.059289 362.426209 
L 407.16996 362.32031 
L 451.280632 351.844419 
L 495.391304 310.451743 
L 539.501976 210.275255 
L 583.612648 116.935929 
L 627.72332 242.701244 
L 671.833992 297.6943 
L 715.944664 284.355181 
L 760.055336 263.700743 
L 804.166008 265.263382 
L 848.27668 274.846253 
L 892.387352 265.243664 
L 936.498024 219.637769 
L 980.608696 97.249372 
L 1024.719368 110.069665 
L 1068.83004 183.002781 
L 1112.940711 228.464536 
L 1157.051383 264.528324 
L 1201.162055 290.242141 
L 1245.272727 315.877846 
" clip-path="url(#paa2394b986)" style="fill: none; stroke: #d0bbff; stroke-width: 1.5; stroke-linecap: square"/>
   </g>
   <g id="line2d_18">
    <path d="M 230.727273 338.379267 
L 274.837945 352.449368 
L 318.948617 358.532416 
L 363.059289 361.651096 
L 407.16996 361.918101 
L 451.280632 352.864343 
L 495.391304 319.290407 
L 539.501976 235.870624 
L 583.612648 130.286282 
L 627.72332 233.502824 
L 671.833992 284.915812 
L 715.944664 269.488498 
L 760.055336 244.341 
L 804.166008 242.39794 
L 848.27668 248.544455 
L 892.387352 236.817743 
L 936.498024 196.945948 
L 980.608696 114.985901 
L 1024.719368 151.249853 
L 1068.83004 211.631189 
L 1112.940711 256.687733 
L 1157.051383 278.749769 
L 1201.162055 290.330018 
L 1245.272727 306.504288 
" clip-path="url(#paa2394b986)" style="fill: none; stroke: #debb9b; stroke-width: 1.5; stroke-linecap: square"/>
   </g>
   <g id="line2d_19">
    <path d="M 230.727273 317.119377 
L 274.837945 330.586427 
L 318.948617 339.362979 
L 363.059289 353.381283 
L 407.16996 361.113353 
L 451.280632 360.791389 
L 495.391304 354.338725 
L 539.501976 341.664708 
L 583.612648 306.877649 
L 627.72332 270.1612 
L 671.833992 231.099501 
L 715.944664 198.154793 
L 760.055336 174.40733 
L 804.166008 169.334822 
L 848.27668 171.385102 
L 892.387352 170.829012 
L 936.498024 179.097829 
L 980.608696 195.209934 
L 1024.719368 216.718297 
L 1068.83004 243.179069 
L 1112.940711 273.169573 
L 1157.051383 285.794583 
L 1201.162055 294.089206 
L 1245.272727 306.17719 
" clip-path="url(#paa2394b986)" style="fill: none; stroke: #fab0e4; stroke-width: 1.5; stroke-linecap: square"/>
   </g>
   <g id="line2d_20"/>
   <g id="line2d_21"/>
   <g id="line2d_22"/>
   <g id="line2d_23"/>
   <g id="line2d_24"/>
   <g id="line2d_25"/>
   <g id="line2d_26"/>
   <g id="line2d_27">
    <path d="M 583.612648 378 
L 583.612648 51.84 
" clip-path="url(#paa2394b986)" style="fill: none; stroke-dasharray: 3.7,1.6; stroke-dashoffset: 0; stroke: #000000; stroke-opacity: 0.5"/>
   </g>
   <g id="line2d_28">
    <path d="M 980.608696 378 
L 980.608696 51.84 
" clip-path="url(#paa2394b986)" style="fill: none; stroke-dasharray: 3.7,1.6; stroke-dashoffset: 0; stroke: #000000; stroke-opacity: 0.5"/>
   </g>
   <g id="line2d_29">
    <path d="M 1024.719368 378 
L 1024.719368 51.84 
" clip-path="url(#paa2394b986)" style="fill: none; stroke-dasharray: 3.7,1.6; stroke-dashoffset: 0; stroke: #000000; stroke-opacity: 0.5"/>
   </g>
   <g id="patch_3">
    <path d="M 180 378 
L 180 51.84 
" style="fill: none; stroke: #000000; stroke-width: 0.8; stroke-linejoin: miter; stroke-linecap: square"/>
   </g>
   <g id="patch_4">
    <path d="M 1296 378 
L 1296 51.84 
" style="fill: none; stroke: #000000; stroke-width: 0.8; stroke-linejoin: miter; stroke-linecap: square"/>
   </g>
   <g id="patch_5">
    <path d="M 180 378 
L 1296 378 
" style="fill: none; stroke: #000000; stroke-width: 0.8; stroke-linejoin: miter; stroke-linecap: square"/>
   </g>
   <g id="patch_6">
    <path d="M 180 51.84 
L 1296 51.84 
" style="fill: none; stroke: #000000; stroke-width: 0.8; stroke-linejoin: miter; stroke-linecap: square"/>
   </g>
   <g id="text_15">
    <!-- Seasonal plot -->
    <g transform="translate(661.432812 45.84)scale(0.2 -0.2)">
     <defs>
      <path id="DejaVuSans-Bold-53" d="M 3834 4519 
L 3834 3531 
Q 3450 3703 3084 3790 
Q 2719 3878 2394 3878 
Q 1963 3878 1756 3759 
Q 1550 3641 1550 3391 
Q 1550 3203 1689 3098 
Q 1828 2994 2194 2919 
L 2706 2816 
Q 3484 2659 3812 2340 
Q 4141 2022 4141 1434 
Q 4141 663 3683 286 
Q 3225 -91 2284 -91 
Q 1841 -91 1394 -6 
Q 947 78 500 244 
L 500 1259 
Q 947 1022 1364 901 
Q 1781 781 2169 781 
Q 2563 781 2772 912 
Q 2981 1044 2981 1288 
Q 2981 1506 2839 1625 
Q 2697 1744 2272 1838 
L 1806 1941 
Q 1106 2091 782 2419 
Q 459 2747 459 3303 
Q 459 4000 909 4375 
Q 1359 4750 2203 4750 
Q 2588 4750 2994 4692 
Q 3400 4634 3834 4519 
z
" transform="scale(0.015625)"/>
      <path id="DejaVuSans-Bold-65" d="M 4031 1759 
L 4031 1441 
L 1416 1441 
Q 1456 1047 1700 850 
Q 1944 653 2381 653 
Q 2734 653 3104 758 
Q 3475 863 3866 1075 
L 3866 213 
Q 3469 63 3072 -14 
Q 2675 -91 2278 -91 
Q 1328 -91 801 392 
Q 275 875 275 1747 
Q 275 2603 792 3093 
Q 1309 3584 2216 3584 
Q 3041 3584 3536 3087 
Q 4031 2591 4031 1759 
z
M 2881 2131 
Q 2881 2450 2695 2645 
Q 2509 2841 2209 2841 
Q 1884 2841 1681 2658 
Q 1478 2475 1428 2131 
L 2881 2131 
z
" transform="scale(0.015625)"/>
      <path id="DejaVuSans-Bold-61" d="M 2106 1575 
Q 1756 1575 1579 1456 
Q 1403 1338 1403 1106 
Q 1403 894 1545 773 
Q 1688 653 1941 653 
Q 2256 653 2472 879 
Q 2688 1106 2688 1447 
L 2688 1575 
L 2106 1575 
z
M 3816 1997 
L 3816 0 
L 2688 0 
L 2688 519 
Q 2463 200 2181 54 
Q 1900 -91 1497 -91 
Q 953 -91 614 226 
Q 275 544 275 1050 
Q 275 1666 698 1953 
Q 1122 2241 2028 2241 
L 2688 2241 
L 2688 2328 
Q 2688 2594 2478 2717 
Q 2269 2841 1825 2841 
Q 1466 2841 1156 2769 
Q 847 2697 581 2553 
L 581 3406 
Q 941 3494 1303 3539 
Q 1666 3584 2028 3584 
Q 2975 3584 3395 3211 
Q 3816 2838 3816 1997 
z
" transform="scale(0.015625)"/>
      <path id="DejaVuSans-Bold-73" d="M 3272 3391 
L 3272 2541 
Q 2913 2691 2578 2766 
Q 2244 2841 1947 2841 
Q 1628 2841 1473 2761 
Q 1319 2681 1319 2516 
Q 1319 2381 1436 2309 
Q 1553 2238 1856 2203 
L 2053 2175 
Q 2913 2066 3209 1816 
Q 3506 1566 3506 1031 
Q 3506 472 3093 190 
Q 2681 -91 1863 -91 
Q 1516 -91 1145 -36 
Q 775 19 384 128 
L 384 978 
Q 719 816 1070 734 
Q 1422 653 1784 653 
Q 2113 653 2278 743 
Q 2444 834 2444 1013 
Q 2444 1163 2330 1236 
Q 2216 1309 1875 1350 
L 1678 1375 
Q 931 1469 631 1722 
Q 331 1975 331 2491 
Q 331 3047 712 3315 
Q 1094 3584 1881 3584 
Q 2191 3584 2531 3537 
Q 2872 3491 3272 3391 
z
" transform="scale(0.015625)"/>
      <path id="DejaVuSans-Bold-6c" d="M 538 4863 
L 1656 4863 
L 1656 0 
L 538 0 
L 538 4863 
z
" transform="scale(0.015625)"/>
      <path id="DejaVuSans-Bold-20" transform="scale(0.015625)"/>
      <path id="DejaVuSans-Bold-70" d="M 1656 506 
L 1656 -1331 
L 538 -1331 
L 538 3500 
L 1656 3500 
L 1656 2988 
Q 1888 3294 2169 3439 
Q 2450 3584 2816 3584 
Q 3463 3584 3878 3070 
Q 4294 2556 4294 1747 
Q 4294 938 3878 423 
Q 3463 -91 2816 -91 
Q 2450 -91 2169 54 
Q 1888 200 1656 506 
z
M 2400 2772 
Q 2041 2772 1848 2508 
Q 1656 2244 1656 1747 
Q 1656 1250 1848 986 
Q 2041 722 2400 722 
Q 2759 722 2948 984 
Q 3138 1247 3138 1747 
Q 3138 2247 2948 2509 
Q 2759 2772 2400 2772 
z
" transform="scale(0.015625)"/>
     </defs>
     <use xlink:href="#DejaVuSans-Bold-53"/>
     <use xlink:href="#DejaVuSans-Bold-65" x="72.021484"/>
     <use xlink:href="#DejaVuSans-Bold-61" x="139.84375"/>
     <use xlink:href="#DejaVuSans-Bold-73" x="207.324219"/>
     <use xlink:href="#DejaVuSans-Bold-6f" x="266.845703"/>
     <use xlink:href="#DejaVuSans-Bold-6e" x="335.546875"/>
     <use xlink:href="#DejaVuSans-Bold-61" x="406.738281"/>
     <use xlink:href="#DejaVuSans-Bold-6c" x="474.21875"/>
     <use xlink:href="#DejaVuSans-Bold-20" x="508.496094"/>
     <use xlink:href="#DejaVuSans-Bold-70" x="543.310547"/>
     <use xlink:href="#DejaVuSans-Bold-6c" x="614.892578"/>
     <use xlink:href="#DejaVuSans-Bold-6f" x="649.169922"/>
     <use xlink:href="#DejaVuSans-Bold-74" x="717.871094"/>
    </g>
   </g>
   <g id="legend_1">
    <g id="patch_7">
     <path d="M 1240.329688 177.265 
L 1289 177.265 
Q 1291 177.265 1291 175.265 
L 1291 58.84 
Q 1291 56.84 1289 56.84 
L 1240.329688 56.84 
Q 1238.329688 56.84 1238.329688 58.84 
L 1238.329688 175.265 
Q 1238.329688 177.265 1240.329688 177.265 
z
" style="fill: #ffffff; opacity: 0.8; stroke: #cccccc; stroke-linejoin: miter"/>
    </g>
    <g id="text_16">
     <!-- weekday -->
     <g transform="translate(1242.329688 68.438437)scale(0.1 -0.1)">
      <defs>
       <path id="DejaVuSans-77" d="M 269 3500 
L 844 3500 
L 1563 769 
L 2278 3500 
L 2956 3500 
L 3675 769 
L 4391 3500 
L 4966 3500 
L 4050 0 
L 3372 0 
L 2619 2869 
L 1863 0 
L 1184 0 
L 269 3500 
z
" transform="scale(0.015625)"/>
       <path id="DejaVuSans-65" d="M 3597 1894 
L 3597 1613 
L 953 1613 
Q 991 1019 1311 708 
Q 1631 397 2203 397 
Q 2534 397 2845 478 
Q 3156 559 3463 722 
L 3463 178 
Q 3153 47 2828 -22 
Q 2503 -91 2169 -91 
Q 1331 -91 842 396 
Q 353 884 353 1716 
Q 353 2575 817 3079 
Q 1281 3584 2069 3584 
Q 2775 3584 3186 3129 
Q 3597 2675 3597 1894 
z
M 3022 2063 
Q 3016 2534 2758 2815 
Q 2500 3097 2075 3097 
Q 1594 3097 1305 2825 
Q 1016 2553 972 2059 
L 3022 2063 
z
" transform="scale(0.015625)"/>
       <path id="DejaVuSans-6b" d="M 581 4863 
L 1159 4863 
L 1159 1991 
L 2875 3500 
L 3609 3500 
L 1753 1863 
L 3688 0 
L 2938 0 
L 1159 1709 
L 1159 0 
L 581 0 
L 581 4863 
z
" transform="scale(0.015625)"/>
       <path id="DejaVuSans-64" d="M 2906 2969 
L 2906 4863 
L 3481 4863 
L 3481 0 
L 2906 0 
L 2906 525 
Q 2725 213 2448 61 
Q 2172 -91 1784 -91 
Q 1150 -91 751 415 
Q 353 922 353 1747 
Q 353 2572 751 3078 
Q 1150 3584 1784 3584 
Q 2172 3584 2448 3432 
Q 2725 3281 2906 2969 
z
M 947 1747 
Q 947 1113 1208 752 
Q 1469 391 1925 391 
Q 2381 391 2643 752 
Q 2906 1113 2906 1747 
Q 2906 2381 2643 2742 
Q 2381 3103 1925 3103 
Q 1469 3103 1208 2742 
Q 947 2381 947 1747 
z
" transform="scale(0.015625)"/>
       <path id="DejaVuSans-61" d="M 2194 1759 
Q 1497 1759 1228 1600 
Q 959 1441 959 1056 
Q 959 750 1161 570 
Q 1363 391 1709 391 
Q 2188 391 2477 730 
Q 2766 1069 2766 1631 
L 2766 1759 
L 2194 1759 
z
M 3341 1997 
L 3341 0 
L 2766 0 
L 2766 531 
Q 2569 213 2275 61 
Q 1981 -91 1556 -91 
Q 1019 -91 701 211 
Q 384 513 384 1019 
Q 384 1609 779 1909 
Q 1175 2209 1959 2209 
L 2766 2209 
L 2766 2266 
Q 2766 2663 2505 2880 
Q 2244 3097 1772 3097 
Q 1472 3097 1187 3025 
Q 903 2953 641 2809 
L 641 3341 
Q 956 3463 1253 3523 
Q 1550 3584 1831 3584 
Q 2591 3584 2966 3190 
Q 3341 2797 3341 1997 
z
" transform="scale(0.015625)"/>
       <path id="DejaVuSans-79" d="M 2059 -325 
Q 1816 -950 1584 -1140 
Q 1353 -1331 966 -1331 
L 506 -1331 
L 506 -850 
L 844 -850 
Q 1081 -850 1212 -737 
Q 1344 -625 1503 -206 
L 1606 56 
L 191 3500 
L 800 3500 
L 1894 763 
L 2988 3500 
L 3597 3500 
L 2059 -325 
z
" transform="scale(0.015625)"/>
      </defs>
      <use xlink:href="#DejaVuSans-77"/>
      <use xlink:href="#DejaVuSans-65" x="81.787109"/>
      <use xlink:href="#DejaVuSans-65" x="143.310547"/>
      <use xlink:href="#DejaVuSans-6b" x="204.833984"/>
      <use xlink:href="#DejaVuSans-64" x="262.744141"/>
      <use xlink:href="#DejaVuSans-61" x="326.220703"/>
      <use xlink:href="#DejaVuSans-79" x="387.5"/>
     </g>
    </g>
    <g id="line2d_30">
     <path d="M 1247.483594 79.616562 
L 1257.483594 79.616562 
L 1267.483594 79.616562 
" style="fill: none; stroke: #a1c9f4; stroke-width: 1.5; stroke-linecap: square"/>
    </g>
    <g id="text_17">
     <!-- 0 -->
     <g transform="translate(1275.483594 83.116562)scale(0.1 -0.1)">
      <use xlink:href="#DejaVuSans-30"/>
     </g>
    </g>
    <g id="line2d_31">
     <path d="M 1247.483594 94.294688 
L 1257.483594 94.294688 
L 1267.483594 94.294688 
" style="fill: none; stroke: #ffb482; stroke-width: 1.5; stroke-linecap: square"/>
    </g>
    <g id="text_18">
     <!-- 1 -->
     <g transform="translate(1275.483594 97.794688)scale(0.1 -0.1)">
      <use xlink:href="#DejaVuSans-31"/>
     </g>
    </g>
    <g id="line2d_32">
     <path d="M 1247.483594 108.972812 
L 1257.483594 108.972812 
L 1267.483594 108.972812 
" style="fill: none; stroke: #8de5a1; stroke-width: 1.5; stroke-linecap: square"/>
    </g>
    <g id="text_19">
     <!-- 2 -->
     <g transform="translate(1275.483594 112.472812)scale(0.1 -0.1)">
      <use xlink:href="#DejaVuSans-32"/>
     </g>
    </g>
    <g id="line2d_33">
     <path d="M 1247.483594 123.650937 
L 1257.483594 123.650937 
L 1267.483594 123.650937 
" style="fill: none; stroke: #ff9f9b; stroke-width: 1.5; stroke-linecap: square"/>
    </g>
    <g id="text_20">
     <!-- 3 -->
     <g transform="translate(1275.483594 127.150937)scale(0.1 -0.1)">
      <use xlink:href="#DejaVuSans-33"/>
     </g>
    </g>
    <g id="line2d_34">
     <path d="M 1247.483594 138.329062 
L 1257.483594 138.329062 
L 1267.483594 138.329062 
" style="fill: none; stroke: #d0bbff; stroke-width: 1.5; stroke-linecap: square"/>
    </g>
    <g id="text_21">
     <!-- 4 -->
     <g transform="translate(1275.483594 141.829062)scale(0.1 -0.1)">
      <use xlink:href="#DejaVuSans-34"/>
     </g>
    </g>
    <g id="line2d_35">
     <path d="M 1247.483594 153.007187 
L 1257.483594 153.007187 
L 1267.483594 153.007187 
" style="fill: none; stroke: #debb9b; stroke-width: 1.5; stroke-linecap: square"/>
    </g>
    <g id="text_22">
     <!-- 5 -->
     <g transform="translate(1275.483594 156.507187)scale(0.1 -0.1)">
      <use xlink:href="#DejaVuSans-35"/>
     </g>
    </g>
    <g id="line2d_36">
     <path d="M 1247.483594 167.685313 
L 1257.483594 167.685313 
L 1267.483594 167.685313 
" style="fill: none; stroke: #fab0e4; stroke-width: 1.5; stroke-linecap: square"/>
    </g>
    <g id="text_23">
     <!-- 6 -->
     <g transform="translate(1275.483594 171.185313)scale(0.1 -0.1)">
      <use xlink:href="#DejaVuSans-36"/>
     </g>
    </g>
   </g>
  </g>
 </g>
 <defs>
  <clipPath id="paa2394b986">
   <rect x="180" y="51.84" width="1116" height="326.16"/>
  </clipPath>
 </defs>
</svg>
