<?xml version="1.0" encoding="utf-8" standalone="no"?>
<!DOCTYPE svg PUBLIC "-//W3C//DTD SVG 1.1//EN"
  "http://www.w3.org/Graphics/SVG/1.1/DTD/svg11.dtd">
<svg xmlns:xlink="http://www.w3.org/1999/xlink" width="1440pt" height="576pt" viewBox="0 0 1440 576" xmlns="http://www.w3.org/2000/svg" version="1.1">
 <metadata>
  <rdf:RDF xmlns:dc="http://purl.org/dc/elements/1.1/" xmlns:cc="http://creativecommons.org/ns#" xmlns:rdf="http://www.w3.org/1999/02/22-rdf-syntax-ns#">
   <cc:Work>
    <dc:type rdf:resource="http://purl.org/dc/dcmitype/StillImage"/>
    <dc:date>2022-09-15T22:20:19.910305</dc:date>
    <dc:format>image/svg+xml</dc:format>
    <dc:creator>
     <cc:Agent>
      <dc:title>Matplotlib v3.5.3, https://matplotlib.org/</dc:title>
     </cc:Agent>
    </dc:creator>
   </cc:Work>
  </rdf:RDF>
 </metadata>
 <defs>
  <style type="text/css">*{stroke-linejoin: round; stroke-linecap: butt}</style>
 </defs>
 <g id="figure_1">
  <g id="patch_1">
   <path d="M 0 576 
L 1440 576 
L 1440 0 
L 0 0 
L 0 576 
z
" style="fill: none"/>
  </g>
  <g id="axes_1">
   <g id="patch_2">
    <path d="M 180 504 
L 1296 504 
L 1296 69.12 
L 180 69.12 
z
" style="fill: #ffffff"/>
   </g>
   <g id="PolyCollection_1">
    <defs>
     <path id="m39d9d09b38" d="M 230.727273 -125.347838 
L 230.727273 -91.767273 
L 399.818182 -99.359525 
L 568.909091 -148.555146 
L 738 -115.949882 
L 907.090909 -147.965343 
L 1076.181818 -130.338673 
L 1245.272727 -96.930328 
L 1245.272727 -141.512668 
L 1245.272727 -141.512668 
L 1076.181818 -180.159645 
L 907.090909 -205.709399 
L 738 -166.980003 
L 568.909091 -207.951533 
L 399.818182 -134.32733 
L 230.727273 -125.347838 
z
" style="stroke: #a1c9f4; stroke-opacity: 0.2"/>
    </defs>
    <g clip-path="url(#pe1f20a44ce)">
     <use xlink:href="#m39d9d09b38" x="0" y="576" style="fill: #a1c9f4; fill-opacity: 0.2; stroke: #a1c9f4; stroke-opacity: 0.2"/>
    </g>
   </g>
   <g id="PolyCollection_2">
    <defs>
     <path id="mc6a2a2520a" d="M 230.727273 -161.873627 
L 230.727273 -119.035924 
L 399.818182 -140.165717 
L 568.909091 -156.931912 
L 738 -153.948234 
L 907.090909 -156.32579 
L 1076.181818 -165.104389 
L 1245.272727 -117.710867 
L 1245.272727 -160.974727 
L 1245.272727 -160.974727 
L 1076.181818 -218.313012 
L 907.090909 -217.827064 
L 738 -208.949853 
L 568.909091 -222.536384 
L 399.818182 -197.707656 
L 230.727273 -161.873627 
z
" style="stroke: #ffb482; stroke-opacity: 0.2"/>
    </defs>
    <g clip-path="url(#pe1f20a44ce)">
     <use xlink:href="#mc6a2a2520a" x="0" y="576" style="fill: #ffb482; fill-opacity: 0.2; stroke: #ffb482; stroke-opacity: 0.2"/>
    </g>
   </g>
   <g id="PolyCollection_3">
    <defs>
     <path id="md9357756f6" d="M 230.727273 -257.345756 
L 230.727273 -180.98887 
L 399.818182 -198.966541 
L 568.909091 -197.319348 
L 738 -205.813957 
L 907.090909 -215.630073 
L 1076.181818 -223.100409 
L 1245.272727 -224.415163 
L 1245.272727 -295.408672 
L 1245.272727 -295.408672 
L 1076.181818 -301.997487 
L 907.090909 -293.753518 
L 738 -279.750081 
L 568.909091 -269.770228 
L 399.818182 -280.24471 
L 230.727273 -257.345756 
z
" style="stroke: #8de5a1; stroke-opacity: 0.2"/>
    </defs>
    <g clip-path="url(#pe1f20a44ce)">
     <use xlink:href="#md9357756f6" x="0" y="576" style="fill: #8de5a1; fill-opacity: 0.2; stroke: #8de5a1; stroke-opacity: 0.2"/>
    </g>
   </g>
   <g id="PolyCollection_4">
    <defs>
     <path id="m8af4fd90d2" d="M 230.727273 -332.802559 
L 230.727273 -250.806144 
L 399.818182 -266.416212 
L 568.909091 -256.910613 
L 738 -250.370313 
L 907.090909 -274.266501 
L 1076.181818 -251.648452 
L 1245.272727 -252.947615 
L 1245.272727 -340.948778 
L 1245.272727 -340.948778 
L 1076.181818 -333.582215 
L 907.090909 -360.591726 
L 738 -334.178716 
L 568.909091 -351.920829 
L 399.818182 -343.154416 
L 230.727273 -332.802559 
z
" style="stroke: #ff9f9b; stroke-opacity: 0.2"/>
    </defs>
    <g clip-path="url(#pe1f20a44ce)">
     <use xlink:href="#m8af4fd90d2" x="0" y="576" style="fill: #ff9f9b; fill-opacity: 0.2; stroke: #ff9f9b; stroke-opacity: 0.2"/>
    </g>
   </g>
   <g id="PolyCollection_5">
    <defs>
     <path id="me863b7efd1" d="M 230.727273 -400.873748 
L 230.727273 -317.513929 
L 399.818182 -264.213256 
L 568.909091 -297.960656 
L 738 -298.435411 
L 907.090909 -356.493779 
L 1076.181818 -341.702902 
L 1245.272727 -359.822014 
L 1245.272727 -451.277682 
L 1245.272727 -451.277682 
L 1076.181818 -433.065712 
L 907.090909 -446.313014 
L 738 -387.459078 
L 568.909091 -379.931234 
L 399.818182 -338.217593 
L 230.727273 -400.873748 
z
" style="stroke: #d0bbff; stroke-opacity: 0.2"/>
    </defs>
    <g clip-path="url(#pe1f20a44ce)">
     <use xlink:href="#me863b7efd1" x="0" y="576" style="fill: #d0bbff; fill-opacity: 0.2; stroke: #d0bbff; stroke-opacity: 0.2"/>
    </g>
   </g>
   <g id="PolyCollection_6">
    <defs>
     <path id="mc9d285d74a" d="M 230.727273 -450.593444 
L 230.727273 -355.100367 
L 399.818182 -320.64434 
L 568.909091 -333.137841 
L 738 -342.729856 
L 907.090909 -334.515019 
L 1076.181818 -338.083937 
L 1245.272727 -387.827426 
L 1245.272727 -476.078198 
L 1245.272727 -476.078198 
L 1076.181818 -420.735104 
L 907.090909 -429.718658 
L 738 -431.778583 
L 568.909091 -438.007309 
L 399.818182 -421.7006 
L 230.727273 -450.593444 
z
" style="stroke: #debb9b; stroke-opacity: 0.2"/>
    </defs>
    <g clip-path="url(#pe1f20a44ce)">
     <use xlink:href="#mc9d285d74a" x="0" y="576" style="fill: #debb9b; fill-opacity: 0.2; stroke: #debb9b; stroke-opacity: 0.2"/>
    </g>
   </g>
   <g id="PolyCollection_7">
    <defs>
     <path id="m10d687456f" d="M 230.727273 -395.22774 
L 230.727273 -325.018363 
L 399.818182 -346.892864 
L 568.909091 -348.033709 
L 738 -344.350577 
L 907.090909 -332.931988 
L 1076.181818 -324.259948 
L 1245.272727 -313.293042 
L 1245.272727 -384.193271 
L 1245.272727 -384.193271 
L 1076.181818 -405.789364 
L 907.090909 -429.548083 
L 738 -439.299933 
L 568.909091 -439.460787 
L 399.818182 -438.829702 
L 230.727273 -395.22774 
z
" style="stroke: #fab0e4; stroke-opacity: 0.2"/>
    </defs>
    <g clip-path="url(#pe1f20a44ce)">
     <use xlink:href="#m10d687456f" x="0" y="576" style="fill: #fab0e4; fill-opacity: 0.2; stroke: #fab0e4; stroke-opacity: 0.2"/>
    </g>
   </g>
   <g id="PolyCollection_8">
    <defs>
     <path id="ma3882319c7" d="M 230.727273 -365.42281 
L 230.727273 -283.690474 
L 399.818182 -323.684553 
L 568.909091 -352.74745 
L 738 -364.227317 
L 907.090909 -358.98709 
L 1076.181818 -360.291424 
L 1245.272727 -316.869589 
L 1245.272727 -406.295929 
L 1245.272727 -406.295929 
L 1076.181818 -444.089799 
L 907.090909 -460.443496 
L 738 -462.666154 
L 568.909091 -448.854258 
L 399.818182 -420.99963 
L 230.727273 -365.42281 
z
" style="stroke: #cfcfcf; stroke-opacity: 0.2"/>
    </defs>
    <g clip-path="url(#pe1f20a44ce)">
     <use xlink:href="#ma3882319c7" x="0" y="576" style="fill: #cfcfcf; fill-opacity: 0.2; stroke: #cfcfcf; stroke-opacity: 0.2"/>
    </g>
   </g>
   <g id="PolyCollection_9">
    <defs>
     <path id="m0aec9a75e5" d="M 230.727273 -467.200653 
L 230.727273 -367.000648 
L 399.818182 -331.965454 
L 568.909091 -301.67503 
L 738 -328.808434 
L 907.090909 -323.151563 
L 1076.181818 -339.774121 
L 1245.272727 -384.714965 
L 1245.272727 -487.112727 
L 1245.272727 -487.112727 
L 1076.181818 -435.253425 
L 907.090909 -423.15702 
L 738 -444.2243 
L 568.909091 -400.131899 
L 399.818182 -433.079363 
L 230.727273 -467.200653 
z
" style="stroke: #fffea3; stroke-opacity: 0.2"/>
    </defs>
    <g clip-path="url(#pe1f20a44ce)">
     <use xlink:href="#m0aec9a75e5" x="0" y="576" style="fill: #fffea3; fill-opacity: 0.2; stroke: #fffea3; stroke-opacity: 0.2"/>
    </g>
   </g>
   <g id="PolyCollection_10">
    <defs>
     <path id="m7bca5b7159" d="M 230.727273 -355.634765 
L 230.727273 -276.922257 
L 399.818182 -298.823862 
L 568.909091 -315.008601 
L 738 -323.227893 
L 907.090909 -324.70211 
L 1076.181818 -333.017461 
L 1245.272727 -321.758483 
L 1245.272727 -415.496885 
L 1245.272727 -415.496885 
L 1076.181818 -428.634722 
L 907.090909 -423.768306 
L 738 -424.480209 
L 568.909091 -411.035233 
L 399.818182 -388.259276 
L 230.727273 -355.634765 
z
" style="stroke: #b9f2f0; stroke-opacity: 0.2"/>
    </defs>
    <g clip-path="url(#pe1f20a44ce)">
     <use xlink:href="#m7bca5b7159" x="0" y="576" style="fill: #b9f2f0; fill-opacity: 0.2; stroke: #b9f2f0; stroke-opacity: 0.2"/>
    </g>
   </g>
   <g id="PolyCollection_11">
    <defs>
     <path id="md4940cbf92" d="M 230.727273 -308.706866 
L 230.727273 -235.370086 
L 399.818182 -270.288771 
L 568.909091 -228.789395 
L 738 -237.718652 
L 907.090909 -228.918971 
L 1076.181818 -266.444029 
L 1245.272727 -245.658943 
L 1245.272727 -322.248429 
L 1245.272727 -322.248429 
L 1076.181818 -335.017619 
L 907.090909 -304.044142 
L 738 -309.55964 
L 568.909091 -304.311477 
L 399.818182 -357.153905 
L 230.727273 -308.706866 
z
" style="stroke: #a1c9f4; stroke-opacity: 0.2"/>
    </defs>
    <g clip-path="url(#pe1f20a44ce)">
     <use xlink:href="#md4940cbf92" x="0" y="576" style="fill: #a1c9f4; fill-opacity: 0.2; stroke: #a1c9f4; stroke-opacity: 0.2"/>
    </g>
   </g>
   <g id="PolyCollection_12">
    <defs>
     <path id="m76ef72595b" d="M 230.727273 -198.740847 
L 230.727273 -149.040541 
L 399.818182 -194.484384 
L 568.909091 -206.050416 
L 738 -177.495963 
L 907.090909 -210.820099 
L 1076.181818 -214.343868 
L 1245.272727 -177.103865 
L 1245.272727 -235.785999 
L 1245.272727 -235.785999 
L 1076.181818 -273.634969 
L 907.090909 -277.132486 
L 738 -249.939581 
L 568.909091 -284.544292 
L 399.818182 -265.529495 
L 230.727273 -198.740847 
z
" style="stroke: #ffb482; stroke-opacity: 0.2"/>
    </defs>
    <g clip-path="url(#pe1f20a44ce)">
     <use xlink:href="#m76ef72595b" x="0" y="576" style="fill: #ffb482; fill-opacity: 0.2; stroke: #ffb482; stroke-opacity: 0.2"/>
    </g>
   </g>
   <g id="matplotlib.axis_1">
    <g id="xtick_1">
     <g id="line2d_1">
      <defs>
       <path id="mb823f5f29b" d="M 0 0 
L 0 3.5 
" style="stroke: #000000; stroke-width: 0.8"/>
      </defs>
      <g>
       <use xlink:href="#mb823f5f29b" x="230.727273" y="504" style="stroke: #000000; stroke-width: 0.8"/>
      </g>
     </g>
     <g id="text_1">
      <!-- 0 -->
      <g transform="translate(227.546023 518.598438)scale(0.1 -0.1)">
       <defs>
        <path id="DejaVuSans-30" d="M 2034 4250 
Q 1547 4250 1301 3770 
Q 1056 3291 1056 2328 
Q 1056 1369 1301 889 
Q 1547 409 2034 409 
Q 2525 409 2770 889 
Q 3016 1369 3016 2328 
Q 3016 3291 2770 3770 
Q 2525 4250 2034 4250 
z
M 2034 4750 
Q 2819 4750 3233 4129 
Q 3647 3509 3647 2328 
Q 3647 1150 3233 529 
Q 2819 -91 2034 -91 
Q 1250 -91 836 529 
Q 422 1150 422 2328 
Q 422 3509 836 4129 
Q 1250 4750 2034 4750 
z
" transform="scale(0.015625)"/>
       </defs>
       <use xlink:href="#DejaVuSans-30"/>
      </g>
     </g>
    </g>
    <g id="xtick_2">
     <g id="line2d_2">
      <g>
       <use xlink:href="#mb823f5f29b" x="399.818182" y="504" style="stroke: #000000; stroke-width: 0.8"/>
      </g>
     </g>
     <g id="text_2">
      <!-- 1 -->
      <g transform="translate(396.636932 518.598438)scale(0.1 -0.1)">
       <defs>
        <path id="DejaVuSans-31" d="M 794 531 
L 1825 531 
L 1825 4091 
L 703 3866 
L 703 4441 
L 1819 4666 
L 2450 4666 
L 2450 531 
L 3481 531 
L 3481 0 
L 794 0 
L 794 531 
z
" transform="scale(0.015625)"/>
       </defs>
       <use xlink:href="#DejaVuSans-31"/>
      </g>
     </g>
    </g>
    <g id="xtick_3">
     <g id="line2d_3">
      <g>
       <use xlink:href="#mb823f5f29b" x="568.909091" y="504" style="stroke: #000000; stroke-width: 0.8"/>
      </g>
     </g>
     <g id="text_3">
      <!-- 2 -->
      <g transform="translate(565.727841 518.598438)scale(0.1 -0.1)">
       <defs>
        <path id="DejaVuSans-32" d="M 1228 531 
L 3431 531 
L 3431 0 
L 469 0 
L 469 531 
Q 828 903 1448 1529 
Q 2069 2156 2228 2338 
Q 2531 2678 2651 2914 
Q 2772 3150 2772 3378 
Q 2772 3750 2511 3984 
Q 2250 4219 1831 4219 
Q 1534 4219 1204 4116 
Q 875 4013 500 3803 
L 500 4441 
Q 881 4594 1212 4672 
Q 1544 4750 1819 4750 
Q 2544 4750 2975 4387 
Q 3406 4025 3406 3419 
Q 3406 3131 3298 2873 
Q 3191 2616 2906 2266 
Q 2828 2175 2409 1742 
Q 1991 1309 1228 531 
z
" transform="scale(0.015625)"/>
       </defs>
       <use xlink:href="#DejaVuSans-32"/>
      </g>
     </g>
    </g>
    <g id="xtick_4">
     <g id="line2d_4">
      <g>
       <use xlink:href="#mb823f5f29b" x="738" y="504" style="stroke: #000000; stroke-width: 0.8"/>
      </g>
     </g>
     <g id="text_4">
      <!-- 3 -->
      <g transform="translate(734.81875 518.598438)scale(0.1 -0.1)">
       <defs>
        <path id="DejaVuSans-33" d="M 2597 2516 
Q 3050 2419 3304 2112 
Q 3559 1806 3559 1356 
Q 3559 666 3084 287 
Q 2609 -91 1734 -91 
Q 1441 -91 1130 -33 
Q 819 25 488 141 
L 488 750 
Q 750 597 1062 519 
Q 1375 441 1716 441 
Q 2309 441 2620 675 
Q 2931 909 2931 1356 
Q 2931 1769 2642 2001 
Q 2353 2234 1838 2234 
L 1294 2234 
L 1294 2753 
L 1863 2753 
Q 2328 2753 2575 2939 
Q 2822 3125 2822 3475 
Q 2822 3834 2567 4026 
Q 2313 4219 1838 4219 
Q 1578 4219 1281 4162 
Q 984 4106 628 3988 
L 628 4550 
Q 988 4650 1302 4700 
Q 1616 4750 1894 4750 
Q 2613 4750 3031 4423 
Q 3450 4097 3450 3541 
Q 3450 3153 3228 2886 
Q 3006 2619 2597 2516 
z
" transform="scale(0.015625)"/>
       </defs>
       <use xlink:href="#DejaVuSans-33"/>
      </g>
     </g>
    </g>
    <g id="xtick_5">
     <g id="line2d_5">
      <g>
       <use xlink:href="#mb823f5f29b" x="907.090909" y="504" style="stroke: #000000; stroke-width: 0.8"/>
      </g>
     </g>
     <g id="text_5">
      <!-- 4 -->
      <g transform="translate(903.909659 518.598438)scale(0.1 -0.1)">
       <defs>
        <path id="DejaVuSans-34" d="M 2419 4116 
L 825 1625 
L 2419 1625 
L 2419 4116 
z
M 2253 4666 
L 3047 4666 
L 3047 1625 
L 3713 1625 
L 3713 1100 
L 3047 1100 
L 3047 0 
L 2419 0 
L 2419 1100 
L 313 1100 
L 313 1709 
L 2253 4666 
z
" transform="scale(0.015625)"/>
       </defs>
       <use xlink:href="#DejaVuSans-34"/>
      </g>
     </g>
    </g>
    <g id="xtick_6">
     <g id="line2d_6">
      <g>
       <use xlink:href="#mb823f5f29b" x="1076.181818" y="504" style="stroke: #000000; stroke-width: 0.8"/>
      </g>
     </g>
     <g id="text_6">
      <!-- 5 -->
      <g transform="translate(1073.000568 518.598438)scale(0.1 -0.1)">
       <defs>
        <path id="DejaVuSans-35" d="M 691 4666 
L 3169 4666 
L 3169 4134 
L 1269 4134 
L 1269 2991 
Q 1406 3038 1543 3061 
Q 1681 3084 1819 3084 
Q 2600 3084 3056 2656 
Q 3513 2228 3513 1497 
Q 3513 744 3044 326 
Q 2575 -91 1722 -91 
Q 1428 -91 1123 -41 
Q 819 9 494 109 
L 494 744 
Q 775 591 1075 516 
Q 1375 441 1709 441 
Q 2250 441 2565 725 
Q 2881 1009 2881 1497 
Q 2881 1984 2565 2268 
Q 2250 2553 1709 2553 
Q 1456 2553 1204 2497 
Q 953 2441 691 2322 
L 691 4666 
z
" transform="scale(0.015625)"/>
       </defs>
       <use xlink:href="#DejaVuSans-35"/>
      </g>
     </g>
    </g>
    <g id="xtick_7">
     <g id="line2d_7">
      <g>
       <use xlink:href="#mb823f5f29b" x="1245.272727" y="504" style="stroke: #000000; stroke-width: 0.8"/>
      </g>
     </g>
     <g id="text_7">
      <!-- 6 -->
      <g transform="translate(1242.091477 518.598438)scale(0.1 -0.1)">
       <defs>
        <path id="DejaVuSans-36" d="M 2113 2584 
Q 1688 2584 1439 2293 
Q 1191 2003 1191 1497 
Q 1191 994 1439 701 
Q 1688 409 2113 409 
Q 2538 409 2786 701 
Q 3034 994 3034 1497 
Q 3034 2003 2786 2293 
Q 2538 2584 2113 2584 
z
M 3366 4563 
L 3366 3988 
Q 3128 4100 2886 4159 
Q 2644 4219 2406 4219 
Q 1781 4219 1451 3797 
Q 1122 3375 1075 2522 
Q 1259 2794 1537 2939 
Q 1816 3084 2150 3084 
Q 2853 3084 3261 2657 
Q 3669 2231 3669 1497 
Q 3669 778 3244 343 
Q 2819 -91 2113 -91 
Q 1303 -91 875 529 
Q 447 1150 447 2328 
Q 447 3434 972 4092 
Q 1497 4750 2381 4750 
Q 2619 4750 2861 4703 
Q 3103 4656 3366 4563 
z
" transform="scale(0.015625)"/>
       </defs>
       <use xlink:href="#DejaVuSans-36"/>
      </g>
     </g>
    </g>
    <g id="text_8">
     <!-- Day -->
     <g transform="translate(720.995 536.710625)scale(0.16 -0.16)">
      <defs>
       <path id="DejaVuSans-Bold-44" d="M 1791 3756 
L 1791 909 
L 2222 909 
Q 2959 909 3348 1275 
Q 3738 1641 3738 2338 
Q 3738 3031 3350 3393 
Q 2963 3756 2222 3756 
L 1791 3756 
z
M 588 4666 
L 1856 4666 
Q 2919 4666 3439 4514 
Q 3959 4363 4331 4000 
Q 4659 3684 4818 3271 
Q 4978 2859 4978 2338 
Q 4978 1809 4818 1395 
Q 4659 981 4331 666 
Q 3956 303 3431 151 
Q 2906 0 1856 0 
L 588 0 
L 588 4666 
z
" transform="scale(0.015625)"/>
       <path id="DejaVuSans-Bold-61" d="M 2106 1575 
Q 1756 1575 1579 1456 
Q 1403 1338 1403 1106 
Q 1403 894 1545 773 
Q 1688 653 1941 653 
Q 2256 653 2472 879 
Q 2688 1106 2688 1447 
L 2688 1575 
L 2106 1575 
z
M 3816 1997 
L 3816 0 
L 2688 0 
L 2688 519 
Q 2463 200 2181 54 
Q 1900 -91 1497 -91 
Q 953 -91 614 226 
Q 275 544 275 1050 
Q 275 1666 698 1953 
Q 1122 2241 2028 2241 
L 2688 2241 
L 2688 2328 
Q 2688 2594 2478 2717 
Q 2269 2841 1825 2841 
Q 1466 2841 1156 2769 
Q 847 2697 581 2553 
L 581 3406 
Q 941 3494 1303 3539 
Q 1666 3584 2028 3584 
Q 2975 3584 3395 3211 
Q 3816 2838 3816 1997 
z
" transform="scale(0.015625)"/>
       <path id="DejaVuSans-Bold-79" d="M 78 3500 
L 1197 3500 
L 2138 1125 
L 2938 3500 
L 4056 3500 
L 2584 -331 
Q 2363 -916 2067 -1148 
Q 1772 -1381 1288 -1381 
L 641 -1381 
L 641 -647 
L 991 -647 
Q 1275 -647 1404 -556 
Q 1534 -466 1606 -231 
L 1638 -134 
L 78 3500 
z
" transform="scale(0.015625)"/>
      </defs>
      <use xlink:href="#DejaVuSans-Bold-44"/>
      <use xlink:href="#DejaVuSans-Bold-61" x="83.007812"/>
      <use xlink:href="#DejaVuSans-Bold-79" x="147.363281"/>
     </g>
    </g>
   </g>
   <g id="matplotlib.axis_2">
    <g id="ytick_1">
     <g id="line2d_8">
      <defs>
       <path id="mf705224627" d="M 0 0 
L -3.5 0 
" style="stroke: #000000; stroke-width: 0.8"/>
      </defs>
      <g>
       <use xlink:href="#mf705224627" x="180" y="427.320528" style="stroke: #000000; stroke-width: 0.8"/>
      </g>
     </g>
     <g id="text_9">
      <!-- 100 -->
      <g transform="translate(153.9125 431.119747)scale(0.1 -0.1)">
       <use xlink:href="#DejaVuSans-31"/>
       <use xlink:href="#DejaVuSans-30" x="63.623047"/>
       <use xlink:href="#DejaVuSans-30" x="127.246094"/>
      </g>
     </g>
    </g>
    <g id="ytick_2">
     <g id="line2d_9">
      <g>
       <use xlink:href="#mf705224627" x="180" y="341.399179" style="stroke: #000000; stroke-width: 0.8"/>
      </g>
     </g>
     <g id="text_10">
      <!-- 150 -->
      <g transform="translate(153.9125 345.198398)scale(0.1 -0.1)">
       <use xlink:href="#DejaVuSans-31"/>
       <use xlink:href="#DejaVuSans-35" x="63.623047"/>
       <use xlink:href="#DejaVuSans-30" x="127.246094"/>
      </g>
     </g>
    </g>
    <g id="ytick_3">
     <g id="line2d_10">
      <g>
       <use xlink:href="#mf705224627" x="180" y="255.47783" style="stroke: #000000; stroke-width: 0.8"/>
      </g>
     </g>
     <g id="text_11">
      <!-- 200 -->
      <g transform="translate(153.9125 259.277049)scale(0.1 -0.1)">
       <use xlink:href="#DejaVuSans-32"/>
       <use xlink:href="#DejaVuSans-30" x="63.623047"/>
       <use xlink:href="#DejaVuSans-30" x="127.246094"/>
      </g>
     </g>
    </g>
    <g id="ytick_4">
     <g id="line2d_11">
      <g>
       <use xlink:href="#mf705224627" x="180" y="169.556481" style="stroke: #000000; stroke-width: 0.8"/>
      </g>
     </g>
     <g id="text_12">
      <!-- 250 -->
      <g transform="translate(153.9125 173.355699)scale(0.1 -0.1)">
       <use xlink:href="#DejaVuSans-32"/>
       <use xlink:href="#DejaVuSans-35" x="63.623047"/>
       <use xlink:href="#DejaVuSans-30" x="127.246094"/>
      </g>
     </g>
    </g>
    <g id="ytick_5">
     <g id="line2d_12">
      <g>
       <use xlink:href="#mf705224627" x="180" y="83.635131" style="stroke: #000000; stroke-width: 0.8"/>
      </g>
     </g>
     <g id="text_13">
      <!-- 300 -->
      <g transform="translate(153.9125 87.43435)scale(0.1 -0.1)">
       <use xlink:href="#DejaVuSans-33"/>
       <use xlink:href="#DejaVuSans-30" x="63.623047"/>
       <use xlink:href="#DejaVuSans-30" x="127.246094"/>
      </g>
     </g>
    </g>
    <g id="text_14">
     <!-- Count -->
     <g transform="translate(146.585 313.14125)rotate(-90)scale(0.16 -0.16)">
      <defs>
       <path id="DejaVuSans-Bold-43" d="M 4288 256 
Q 3956 84 3597 -3 
Q 3238 -91 2847 -91 
Q 1681 -91 1000 561 
Q 319 1213 319 2328 
Q 319 3447 1000 4098 
Q 1681 4750 2847 4750 
Q 3238 4750 3597 4662 
Q 3956 4575 4288 4403 
L 4288 3438 
Q 3953 3666 3628 3772 
Q 3303 3878 2944 3878 
Q 2300 3878 1931 3465 
Q 1563 3053 1563 2328 
Q 1563 1606 1931 1193 
Q 2300 781 2944 781 
Q 3303 781 3628 887 
Q 3953 994 4288 1222 
L 4288 256 
z
" transform="scale(0.015625)"/>
       <path id="DejaVuSans-Bold-6f" d="M 2203 2784 
Q 1831 2784 1636 2517 
Q 1441 2250 1441 1747 
Q 1441 1244 1636 976 
Q 1831 709 2203 709 
Q 2569 709 2762 976 
Q 2956 1244 2956 1747 
Q 2956 2250 2762 2517 
Q 2569 2784 2203 2784 
z
M 2203 3584 
Q 3106 3584 3614 3096 
Q 4122 2609 4122 1747 
Q 4122 884 3614 396 
Q 3106 -91 2203 -91 
Q 1297 -91 786 396 
Q 275 884 275 1747 
Q 275 2609 786 3096 
Q 1297 3584 2203 3584 
z
" transform="scale(0.015625)"/>
       <path id="DejaVuSans-Bold-75" d="M 500 1363 
L 500 3500 
L 1625 3500 
L 1625 3150 
Q 1625 2866 1622 2436 
Q 1619 2006 1619 1863 
Q 1619 1441 1641 1255 
Q 1663 1069 1716 984 
Q 1784 875 1895 815 
Q 2006 756 2150 756 
Q 2500 756 2700 1025 
Q 2900 1294 2900 1772 
L 2900 3500 
L 4019 3500 
L 4019 0 
L 2900 0 
L 2900 506 
Q 2647 200 2364 54 
Q 2081 -91 1741 -91 
Q 1134 -91 817 281 
Q 500 653 500 1363 
z
" transform="scale(0.015625)"/>
       <path id="DejaVuSans-Bold-6e" d="M 4056 2131 
L 4056 0 
L 2931 0 
L 2931 347 
L 2931 1631 
Q 2931 2084 2911 2256 
Q 2891 2428 2841 2509 
Q 2775 2619 2662 2680 
Q 2550 2741 2406 2741 
Q 2056 2741 1856 2470 
Q 1656 2200 1656 1722 
L 1656 0 
L 538 0 
L 538 3500 
L 1656 3500 
L 1656 2988 
Q 1909 3294 2193 3439 
Q 2478 3584 2822 3584 
Q 3428 3584 3742 3212 
Q 4056 2841 4056 2131 
z
" transform="scale(0.015625)"/>
       <path id="DejaVuSans-Bold-74" d="M 1759 4494 
L 1759 3500 
L 2913 3500 
L 2913 2700 
L 1759 2700 
L 1759 1216 
Q 1759 972 1856 886 
Q 1953 800 2241 800 
L 2816 800 
L 2816 0 
L 1856 0 
Q 1194 0 917 276 
Q 641 553 641 1216 
L 641 2700 
L 84 2700 
L 84 3500 
L 641 3500 
L 641 4494 
L 1759 4494 
z
" transform="scale(0.015625)"/>
      </defs>
      <use xlink:href="#DejaVuSans-Bold-43"/>
      <use xlink:href="#DejaVuSans-Bold-6f" x="73.388672"/>
      <use xlink:href="#DejaVuSans-Bold-75" x="142.089844"/>
      <use xlink:href="#DejaVuSans-Bold-6e" x="213.28125"/>
      <use xlink:href="#DejaVuSans-Bold-74" x="284.472656"/>
     </g>
    </g>
   </g>
   <g id="line2d_13">
    <path d="M 230.727273 467.496916 
L 399.818182 458.863857 
L 568.909091 398.593289 
L 738 435.826742 
L 907.090909 401.730696 
L 1076.181818 421.210566 
L 1245.272727 457.762382 
" clip-path="url(#pe1f20a44ce)" style="fill: none; stroke: #a1c9f4; stroke-width: 1.5; stroke-linecap: square"/>
   </g>
   <g id="line2d_14">
    <path d="M 230.727273 435.685358 
L 399.818182 408.71947 
L 568.909091 387.017312 
L 738 393.924683 
L 907.090909 389.787901 
L 1076.181818 384.679774 
L 1245.272727 436.879278 
" clip-path="url(#pe1f20a44ce)" style="fill: none; stroke: #ffb482; stroke-width: 1.5; stroke-linecap: square"/>
   </g>
   <g id="line2d_15">
    <path d="M 230.727273 357.779079 
L 399.818182 339.890985 
L 568.909091 342.070564 
L 738 333.931249 
L 907.090909 323.565084 
L 1076.181818 315.446114 
L 1245.272727 317.142309 
" clip-path="url(#pe1f20a44ce)" style="fill: none; stroke: #8de5a1; stroke-width: 1.5; stroke-linecap: square"/>
   </g>
   <g id="line2d_16">
    <path d="M 230.727273 282.909016 
L 399.818182 272.80664 
L 568.909091 272.957454 
L 738 287.444171 
L 907.090909 258.05547 
L 1076.181818 285.049094 
L 1245.272727 280.848495 
" clip-path="url(#pe1f20a44ce)" style="fill: none; stroke: #ff9f9b; stroke-width: 1.5; stroke-linecap: square"/>
   </g>
   <g id="line2d_17">
    <path d="M 230.727273 218.229334 
L 399.818182 276.075087 
L 568.909091 239.367577 
L 738 232.62116 
L 907.090909 177.241668 
L 1076.181818 187.385161 
L 1245.272727 171.095905 
" clip-path="url(#pe1f20a44ce)" style="fill: none; stroke: #d0bbff; stroke-width: 1.5; stroke-linecap: square"/>
   </g>
   <g id="line2d_18">
    <path d="M 230.727273 173.825698 
L 399.818182 206.914367 
L 568.909091 192.406189 
L 738 190.965217 
L 907.090909 196.637617 
L 1076.181818 197.027445 
L 1245.272727 144.941605 
" clip-path="url(#pe1f20a44ce)" style="fill: none; stroke: #debb9b; stroke-width: 1.5; stroke-linecap: square"/>
   </g>
   <g id="line2d_19">
    <path d="M 230.727273 219.81331 
L 399.818182 184.481337 
L 568.909091 180.710345 
L 738 182.87429 
L 907.090909 196.505354 
L 1076.181818 212.095504 
L 1245.272727 224.522277 
" clip-path="url(#pe1f20a44ce)" style="fill: none; stroke: #fab0e4; stroke-width: 1.5; stroke-linecap: square"/>
   </g>
   <g id="line2d_20">
    <path d="M 230.727273 249.681622 
L 399.818182 204.044355 
L 568.909091 174.536737 
L 738 164.050354 
L 907.090909 166.811771 
L 1076.181818 172.531905 
L 1245.272727 213.062248 
" clip-path="url(#pe1f20a44ce)" style="fill: none; stroke: #cfcfcf; stroke-width: 1.5; stroke-linecap: square"/>
   </g>
   <g id="line2d_21">
    <path d="M 230.727273 158.132123 
L 399.818182 193.425521 
L 568.909091 226.003658 
L 738 193.310154 
L 907.090909 204.564435 
L 1076.181818 187.671565 
L 1245.272727 141.369505 
" clip-path="url(#pe1f20a44ce)" style="fill: none; stroke: #fffea3; stroke-width: 1.5; stroke-linecap: square"/>
   </g>
   <g id="line2d_22">
    <path d="M 230.727273 260.139859 
L 399.818182 232.32262 
L 568.909091 213.31288 
L 738 203.181701 
L 907.090909 202.689901 
L 1076.181818 196.532204 
L 1245.272727 209.287149 
" clip-path="url(#pe1f20a44ce)" style="fill: none; stroke: #b9f2f0; stroke-width: 1.5; stroke-linecap: square"/>
   </g>
   <g id="line2d_23">
    <path d="M 230.727273 303.728037 
L 399.818182 263.872031 
L 568.909091 309.878773 
L 738 302.997109 
L 907.090909 310.491583 
L 1076.181818 275.263607 
L 1245.272727 292.137605 
" clip-path="url(#pe1f20a44ce)" style="fill: none; stroke: #a1c9f4; stroke-width: 1.5; stroke-linecap: square"/>
   </g>
   <g id="line2d_24">
    <path d="M 230.727273 402.071641 
L 399.818182 346.385829 
L 568.909091 331.898347 
L 738 363.774718 
L 907.090909 333.45941 
L 1076.181818 331.199997 
L 1245.272727 370.404795 
" clip-path="url(#pe1f20a44ce)" style="fill: none; stroke: #ffb482; stroke-width: 1.5; stroke-linecap: square"/>
   </g>
   <g id="line2d_25"/>
   <g id="line2d_26"/>
   <g id="line2d_27"/>
   <g id="line2d_28"/>
   <g id="line2d_29"/>
   <g id="line2d_30"/>
   <g id="line2d_31"/>
   <g id="line2d_32"/>
   <g id="line2d_33"/>
   <g id="line2d_34"/>
   <g id="line2d_35"/>
   <g id="line2d_36"/>
   <g id="patch_3">
    <path d="M 180 504 
L 180 69.12 
" style="fill: none; stroke: #000000; stroke-width: 0.8; stroke-linejoin: miter; stroke-linecap: square"/>
   </g>
   <g id="patch_4">
    <path d="M 1296 504 
L 1296 69.12 
" style="fill: none; stroke: #000000; stroke-width: 0.8; stroke-linejoin: miter; stroke-linecap: square"/>
   </g>
   <g id="patch_5">
    <path d="M 180 504 
L 1296 504 
" style="fill: none; stroke: #000000; stroke-width: 0.8; stroke-linejoin: miter; stroke-linecap: square"/>
   </g>
   <g id="patch_6">
    <path d="M 180 69.12 
L 1296 69.12 
" style="fill: none; stroke: #000000; stroke-width: 0.8; stroke-linejoin: miter; stroke-linecap: square"/>
   </g>
   <g id="text_15">
    <!-- Seasonal plot -->
    <g transform="translate(661.432812 63.12)scale(0.2 -0.2)">
     <defs>
      <path id="DejaVuSans-Bold-53" d="M 3834 4519 
L 3834 3531 
Q 3450 3703 3084 3790 
Q 2719 3878 2394 3878 
Q 1963 3878 1756 3759 
Q 1550 3641 1550 3391 
Q 1550 3203 1689 3098 
Q 1828 2994 2194 2919 
L 2706 2816 
Q 3484 2659 3812 2340 
Q 4141 2022 4141 1434 
Q 4141 663 3683 286 
Q 3225 -91 2284 -91 
Q 1841 -91 1394 -6 
Q 947 78 500 244 
L 500 1259 
Q 947 1022 1364 901 
Q 1781 781 2169 781 
Q 2563 781 2772 912 
Q 2981 1044 2981 1288 
Q 2981 1506 2839 1625 
Q 2697 1744 2272 1838 
L 1806 1941 
Q 1106 2091 782 2419 
Q 459 2747 459 3303 
Q 459 4000 909 4375 
Q 1359 4750 2203 4750 
Q 2588 4750 2994 4692 
Q 3400 4634 3834 4519 
z
" transform="scale(0.015625)"/>
      <path id="DejaVuSans-Bold-65" d="M 4031 1759 
L 4031 1441 
L 1416 1441 
Q 1456 1047 1700 850 
Q 1944 653 2381 653 
Q 2734 653 3104 758 
Q 3475 863 3866 1075 
L 3866 213 
Q 3469 63 3072 -14 
Q 2675 -91 2278 -91 
Q 1328 -91 801 392 
Q 275 875 275 1747 
Q 275 2603 792 3093 
Q 1309 3584 2216 3584 
Q 3041 3584 3536 3087 
Q 4031 2591 4031 1759 
z
M 2881 2131 
Q 2881 2450 2695 2645 
Q 2509 2841 2209 2841 
Q 1884 2841 1681 2658 
Q 1478 2475 1428 2131 
L 2881 2131 
z
" transform="scale(0.015625)"/>
      <path id="DejaVuSans-Bold-73" d="M 3272 3391 
L 3272 2541 
Q 2913 2691 2578 2766 
Q 2244 2841 1947 2841 
Q 1628 2841 1473 2761 
Q 1319 2681 1319 2516 
Q 1319 2381 1436 2309 
Q 1553 2238 1856 2203 
L 2053 2175 
Q 2913 2066 3209 1816 
Q 3506 1566 3506 1031 
Q 3506 472 3093 190 
Q 2681 -91 1863 -91 
Q 1516 -91 1145 -36 
Q 775 19 384 128 
L 384 978 
Q 719 816 1070 734 
Q 1422 653 1784 653 
Q 2113 653 2278 743 
Q 2444 834 2444 1013 
Q 2444 1163 2330 1236 
Q 2216 1309 1875 1350 
L 1678 1375 
Q 931 1469 631 1722 
Q 331 1975 331 2491 
Q 331 3047 712 3315 
Q 1094 3584 1881 3584 
Q 2191 3584 2531 3537 
Q 2872 3491 3272 3391 
z
" transform="scale(0.015625)"/>
      <path id="DejaVuSans-Bold-6c" d="M 538 4863 
L 1656 4863 
L 1656 0 
L 538 0 
L 538 4863 
z
" transform="scale(0.015625)"/>
      <path id="DejaVuSans-Bold-20" transform="scale(0.015625)"/>
      <path id="DejaVuSans-Bold-70" d="M 1656 506 
L 1656 -1331 
L 538 -1331 
L 538 3500 
L 1656 3500 
L 1656 2988 
Q 1888 3294 2169 3439 
Q 2450 3584 2816 3584 
Q 3463 3584 3878 3070 
Q 4294 2556 4294 1747 
Q 4294 938 3878 423 
Q 3463 -91 2816 -91 
Q 2450 -91 2169 54 
Q 1888 200 1656 506 
z
M 2400 2772 
Q 2041 2772 1848 2508 
Q 1656 2244 1656 1747 
Q 1656 1250 1848 986 
Q 2041 722 2400 722 
Q 2759 722 2948 984 
Q 3138 1247 3138 1747 
Q 3138 2247 2948 2509 
Q 2759 2772 2400 2772 
z
" transform="scale(0.015625)"/>
     </defs>
     <use xlink:href="#DejaVuSans-Bold-53"/>
     <use xlink:href="#DejaVuSans-Bold-65" x="72.021484"/>
     <use xlink:href="#DejaVuSans-Bold-61" x="139.84375"/>
     <use xlink:href="#DejaVuSans-Bold-73" x="207.324219"/>
     <use xlink:href="#DejaVuSans-Bold-6f" x="266.845703"/>
     <use xlink:href="#DejaVuSans-Bold-6e" x="335.546875"/>
     <use xlink:href="#DejaVuSans-Bold-61" x="406.738281"/>
     <use xlink:href="#DejaVuSans-Bold-6c" x="474.21875"/>
     <use xlink:href="#DejaVuSans-Bold-20" x="508.496094"/>
     <use xlink:href="#DejaVuSans-Bold-70" x="543.310547"/>
     <use xlink:href="#DejaVuSans-Bold-6c" x="614.892578"/>
     <use xlink:href="#DejaVuSans-Bold-6f" x="649.169922"/>
     <use xlink:href="#DejaVuSans-Bold-74" x="717.871094"/>
    </g>
   </g>
   <g id="legend_1">
    <g id="patch_7">
     <path d="M 187 499 
L 231.725 499 
Q 233.725 499 233.725 497 
L 233.725 307.184375 
Q 233.725 305.184375 231.725 305.184375 
L 187 305.184375 
Q 185 305.184375 185 307.184375 
L 185 497 
Q 185 499 187 499 
z
" style="fill: #ffffff; opacity: 0.8; stroke: #cccccc; stroke-linejoin: miter"/>
    </g>
    <g id="text_16">
     <!-- mnth -->
     <g transform="translate(196.194531 316.782813)scale(0.1 -0.1)">
      <defs>
       <path id="DejaVuSans-6d" d="M 3328 2828 
Q 3544 3216 3844 3400 
Q 4144 3584 4550 3584 
Q 5097 3584 5394 3201 
Q 5691 2819 5691 2113 
L 5691 0 
L 5113 0 
L 5113 2094 
Q 5113 2597 4934 2840 
Q 4756 3084 4391 3084 
Q 3944 3084 3684 2787 
Q 3425 2491 3425 1978 
L 3425 0 
L 2847 0 
L 2847 2094 
Q 2847 2600 2669 2842 
Q 2491 3084 2119 3084 
Q 1678 3084 1418 2786 
Q 1159 2488 1159 1978 
L 1159 0 
L 581 0 
L 581 3500 
L 1159 3500 
L 1159 2956 
Q 1356 3278 1631 3431 
Q 1906 3584 2284 3584 
Q 2666 3584 2933 3390 
Q 3200 3197 3328 2828 
z
" transform="scale(0.015625)"/>
       <path id="DejaVuSans-6e" d="M 3513 2113 
L 3513 0 
L 2938 0 
L 2938 2094 
Q 2938 2591 2744 2837 
Q 2550 3084 2163 3084 
Q 1697 3084 1428 2787 
Q 1159 2491 1159 1978 
L 1159 0 
L 581 0 
L 581 3500 
L 1159 3500 
L 1159 2956 
Q 1366 3272 1645 3428 
Q 1925 3584 2291 3584 
Q 2894 3584 3203 3211 
Q 3513 2838 3513 2113 
z
" transform="scale(0.015625)"/>
       <path id="DejaVuSans-74" d="M 1172 4494 
L 1172 3500 
L 2356 3500 
L 2356 3053 
L 1172 3053 
L 1172 1153 
Q 1172 725 1289 603 
Q 1406 481 1766 481 
L 2356 481 
L 2356 0 
L 1766 0 
Q 1100 0 847 248 
Q 594 497 594 1153 
L 594 3053 
L 172 3053 
L 172 3500 
L 594 3500 
L 594 4494 
L 1172 4494 
z
" transform="scale(0.015625)"/>
       <path id="DejaVuSans-68" d="M 3513 2113 
L 3513 0 
L 2938 0 
L 2938 2094 
Q 2938 2591 2744 2837 
Q 2550 3084 2163 3084 
Q 1697 3084 1428 2787 
Q 1159 2491 1159 1978 
L 1159 0 
L 581 0 
L 581 4863 
L 1159 4863 
L 1159 2956 
Q 1366 3272 1645 3428 
Q 1925 3584 2291 3584 
Q 2894 3584 3203 3211 
Q 3513 2838 3513 2113 
z
" transform="scale(0.015625)"/>
      </defs>
      <use xlink:href="#DejaVuSans-6d"/>
      <use xlink:href="#DejaVuSans-6e" x="97.412109"/>
      <use xlink:href="#DejaVuSans-74" x="160.791016"/>
      <use xlink:href="#DejaVuSans-68" x="200"/>
     </g>
    </g>
    <g id="line2d_37">
     <path d="M 189 327.960938 
L 199 327.960938 
L 209 327.960938 
" style="fill: none; stroke: #a1c9f4; stroke-width: 1.5; stroke-linecap: square"/>
    </g>
    <g id="text_17">
     <!-- 1 -->
     <g transform="translate(217 331.460938)scale(0.1 -0.1)">
      <use xlink:href="#DejaVuSans-31"/>
     </g>
    </g>
    <g id="line2d_38">
     <path d="M 189 342.639063 
L 199 342.639063 
L 209 342.639063 
" style="fill: none; stroke: #ffb482; stroke-width: 1.5; stroke-linecap: square"/>
    </g>
    <g id="text_18">
     <!-- 2 -->
     <g transform="translate(217 346.139063)scale(0.1 -0.1)">
      <use xlink:href="#DejaVuSans-32"/>
     </g>
    </g>
    <g id="line2d_39">
     <path d="M 189 357.317188 
L 199 357.317188 
L 209 357.317188 
" style="fill: none; stroke: #8de5a1; stroke-width: 1.5; stroke-linecap: square"/>
    </g>
    <g id="text_19">
     <!-- 3 -->
     <g transform="translate(217 360.817188)scale(0.1 -0.1)">
      <use xlink:href="#DejaVuSans-33"/>
     </g>
    </g>
    <g id="line2d_40">
     <path d="M 189 371.995313 
L 199 371.995313 
L 209 371.995313 
" style="fill: none; stroke: #ff9f9b; stroke-width: 1.5; stroke-linecap: square"/>
    </g>
    <g id="text_20">
     <!-- 4 -->
     <g transform="translate(217 375.495313)scale(0.1 -0.1)">
      <use xlink:href="#DejaVuSans-34"/>
     </g>
    </g>
    <g id="line2d_41">
     <path d="M 189 386.673438 
L 199 386.673438 
L 209 386.673438 
" style="fill: none; stroke: #d0bbff; stroke-width: 1.5; stroke-linecap: square"/>
    </g>
    <g id="text_21">
     <!-- 5 -->
     <g transform="translate(217 390.173438)scale(0.1 -0.1)">
      <use xlink:href="#DejaVuSans-35"/>
     </g>
    </g>
    <g id="line2d_42">
     <path d="M 189 401.351563 
L 199 401.351563 
L 209 401.351563 
" style="fill: none; stroke: #debb9b; stroke-width: 1.5; stroke-linecap: square"/>
    </g>
    <g id="text_22">
     <!-- 6 -->
     <g transform="translate(217 404.851563)scale(0.1 -0.1)">
      <use xlink:href="#DejaVuSans-36"/>
     </g>
    </g>
    <g id="line2d_43">
     <path d="M 189 416.029688 
L 199 416.029688 
L 209 416.029688 
" style="fill: none; stroke: #fab0e4; stroke-width: 1.5; stroke-linecap: square"/>
    </g>
    <g id="text_23">
     <!-- 7 -->
     <g transform="translate(217 419.529688)scale(0.1 -0.1)">
      <defs>
       <path id="DejaVuSans-37" d="M 525 4666 
L 3525 4666 
L 3525 4397 
L 1831 0 
L 1172 0 
L 2766 4134 
L 525 4134 
L 525 4666 
z
" transform="scale(0.015625)"/>
      </defs>
      <use xlink:href="#DejaVuSans-37"/>
     </g>
    </g>
    <g id="line2d_44">
     <path d="M 189 430.707813 
L 199 430.707813 
L 209 430.707813 
" style="fill: none; stroke: #cfcfcf; stroke-width: 1.5; stroke-linecap: square"/>
    </g>
    <g id="text_24">
     <!-- 8 -->
     <g transform="translate(217 434.207813)scale(0.1 -0.1)">
      <defs>
       <path id="DejaVuSans-38" d="M 2034 2216 
Q 1584 2216 1326 1975 
Q 1069 1734 1069 1313 
Q 1069 891 1326 650 
Q 1584 409 2034 409 
Q 2484 409 2743 651 
Q 3003 894 3003 1313 
Q 3003 1734 2745 1975 
Q 2488 2216 2034 2216 
z
M 1403 2484 
Q 997 2584 770 2862 
Q 544 3141 544 3541 
Q 544 4100 942 4425 
Q 1341 4750 2034 4750 
Q 2731 4750 3128 4425 
Q 3525 4100 3525 3541 
Q 3525 3141 3298 2862 
Q 3072 2584 2669 2484 
Q 3125 2378 3379 2068 
Q 3634 1759 3634 1313 
Q 3634 634 3220 271 
Q 2806 -91 2034 -91 
Q 1263 -91 848 271 
Q 434 634 434 1313 
Q 434 1759 690 2068 
Q 947 2378 1403 2484 
z
M 1172 3481 
Q 1172 3119 1398 2916 
Q 1625 2713 2034 2713 
Q 2441 2713 2670 2916 
Q 2900 3119 2900 3481 
Q 2900 3844 2670 4047 
Q 2441 4250 2034 4250 
Q 1625 4250 1398 4047 
Q 1172 3844 1172 3481 
z
" transform="scale(0.015625)"/>
      </defs>
      <use xlink:href="#DejaVuSans-38"/>
     </g>
    </g>
    <g id="line2d_45">
     <path d="M 189 445.385938 
L 199 445.385938 
L 209 445.385938 
" style="fill: none; stroke: #fffea3; stroke-width: 1.5; stroke-linecap: square"/>
    </g>
    <g id="text_25">
     <!-- 9 -->
     <g transform="translate(217 448.885938)scale(0.1 -0.1)">
      <defs>
       <path id="DejaVuSans-39" d="M 703 97 
L 703 672 
Q 941 559 1184 500 
Q 1428 441 1663 441 
Q 2288 441 2617 861 
Q 2947 1281 2994 2138 
Q 2813 1869 2534 1725 
Q 2256 1581 1919 1581 
Q 1219 1581 811 2004 
Q 403 2428 403 3163 
Q 403 3881 828 4315 
Q 1253 4750 1959 4750 
Q 2769 4750 3195 4129 
Q 3622 3509 3622 2328 
Q 3622 1225 3098 567 
Q 2575 -91 1691 -91 
Q 1453 -91 1209 -44 
Q 966 3 703 97 
z
M 1959 2075 
Q 2384 2075 2632 2365 
Q 2881 2656 2881 3163 
Q 2881 3666 2632 3958 
Q 2384 4250 1959 4250 
Q 1534 4250 1286 3958 
Q 1038 3666 1038 3163 
Q 1038 2656 1286 2365 
Q 1534 2075 1959 2075 
z
" transform="scale(0.015625)"/>
      </defs>
      <use xlink:href="#DejaVuSans-39"/>
     </g>
    </g>
    <g id="line2d_46">
     <path d="M 189 460.064062 
L 199 460.064062 
L 209 460.064062 
" style="fill: none; stroke: #b9f2f0; stroke-width: 1.5; stroke-linecap: square"/>
    </g>
    <g id="text_26">
     <!-- 10 -->
     <g transform="translate(217 463.564062)scale(0.1 -0.1)">
      <use xlink:href="#DejaVuSans-31"/>
      <use xlink:href="#DejaVuSans-30" x="63.623047"/>
     </g>
    </g>
    <g id="line2d_47">
     <path d="M 189 474.742188 
L 199 474.742188 
L 209 474.742188 
" style="fill: none; stroke: #a1c9f4; stroke-width: 1.5; stroke-linecap: square"/>
    </g>
    <g id="text_27">
     <!-- 11 -->
     <g transform="translate(217 478.242188)scale(0.1 -0.1)">
      <use xlink:href="#DejaVuSans-31"/>
      <use xlink:href="#DejaVuSans-31" x="63.623047"/>
     </g>
    </g>
    <g id="line2d_48">
     <path d="M 189 489.420313 
L 199 489.420313 
L 209 489.420313 
" style="fill: none; stroke: #ffb482; stroke-width: 1.5; stroke-linecap: square"/>
    </g>
    <g id="text_28">
     <!-- 12 -->
     <g transform="translate(217 492.920313)scale(0.1 -0.1)">
      <use xlink:href="#DejaVuSans-31"/>
      <use xlink:href="#DejaVuSans-32" x="63.623047"/>
     </g>
    </g>
   </g>
  </g>
 </g>
 <defs>
  <clipPath id="pe1f20a44ce">
   <rect x="180" y="69.12" width="1116" height="434.88"/>
  </clipPath>
 </defs>
</svg>
