<?xml version="1.0" encoding="utf-8" standalone="no"?>
<!DOCTYPE svg PUBLIC "-//W3C//DTD SVG 1.1//EN"
  "http://www.w3.org/Graphics/SVG/1.1/DTD/svg11.dtd">
<svg xmlns:xlink="http://www.w3.org/1999/xlink" width="1440pt" height="432pt" viewBox="0 0 1440 432" xmlns="http://www.w3.org/2000/svg" version="1.1">
 <metadata>
  <rdf:RDF xmlns:dc="http://purl.org/dc/elements/1.1/" xmlns:cc="http://creativecommons.org/ns#" xmlns:rdf="http://www.w3.org/1999/02/22-rdf-syntax-ns#">
   <cc:Work>
    <dc:type rdf:resource="http://purl.org/dc/dcmitype/StillImage"/>
    <dc:date>2022-09-15T21:07:38.775329</dc:date>
    <dc:format>image/svg+xml</dc:format>
    <dc:creator>
     <cc:Agent>
      <dc:title>Matplotlib v3.5.3, https://matplotlib.org/</dc:title>
     </cc:Agent>
    </dc:creator>
   </cc:Work>
  </rdf:RDF>
 </metadata>
 <defs>
  <style type="text/css">*{stroke-linejoin: round; stroke-linecap: butt}</style>
 </defs>
 <g id="figure_1">
  <g id="patch_1">
   <path d="M 0 432 
L 1440 432 
L 1440 0 
L 0 0 
L 0 432 
z
" style="fill: none"/>
  </g>
  <g id="axes_1">
   <g id="patch_2">
    <path d="M 180 378 
L 1296 378 
L 1296 51.84 
L 180 51.84 
z
" style="fill: #ffffff"/>
   </g>
   <g id="PolyCollection_1">
    <defs>
     <path id="m508a73e561" d="M 230.727273 -94.157123 
L 230.727273 -68.825455 
L 399.818182 -74.564851 
L 568.909091 -113.079887 
L 738 -86.387771 
L 907.090909 -110.262536 
L 1076.181818 -97.78348 
L 1245.272727 -72.156307 
L 1245.272727 -106.846696 
L 1245.272727 -106.846696 
L 1076.181818 -133.010541 
L 907.090909 -154.054557 
L 738 -124.193796 
L 568.909091 -154.722078 
L 399.818182 -102.324547 
L 230.727273 -94.157123 
z
" style="stroke: #a1c9f4; stroke-opacity: 0.2"/>
    </defs>
    <g clip-path="url(#pa82c80c181)">
     <use xlink:href="#m508a73e561" x="0" y="432" style="fill: #a1c9f4; fill-opacity: 0.2; stroke: #a1c9f4; stroke-opacity: 0.2"/>
    </g>
   </g>
   <g id="PolyCollection_2">
    <defs>
     <path id="m4e07d25dce" d="M 230.727273 -121.850467 
L 230.727273 -89.04192 
L 399.818182 -103.995899 
L 568.909091 -117.396868 
L 738 -114.186399 
L 907.090909 -118.727697 
L 1076.181818 -123.145585 
L 1245.272727 -87.579573 
L 1245.272727 -120.620898 
L 1245.272727 -120.620898 
L 1076.181818 -163.999076 
L 907.090909 -162.437902 
L 738 -158.710646 
L 568.909091 -166.419024 
L 399.818182 -146.241261 
L 230.727273 -121.850467 
z
" style="stroke: #ffb482; stroke-opacity: 0.2"/>
    </defs>
    <g clip-path="url(#pa82c80c181)">
     <use xlink:href="#m4e07d25dce" x="0" y="432" style="fill: #ffb482; fill-opacity: 0.2; stroke: #ffb482; stroke-opacity: 0.2"/>
    </g>
   </g>
   <g id="PolyCollection_3">
    <defs>
     <path id="m5163c1a68e" d="M 230.727273 -192.472262 
L 230.727273 -137.016023 
L 399.818182 -147.106482 
L 568.909091 -149.776675 
L 738 -154.621306 
L 907.090909 -161.703531 
L 1076.181818 -168.846966 
L 1245.272727 -166.873951 
L 1245.272727 -223.635473 
L 1245.272727 -223.635473 
L 1076.181818 -224.262872 
L 907.090909 -219.275438 
L 738 -210.707961 
L 568.909091 -201.967056 
L 399.818182 -208.443435 
L 230.727273 -192.472262 
z
" style="stroke: #8de5a1; stroke-opacity: 0.2"/>
    </defs>
    <g clip-path="url(#pa82c80c181)">
     <use xlink:href="#m5163c1a68e" x="0" y="432" style="fill: #8de5a1; fill-opacity: 0.2; stroke: #8de5a1; stroke-opacity: 0.2"/>
    </g>
   </g>
   <g id="PolyCollection_4">
    <defs>
     <path id="mae7ac2aa3e" d="M 230.727273 -251.164968 
L 230.727273 -189.009569 
L 399.818182 -198.898299 
L 568.909091 -195.383129 
L 738 -186.71285 
L 907.090909 -206.318695 
L 1076.181818 -187.101028 
L 1245.272727 -188.728389 
L 1245.272727 -252.26613 
L 1245.272727 -252.26613 
L 1076.181818 -250.375294 
L 907.090909 -272.358131 
L 738 -249.304812 
L 568.909091 -264.584318 
L 399.818182 -259.12712 
L 230.727273 -251.164968 
z
" style="stroke: #ff9f9b; stroke-opacity: 0.2"/>
    </defs>
    <g clip-path="url(#pa82c80c181)">
     <use xlink:href="#mae7ac2aa3e" x="0" y="432" style="fill: #ff9f9b; fill-opacity: 0.2; stroke: #ff9f9b; stroke-opacity: 0.2"/>
    </g>
   </g>
   <g id="PolyCollection_5">
    <defs>
     <path id="mf517d6c983" d="M 230.727273 -300.802623 
L 230.727273 -236.317964 
L 399.818182 -197.524029 
L 568.909091 -226.042379 
L 738 -227.068745 
L 907.090909 -267.389962 
L 1076.181818 -260.177851 
L 1245.272727 -270.251873 
L 1245.272727 -335.829816 
L 1245.272727 -335.829816 
L 1076.181818 -324.048405 
L 907.090909 -334.844712 
L 738 -295.209639 
L 568.909091 -284.008893 
L 399.818182 -251.62995 
L 230.727273 -300.802623 
z
" style="stroke: #d0bbff; stroke-opacity: 0.2"/>
    </defs>
    <g clip-path="url(#pa82c80c181)">
     <use xlink:href="#mf517d6c983" x="0" y="432" style="fill: #d0bbff; fill-opacity: 0.2; stroke: #d0bbff; stroke-opacity: 0.2"/>
    </g>
   </g>
   <g id="PolyCollection_6">
    <defs>
     <path id="m2eb6345d28" d="M 230.727273 -335.075628 
L 230.727273 -268.559168 
L 399.818182 -239.537426 
L 568.909091 -253.983479 
L 738 -254.566881 
L 907.090909 -251.295355 
L 1076.181818 -252.925417 
L 1245.272727 -293.366217 
L 1245.272727 -356.920463 
L 1245.272727 -356.920463 
L 1076.181818 -317.289291 
L 907.090909 -318.407858 
L 738 -327.410257 
L 568.909091 -327.140274 
L 399.818182 -316.473098 
L 230.727273 -335.075628 
z
" style="stroke: #debb9b; stroke-opacity: 0.2"/>
    </defs>
    <g clip-path="url(#pa82c80c181)">
     <use xlink:href="#m2eb6345d28" x="0" y="432" style="fill: #debb9b; fill-opacity: 0.2; stroke: #debb9b; stroke-opacity: 0.2"/>
    </g>
   </g>
   <g id="PolyCollection_7">
    <defs>
     <path id="maaa1bb842a" d="M 230.727273 -294.238714 
L 230.727273 -241.37165 
L 399.818182 -256.129124 
L 568.909091 -262.291519 
L 738 -256.553425 
L 907.090909 -250.407835 
L 1076.181818 -243.327349 
L 1245.272727 -237.144548 
L 1245.272727 -288.64318 
L 1245.272727 -288.64318 
L 1076.181818 -302.225926 
L 907.090909 -319.252185 
L 738 -331.586071 
L 568.909091 -333.222153 
L 399.818182 -333.607312 
L 230.727273 -294.238714 
z
" style="stroke: #fab0e4; stroke-opacity: 0.2"/>
    </defs>
    <g clip-path="url(#pa82c80c181)">
     <use xlink:href="#maaa1bb842a" x="0" y="432" style="fill: #fab0e4; fill-opacity: 0.2; stroke: #fab0e4; stroke-opacity: 0.2"/>
    </g>
   </g>
   <g id="PolyCollection_8">
    <defs>
     <path id="ma3375d33e5" d="M 230.727273 -276.151613 
L 230.727273 -214.963087 
L 399.818182 -243.251277 
L 568.909091 -264.014456 
L 738 -277.875861 
L 907.090909 -270.59502 
L 1076.181818 -270.396513 
L 1245.272727 -239.458014 
L 1245.272727 -306.837216 
L 1245.272727 -306.837216 
L 1076.181818 -332.811036 
L 907.090909 -347.336049 
L 738 -346.318371 
L 568.909091 -338.68505 
L 399.818182 -318.479728 
L 230.727273 -276.151613 
z
" style="stroke: #cfcfcf; stroke-opacity: 0.2"/>
    </defs>
    <g clip-path="url(#pa82c80c181)">
     <use xlink:href="#ma3375d33e5" x="0" y="432" style="fill: #cfcfcf; fill-opacity: 0.2; stroke: #cfcfcf; stroke-opacity: 0.2"/>
    </g>
   </g>
   <g id="PolyCollection_9">
    <defs>
     <path id="m0ac92242f8" d="M 230.727273 -351.712938 
L 230.727273 -277.631262 
L 399.818182 -247.777848 
L 568.909091 -225.762175 
L 738 -248.2322 
L 907.090909 -240.816765 
L 1076.181818 -256.922848 
L 1245.272727 -291.902103 
L 1245.272727 -365.334545 
L 1245.272727 -365.334545 
L 1076.181818 -328.400838 
L 907.090909 -316.139611 
L 738 -328.021905 
L 568.909091 -300.648075 
L 399.818182 -327.035423 
L 230.727273 -351.712938 
z
" style="stroke: #fffea3; stroke-opacity: 0.2"/>
    </defs>
    <g clip-path="url(#pa82c80c181)">
     <use xlink:href="#m0ac92242f8" x="0" y="432" style="fill: #fffea3; fill-opacity: 0.2; stroke: #fffea3; stroke-opacity: 0.2"/>
    </g>
   </g>
   <g id="PolyCollection_10">
    <defs>
     <path id="m6ad7439f48" d="M 230.727273 -267.816233 
L 230.727273 -208.058812 
L 399.818182 -227.040321 
L 568.909091 -236.757667 
L 738 -239.5819 
L 907.090909 -240.760197 
L 1076.181818 -247.93309 
L 1245.272727 -237.547862 
L 1245.272727 -313.888278 
L 1245.272727 -313.888278 
L 1076.181818 -322.701736 
L 907.090909 -318.146221 
L 738 -319.893649 
L 568.909091 -311.313461 
L 399.818182 -289.339123 
L 230.727273 -267.816233 
z
" style="stroke: #b9f2f0; stroke-opacity: 0.2"/>
    </defs>
    <g clip-path="url(#pa82c80c181)">
     <use xlink:href="#m6ad7439f48" x="0" y="432" style="fill: #b9f2f0; fill-opacity: 0.2; stroke: #b9f2f0; stroke-opacity: 0.2"/>
    </g>
   </g>
   <g id="PolyCollection_11">
    <defs>
     <path id="m43475b5042" d="M 230.727273 -233.308281 
L 230.727273 -177.825796 
L 399.818182 -205.787263 
L 568.909091 -174.598588 
L 738 -179.430406 
L 907.090909 -170.686263 
L 1076.181818 -196.815679 
L 1245.272727 -185.852806 
L 1245.272727 -240.087031 
L 1245.272727 -240.087031 
L 1076.181818 -254.734329 
L 907.090909 -228.156062 
L 738 -230.749587 
L 568.909091 -226.898447 
L 399.818182 -267.485342 
L 230.727273 -233.308281 
z
" style="stroke: #a1c9f4; stroke-opacity: 0.2"/>
    </defs>
    <g clip-path="url(#pa82c80c181)">
     <use xlink:href="#m43475b5042" x="0" y="432" style="fill: #a1c9f4; fill-opacity: 0.2; stroke: #a1c9f4; stroke-opacity: 0.2"/>
    </g>
   </g>
   <g id="PolyCollection_12">
    <defs>
     <path id="me82b5bd9c0" d="M 230.727273 -149.617643 
L 230.727273 -113.468448 
L 399.818182 -146.70544 
L 568.909091 -152.338591 
L 738 -131.423982 
L 907.090909 -157.676497 
L 1076.181818 -162.73908 
L 1245.272727 -132.475331 
L 1245.272727 -175.590204 
L 1245.272727 -175.590204 
L 1076.181818 -207.612286 
L 907.090909 -206.164076 
L 738 -188.590716 
L 568.909091 -215.219691 
L 399.818182 -195.772934 
L 230.727273 -149.617643 
z
" style="stroke: #ffb482; stroke-opacity: 0.2"/>
    </defs>
    <g clip-path="url(#pa82c80c181)">
     <use xlink:href="#me82b5bd9c0" x="0" y="432" style="fill: #ffb482; fill-opacity: 0.2; stroke: #ffb482; stroke-opacity: 0.2"/>
    </g>
   </g>
   <g id="matplotlib.axis_1">
    <g id="xtick_1">
     <g id="line2d_1">
      <defs>
       <path id="m5ecd0b7c23" d="M 0 0 
L 0 3.5 
" style="stroke: #000000; stroke-width: 0.8"/>
      </defs>
      <g>
       <use xlink:href="#m5ecd0b7c23" x="230.727273" y="378" style="stroke: #000000; stroke-width: 0.8"/>
      </g>
     </g>
     <g id="text_1">
      <!-- 0 -->
      <g transform="translate(227.546023 392.598437)scale(0.1 -0.1)">
       <defs>
        <path id="DejaVuSans-30" d="M 2034 4250 
Q 1547 4250 1301 3770 
Q 1056 3291 1056 2328 
Q 1056 1369 1301 889 
Q 1547 409 2034 409 
Q 2525 409 2770 889 
Q 3016 1369 3016 2328 
Q 3016 3291 2770 3770 
Q 2525 4250 2034 4250 
z
M 2034 4750 
Q 2819 4750 3233 4129 
Q 3647 3509 3647 2328 
Q 3647 1150 3233 529 
Q 2819 -91 2034 -91 
Q 1250 -91 836 529 
Q 422 1150 422 2328 
Q 422 3509 836 4129 
Q 1250 4750 2034 4750 
z
" transform="scale(0.015625)"/>
       </defs>
       <use xlink:href="#DejaVuSans-30"/>
      </g>
     </g>
    </g>
    <g id="xtick_2">
     <g id="line2d_2">
      <g>
       <use xlink:href="#m5ecd0b7c23" x="399.818182" y="378" style="stroke: #000000; stroke-width: 0.8"/>
      </g>
     </g>
     <g id="text_2">
      <!-- 1 -->
      <g transform="translate(396.636932 392.598437)scale(0.1 -0.1)">
       <defs>
        <path id="DejaVuSans-31" d="M 794 531 
L 1825 531 
L 1825 4091 
L 703 3866 
L 703 4441 
L 1819 4666 
L 2450 4666 
L 2450 531 
L 3481 531 
L 3481 0 
L 794 0 
L 794 531 
z
" transform="scale(0.015625)"/>
       </defs>
       <use xlink:href="#DejaVuSans-31"/>
      </g>
     </g>
    </g>
    <g id="xtick_3">
     <g id="line2d_3">
      <g>
       <use xlink:href="#m5ecd0b7c23" x="568.909091" y="378" style="stroke: #000000; stroke-width: 0.8"/>
      </g>
     </g>
     <g id="text_3">
      <!-- 2 -->
      <g transform="translate(565.727841 392.598437)scale(0.1 -0.1)">
       <defs>
        <path id="DejaVuSans-32" d="M 1228 531 
L 3431 531 
L 3431 0 
L 469 0 
L 469 531 
Q 828 903 1448 1529 
Q 2069 2156 2228 2338 
Q 2531 2678 2651 2914 
Q 2772 3150 2772 3378 
Q 2772 3750 2511 3984 
Q 2250 4219 1831 4219 
Q 1534 4219 1204 4116 
Q 875 4013 500 3803 
L 500 4441 
Q 881 4594 1212 4672 
Q 1544 4750 1819 4750 
Q 2544 4750 2975 4387 
Q 3406 4025 3406 3419 
Q 3406 3131 3298 2873 
Q 3191 2616 2906 2266 
Q 2828 2175 2409 1742 
Q 1991 1309 1228 531 
z
" transform="scale(0.015625)"/>
       </defs>
       <use xlink:href="#DejaVuSans-32"/>
      </g>
     </g>
    </g>
    <g id="xtick_4">
     <g id="line2d_4">
      <g>
       <use xlink:href="#m5ecd0b7c23" x="738" y="378" style="stroke: #000000; stroke-width: 0.8"/>
      </g>
     </g>
     <g id="text_4">
      <!-- 3 -->
      <g transform="translate(734.81875 392.598437)scale(0.1 -0.1)">
       <defs>
        <path id="DejaVuSans-33" d="M 2597 2516 
Q 3050 2419 3304 2112 
Q 3559 1806 3559 1356 
Q 3559 666 3084 287 
Q 2609 -91 1734 -91 
Q 1441 -91 1130 -33 
Q 819 25 488 141 
L 488 750 
Q 750 597 1062 519 
Q 1375 441 1716 441 
Q 2309 441 2620 675 
Q 2931 909 2931 1356 
Q 2931 1769 2642 2001 
Q 2353 2234 1838 2234 
L 1294 2234 
L 1294 2753 
L 1863 2753 
Q 2328 2753 2575 2939 
Q 2822 3125 2822 3475 
Q 2822 3834 2567 4026 
Q 2313 4219 1838 4219 
Q 1578 4219 1281 4162 
Q 984 4106 628 3988 
L 628 4550 
Q 988 4650 1302 4700 
Q 1616 4750 1894 4750 
Q 2613 4750 3031 4423 
Q 3450 4097 3450 3541 
Q 3450 3153 3228 2886 
Q 3006 2619 2597 2516 
z
" transform="scale(0.015625)"/>
       </defs>
       <use xlink:href="#DejaVuSans-33"/>
      </g>
     </g>
    </g>
    <g id="xtick_5">
     <g id="line2d_5">
      <g>
       <use xlink:href="#m5ecd0b7c23" x="907.090909" y="378" style="stroke: #000000; stroke-width: 0.8"/>
      </g>
     </g>
     <g id="text_5">
      <!-- 4 -->
      <g transform="translate(903.909659 392.598437)scale(0.1 -0.1)">
       <defs>
        <path id="DejaVuSans-34" d="M 2419 4116 
L 825 1625 
L 2419 1625 
L 2419 4116 
z
M 2253 4666 
L 3047 4666 
L 3047 1625 
L 3713 1625 
L 3713 1100 
L 3047 1100 
L 3047 0 
L 2419 0 
L 2419 1100 
L 313 1100 
L 313 1709 
L 2253 4666 
z
" transform="scale(0.015625)"/>
       </defs>
       <use xlink:href="#DejaVuSans-34"/>
      </g>
     </g>
    </g>
    <g id="xtick_6">
     <g id="line2d_6">
      <g>
       <use xlink:href="#m5ecd0b7c23" x="1076.181818" y="378" style="stroke: #000000; stroke-width: 0.8"/>
      </g>
     </g>
     <g id="text_6">
      <!-- 5 -->
      <g transform="translate(1073.000568 392.598437)scale(0.1 -0.1)">
       <defs>
        <path id="DejaVuSans-35" d="M 691 4666 
L 3169 4666 
L 3169 4134 
L 1269 4134 
L 1269 2991 
Q 1406 3038 1543 3061 
Q 1681 3084 1819 3084 
Q 2600 3084 3056 2656 
Q 3513 2228 3513 1497 
Q 3513 744 3044 326 
Q 2575 -91 1722 -91 
Q 1428 -91 1123 -41 
Q 819 9 494 109 
L 494 744 
Q 775 591 1075 516 
Q 1375 441 1709 441 
Q 2250 441 2565 725 
Q 2881 1009 2881 1497 
Q 2881 1984 2565 2268 
Q 2250 2553 1709 2553 
Q 1456 2553 1204 2497 
Q 953 2441 691 2322 
L 691 4666 
z
" transform="scale(0.015625)"/>
       </defs>
       <use xlink:href="#DejaVuSans-35"/>
      </g>
     </g>
    </g>
    <g id="xtick_7">
     <g id="line2d_7">
      <g>
       <use xlink:href="#m5ecd0b7c23" x="1245.272727" y="378" style="stroke: #000000; stroke-width: 0.8"/>
      </g>
     </g>
     <g id="text_7">
      <!-- 6 -->
      <g transform="translate(1242.091477 392.598437)scale(0.1 -0.1)">
       <defs>
        <path id="DejaVuSans-36" d="M 2113 2584 
Q 1688 2584 1439 2293 
Q 1191 2003 1191 1497 
Q 1191 994 1439 701 
Q 1688 409 2113 409 
Q 2538 409 2786 701 
Q 3034 994 3034 1497 
Q 3034 2003 2786 2293 
Q 2538 2584 2113 2584 
z
M 3366 4563 
L 3366 3988 
Q 3128 4100 2886 4159 
Q 2644 4219 2406 4219 
Q 1781 4219 1451 3797 
Q 1122 3375 1075 2522 
Q 1259 2794 1537 2939 
Q 1816 3084 2150 3084 
Q 2853 3084 3261 2657 
Q 3669 2231 3669 1497 
Q 3669 778 3244 343 
Q 2819 -91 2113 -91 
Q 1303 -91 875 529 
Q 447 1150 447 2328 
Q 447 3434 972 4092 
Q 1497 4750 2381 4750 
Q 2619 4750 2861 4703 
Q 3103 4656 3366 4563 
z
" transform="scale(0.015625)"/>
       </defs>
       <use xlink:href="#DejaVuSans-36"/>
      </g>
     </g>
    </g>
    <g id="text_8">
     <!-- Day -->
     <g transform="translate(720.995 410.710625)scale(0.16 -0.16)">
      <defs>
       <path id="DejaVuSans-Bold-44" d="M 1791 3756 
L 1791 909 
L 2222 909 
Q 2959 909 3348 1275 
Q 3738 1641 3738 2338 
Q 3738 3031 3350 3393 
Q 2963 3756 2222 3756 
L 1791 3756 
z
M 588 4666 
L 1856 4666 
Q 2919 4666 3439 4514 
Q 3959 4363 4331 4000 
Q 4659 3684 4818 3271 
Q 4978 2859 4978 2338 
Q 4978 1809 4818 1395 
Q 4659 981 4331 666 
Q 3956 303 3431 151 
Q 2906 0 1856 0 
L 588 0 
L 588 4666 
z
" transform="scale(0.015625)"/>
       <path id="DejaVuSans-Bold-61" d="M 2106 1575 
Q 1756 1575 1579 1456 
Q 1403 1338 1403 1106 
Q 1403 894 1545 773 
Q 1688 653 1941 653 
Q 2256 653 2472 879 
Q 2688 1106 2688 1447 
L 2688 1575 
L 2106 1575 
z
M 3816 1997 
L 3816 0 
L 2688 0 
L 2688 519 
Q 2463 200 2181 54 
Q 1900 -91 1497 -91 
Q 953 -91 614 226 
Q 275 544 275 1050 
Q 275 1666 698 1953 
Q 1122 2241 2028 2241 
L 2688 2241 
L 2688 2328 
Q 2688 2594 2478 2717 
Q 2269 2841 1825 2841 
Q 1466 2841 1156 2769 
Q 847 2697 581 2553 
L 581 3406 
Q 941 3494 1303 3539 
Q 1666 3584 2028 3584 
Q 2975 3584 3395 3211 
Q 3816 2838 3816 1997 
z
" transform="scale(0.015625)"/>
       <path id="DejaVuSans-Bold-79" d="M 78 3500 
L 1197 3500 
L 2138 1125 
L 2938 3500 
L 4056 3500 
L 2584 -331 
Q 2363 -916 2067 -1148 
Q 1772 -1381 1288 -1381 
L 641 -1381 
L 641 -647 
L 991 -647 
Q 1275 -647 1404 -556 
Q 1534 -466 1606 -231 
L 1638 -134 
L 78 3500 
z
" transform="scale(0.015625)"/>
      </defs>
      <use xlink:href="#DejaVuSans-Bold-44"/>
      <use xlink:href="#DejaVuSans-Bold-61" x="83.007812"/>
      <use xlink:href="#DejaVuSans-Bold-79" x="147.363281"/>
     </g>
    </g>
   </g>
   <g id="matplotlib.axis_2">
    <g id="ytick_1">
     <g id="line2d_8">
      <defs>
       <path id="m68918ac5b3" d="M 0 0 
L -3.5 0 
" style="stroke: #000000; stroke-width: 0.8"/>
      </defs>
      <g>
       <use xlink:href="#m68918ac5b3" x="180" y="320.707037" style="stroke: #000000; stroke-width: 0.8"/>
      </g>
     </g>
     <g id="text_9">
      <!-- 100 -->
      <g transform="translate(153.9125 324.506256)scale(0.1 -0.1)">
       <use xlink:href="#DejaVuSans-31"/>
       <use xlink:href="#DejaVuSans-30" x="63.623047"/>
       <use xlink:href="#DejaVuSans-30" x="127.246094"/>
      </g>
     </g>
    </g>
    <g id="ytick_2">
     <g id="line2d_9">
      <g>
       <use xlink:href="#m68918ac5b3" x="180" y="255.888684" style="stroke: #000000; stroke-width: 0.8"/>
      </g>
     </g>
     <g id="text_10">
      <!-- 150 -->
      <g transform="translate(153.9125 259.687902)scale(0.1 -0.1)">
       <use xlink:href="#DejaVuSans-31"/>
       <use xlink:href="#DejaVuSans-35" x="63.623047"/>
       <use xlink:href="#DejaVuSans-30" x="127.246094"/>
      </g>
     </g>
    </g>
    <g id="ytick_3">
     <g id="line2d_10">
      <g>
       <use xlink:href="#m68918ac5b3" x="180" y="191.07033" style="stroke: #000000; stroke-width: 0.8"/>
      </g>
     </g>
     <g id="text_11">
      <!-- 200 -->
      <g transform="translate(153.9125 194.869549)scale(0.1 -0.1)">
       <use xlink:href="#DejaVuSans-32"/>
       <use xlink:href="#DejaVuSans-30" x="63.623047"/>
       <use xlink:href="#DejaVuSans-30" x="127.246094"/>
      </g>
     </g>
    </g>
    <g id="ytick_4">
     <g id="line2d_11">
      <g>
       <use xlink:href="#m68918ac5b3" x="180" y="126.251977" style="stroke: #000000; stroke-width: 0.8"/>
      </g>
     </g>
     <g id="text_12">
      <!-- 250 -->
      <g transform="translate(153.9125 130.051195)scale(0.1 -0.1)">
       <use xlink:href="#DejaVuSans-32"/>
       <use xlink:href="#DejaVuSans-35" x="63.623047"/>
       <use xlink:href="#DejaVuSans-30" x="127.246094"/>
      </g>
     </g>
    </g>
    <g id="ytick_5">
     <g id="line2d_12">
      <g>
       <use xlink:href="#m68918ac5b3" x="180" y="61.433623" style="stroke: #000000; stroke-width: 0.8"/>
      </g>
     </g>
     <g id="text_13">
      <!-- 300 -->
      <g transform="translate(153.9125 65.232842)scale(0.1 -0.1)">
       <use xlink:href="#DejaVuSans-33"/>
       <use xlink:href="#DejaVuSans-30" x="63.623047"/>
       <use xlink:href="#DejaVuSans-30" x="127.246094"/>
      </g>
     </g>
    </g>
    <g id="text_14">
     <!-- Count -->
     <g transform="translate(146.585 241.50125)rotate(-90)scale(0.16 -0.16)">
      <defs>
       <path id="DejaVuSans-Bold-43" d="M 4288 256 
Q 3956 84 3597 -3 
Q 3238 -91 2847 -91 
Q 1681 -91 1000 561 
Q 319 1213 319 2328 
Q 319 3447 1000 4098 
Q 1681 4750 2847 4750 
Q 3238 4750 3597 4662 
Q 3956 4575 4288 4403 
L 4288 3438 
Q 3953 3666 3628 3772 
Q 3303 3878 2944 3878 
Q 2300 3878 1931 3465 
Q 1563 3053 1563 2328 
Q 1563 1606 1931 1193 
Q 2300 781 2944 781 
Q 3303 781 3628 887 
Q 3953 994 4288 1222 
L 4288 256 
z
" transform="scale(0.015625)"/>
       <path id="DejaVuSans-Bold-6f" d="M 2203 2784 
Q 1831 2784 1636 2517 
Q 1441 2250 1441 1747 
Q 1441 1244 1636 976 
Q 1831 709 2203 709 
Q 2569 709 2762 976 
Q 2956 1244 2956 1747 
Q 2956 2250 2762 2517 
Q 2569 2784 2203 2784 
z
M 2203 3584 
Q 3106 3584 3614 3096 
Q 4122 2609 4122 1747 
Q 4122 884 3614 396 
Q 3106 -91 2203 -91 
Q 1297 -91 786 396 
Q 275 884 275 1747 
Q 275 2609 786 3096 
Q 1297 3584 2203 3584 
z
" transform="scale(0.015625)"/>
       <path id="DejaVuSans-Bold-75" d="M 500 1363 
L 500 3500 
L 1625 3500 
L 1625 3150 
Q 1625 2866 1622 2436 
Q 1619 2006 1619 1863 
Q 1619 1441 1641 1255 
Q 1663 1069 1716 984 
Q 1784 875 1895 815 
Q 2006 756 2150 756 
Q 2500 756 2700 1025 
Q 2900 1294 2900 1772 
L 2900 3500 
L 4019 3500 
L 4019 0 
L 2900 0 
L 2900 506 
Q 2647 200 2364 54 
Q 2081 -91 1741 -91 
Q 1134 -91 817 281 
Q 500 653 500 1363 
z
" transform="scale(0.015625)"/>
       <path id="DejaVuSans-Bold-6e" d="M 4056 2131 
L 4056 0 
L 2931 0 
L 2931 347 
L 2931 1631 
Q 2931 2084 2911 2256 
Q 2891 2428 2841 2509 
Q 2775 2619 2662 2680 
Q 2550 2741 2406 2741 
Q 2056 2741 1856 2470 
Q 1656 2200 1656 1722 
L 1656 0 
L 538 0 
L 538 3500 
L 1656 3500 
L 1656 2988 
Q 1909 3294 2193 3439 
Q 2478 3584 2822 3584 
Q 3428 3584 3742 3212 
Q 4056 2841 4056 2131 
z
" transform="scale(0.015625)"/>
       <path id="DejaVuSans-Bold-74" d="M 1759 4494 
L 1759 3500 
L 2913 3500 
L 2913 2700 
L 1759 2700 
L 1759 1216 
Q 1759 972 1856 886 
Q 1953 800 2241 800 
L 2816 800 
L 2816 0 
L 1856 0 
Q 1194 0 917 276 
Q 641 553 641 1216 
L 641 2700 
L 84 2700 
L 84 3500 
L 641 3500 
L 641 4494 
L 1759 4494 
z
" transform="scale(0.015625)"/>
      </defs>
      <use xlink:href="#DejaVuSans-Bold-43"/>
      <use xlink:href="#DejaVuSans-Bold-6f" x="73.388672"/>
      <use xlink:href="#DejaVuSans-Bold-75" x="142.089844"/>
      <use xlink:href="#DejaVuSans-Bold-6e" x="213.28125"/>
      <use xlink:href="#DejaVuSans-Bold-74" x="284.472656"/>
     </g>
    </g>
   </g>
   <g id="line2d_13">
    <path d="M 230.727273 351.015771 
L 399.818182 344.503063 
L 568.909091 299.035446 
L 738 327.124054 
L 907.090909 301.402279 
L 1076.181818 316.097732 
L 1245.272727 343.672119 
" clip-path="url(#pa82c80c181)" style="fill: none; stroke: #a1c9f4; stroke-width: 1.5; stroke-linecap: square"/>
   </g>
   <g id="line2d_14">
    <path d="M 230.727273 327.017395 
L 399.818182 306.674553 
L 568.909091 290.302625 
L 738 295.513488 
L 907.090909 292.392734 
L 1076.181818 288.539205 
L 1245.272727 327.918079 
" clip-path="url(#pa82c80c181)" style="fill: none; stroke: #ffb482; stroke-width: 1.5; stroke-linecap: square"/>
   </g>
   <g id="line2d_15">
    <path d="M 230.727273 268.245544 
L 399.818182 254.750915 
L 568.909091 256.395171 
L 738 250.254939 
L 907.090909 242.43479 
L 1076.181818 236.309906 
L 1245.272727 237.589502 
" clip-path="url(#pa82c80c181)" style="fill: none; stroke: #8de5a1; stroke-width: 1.5; stroke-linecap: square"/>
   </g>
   <g id="line2d_16">
    <path d="M 230.727273 211.76419 
L 399.818182 204.143041 
L 568.909091 204.256814 
L 738 215.185473 
L 907.090909 193.014881 
L 1076.181818 213.378647 
L 1245.272727 210.20975 
" clip-path="url(#pa82c80c181)" style="fill: none; stroke: #ff9f9b; stroke-width: 1.5; stroke-linecap: square"/>
   </g>
   <g id="line2d_17">
    <path d="M 230.727273 162.970374 
L 399.818182 206.60873 
L 568.909091 178.916889 
L 738 173.827448 
L 907.090909 132.049618 
L 1076.181818 139.701785 
L 1245.272727 127.413305 
" clip-path="url(#pa82c80c181)" style="fill: none; stroke: #d0bbff; stroke-width: 1.5; stroke-linecap: square"/>
   </g>
   <g id="line2d_18">
    <path d="M 230.727273 129.472639 
L 399.818182 154.434457 
L 568.909091 143.489608 
L 738 142.40255 
L 907.090909 146.681761 
L 1076.181818 146.975845 
L 1245.272727 107.682719 
" clip-path="url(#pa82c80c181)" style="fill: none; stroke: #debb9b; stroke-width: 1.5; stroke-linecap: square"/>
   </g>
   <g id="line2d_19">
    <path d="M 230.727273 164.165312 
L 399.818182 137.511165 
L 568.909091 134.666359 
L 738 136.298821 
L 907.090909 146.581983 
L 1076.181818 158.343063 
L 1245.272727 167.717718 
" clip-path="url(#pa82c80c181)" style="fill: none; stroke: #fab0e4; stroke-width: 1.5; stroke-linecap: square"/>
   </g>
   <g id="line2d_20">
    <path d="M 230.727273 186.697719 
L 399.818182 152.269344 
L 568.909091 130.00904 
L 738 122.0982 
L 907.090909 124.18139 
L 1076.181818 128.496612 
L 1245.272727 159.072367 
" clip-path="url(#pa82c80c181)" style="fill: none; stroke: #cfcfcf; stroke-width: 1.5; stroke-linecap: square"/>
   </g>
   <g id="line2d_21">
    <path d="M 230.727273 117.633536 
L 399.818182 144.258583 
L 568.909091 168.835259 
L 738 144.171551 
L 907.090909 152.661687 
L 1076.181818 139.917846 
L 1245.272727 104.987956 
" clip-path="url(#pa82c80c181)" style="fill: none; stroke: #fffea3; stroke-width: 1.5; stroke-linecap: square"/>
   </g>
   <g id="line2d_22">
    <path d="M 230.727273 194.587326 
L 399.818182 173.602232 
L 568.909091 159.261442 
L 738 151.618564 
L 907.090909 151.247554 
L 1076.181818 146.602239 
L 1245.272727 156.224463 
" clip-path="url(#pa82c80c181)" style="fill: none; stroke: #b9f2f0; stroke-width: 1.5; stroke-linecap: square"/>
   </g>
   <g id="line2d_23">
    <path d="M 230.727273 227.469887 
L 399.818182 197.402846 
L 568.909091 232.109951 
L 738 226.918481 
L 907.090909 232.57225 
L 1076.181818 205.996557 
L 1245.272727 218.726161 
" clip-path="url(#pa82c80c181)" style="fill: none; stroke: #a1c9f4; stroke-width: 1.5; stroke-linecap: square"/>
   </g>
   <g id="line2d_24">
    <path d="M 230.727273 301.659486 
L 399.818182 259.650571 
L 568.909091 248.721335 
L 738 272.768605 
L 907.090909 249.898988 
L 1076.181818 248.194505 
L 1245.272727 277.770279 
" clip-path="url(#pa82c80c181)" style="fill: none; stroke: #ffb482; stroke-width: 1.5; stroke-linecap: square"/>
   </g>
   <g id="line2d_25"/>
   <g id="line2d_26"/>
   <g id="line2d_27"/>
   <g id="line2d_28"/>
   <g id="line2d_29"/>
   <g id="line2d_30"/>
   <g id="line2d_31"/>
   <g id="line2d_32"/>
   <g id="line2d_33"/>
   <g id="line2d_34"/>
   <g id="line2d_35"/>
   <g id="line2d_36"/>
   <g id="patch_3">
    <path d="M 180 378 
L 180 51.84 
" style="fill: none; stroke: #000000; stroke-width: 0.8; stroke-linejoin: miter; stroke-linecap: square"/>
   </g>
   <g id="patch_4">
    <path d="M 1296 378 
L 1296 51.84 
" style="fill: none; stroke: #000000; stroke-width: 0.8; stroke-linejoin: miter; stroke-linecap: square"/>
   </g>
   <g id="patch_5">
    <path d="M 180 378 
L 1296 378 
" style="fill: none; stroke: #000000; stroke-width: 0.8; stroke-linejoin: miter; stroke-linecap: square"/>
   </g>
   <g id="patch_6">
    <path d="M 180 51.84 
L 1296 51.84 
" style="fill: none; stroke: #000000; stroke-width: 0.8; stroke-linejoin: miter; stroke-linecap: square"/>
   </g>
   <g id="text_15">
    <!-- Seasonal plot -->
    <g transform="translate(661.432812 45.84)scale(0.2 -0.2)">
     <defs>
      <path id="DejaVuSans-Bold-53" d="M 3834 4519 
L 3834 3531 
Q 3450 3703 3084 3790 
Q 2719 3878 2394 3878 
Q 1963 3878 1756 3759 
Q 1550 3641 1550 3391 
Q 1550 3203 1689 3098 
Q 1828 2994 2194 2919 
L 2706 2816 
Q 3484 2659 3812 2340 
Q 4141 2022 4141 1434 
Q 4141 663 3683 286 
Q 3225 -91 2284 -91 
Q 1841 -91 1394 -6 
Q 947 78 500 244 
L 500 1259 
Q 947 1022 1364 901 
Q 1781 781 2169 781 
Q 2563 781 2772 912 
Q 2981 1044 2981 1288 
Q 2981 1506 2839 1625 
Q 2697 1744 2272 1838 
L 1806 1941 
Q 1106 2091 782 2419 
Q 459 2747 459 3303 
Q 459 4000 909 4375 
Q 1359 4750 2203 4750 
Q 2588 4750 2994 4692 
Q 3400 4634 3834 4519 
z
" transform="scale(0.015625)"/>
      <path id="DejaVuSans-Bold-65" d="M 4031 1759 
L 4031 1441 
L 1416 1441 
Q 1456 1047 1700 850 
Q 1944 653 2381 653 
Q 2734 653 3104 758 
Q 3475 863 3866 1075 
L 3866 213 
Q 3469 63 3072 -14 
Q 2675 -91 2278 -91 
Q 1328 -91 801 392 
Q 275 875 275 1747 
Q 275 2603 792 3093 
Q 1309 3584 2216 3584 
Q 3041 3584 3536 3087 
Q 4031 2591 4031 1759 
z
M 2881 2131 
Q 2881 2450 2695 2645 
Q 2509 2841 2209 2841 
Q 1884 2841 1681 2658 
Q 1478 2475 1428 2131 
L 2881 2131 
z
" transform="scale(0.015625)"/>
      <path id="DejaVuSans-Bold-73" d="M 3272 3391 
L 3272 2541 
Q 2913 2691 2578 2766 
Q 2244 2841 1947 2841 
Q 1628 2841 1473 2761 
Q 1319 2681 1319 2516 
Q 1319 2381 1436 2309 
Q 1553 2238 1856 2203 
L 2053 2175 
Q 2913 2066 3209 1816 
Q 3506 1566 3506 1031 
Q 3506 472 3093 190 
Q 2681 -91 1863 -91 
Q 1516 -91 1145 -36 
Q 775 19 384 128 
L 384 978 
Q 719 816 1070 734 
Q 1422 653 1784 653 
Q 2113 653 2278 743 
Q 2444 834 2444 1013 
Q 2444 1163 2330 1236 
Q 2216 1309 1875 1350 
L 1678 1375 
Q 931 1469 631 1722 
Q 331 1975 331 2491 
Q 331 3047 712 3315 
Q 1094 3584 1881 3584 
Q 2191 3584 2531 3537 
Q 2872 3491 3272 3391 
z
" transform="scale(0.015625)"/>
      <path id="DejaVuSans-Bold-6c" d="M 538 4863 
L 1656 4863 
L 1656 0 
L 538 0 
L 538 4863 
z
" transform="scale(0.015625)"/>
      <path id="DejaVuSans-Bold-20" transform="scale(0.015625)"/>
      <path id="DejaVuSans-Bold-70" d="M 1656 506 
L 1656 -1331 
L 538 -1331 
L 538 3500 
L 1656 3500 
L 1656 2988 
Q 1888 3294 2169 3439 
Q 2450 3584 2816 3584 
Q 3463 3584 3878 3070 
Q 4294 2556 4294 1747 
Q 4294 938 3878 423 
Q 3463 -91 2816 -91 
Q 2450 -91 2169 54 
Q 1888 200 1656 506 
z
M 2400 2772 
Q 2041 2772 1848 2508 
Q 1656 2244 1656 1747 
Q 1656 1250 1848 986 
Q 2041 722 2400 722 
Q 2759 722 2948 984 
Q 3138 1247 3138 1747 
Q 3138 2247 2948 2509 
Q 2759 2772 2400 2772 
z
" transform="scale(0.015625)"/>
     </defs>
     <use xlink:href="#DejaVuSans-Bold-53"/>
     <use xlink:href="#DejaVuSans-Bold-65" x="72.021484"/>
     <use xlink:href="#DejaVuSans-Bold-61" x="139.84375"/>
     <use xlink:href="#DejaVuSans-Bold-73" x="207.324219"/>
     <use xlink:href="#DejaVuSans-Bold-6f" x="266.845703"/>
     <use xlink:href="#DejaVuSans-Bold-6e" x="335.546875"/>
     <use xlink:href="#DejaVuSans-Bold-61" x="406.738281"/>
     <use xlink:href="#DejaVuSans-Bold-6c" x="474.21875"/>
     <use xlink:href="#DejaVuSans-Bold-20" x="508.496094"/>
     <use xlink:href="#DejaVuSans-Bold-70" x="543.310547"/>
     <use xlink:href="#DejaVuSans-Bold-6c" x="614.892578"/>
     <use xlink:href="#DejaVuSans-Bold-6f" x="649.169922"/>
     <use xlink:href="#DejaVuSans-Bold-74" x="717.871094"/>
    </g>
   </g>
   <g id="legend_1">
    <g id="patch_7">
     <path d="M 1244.275 373 
L 1289 373 
Q 1291 373 1291 371 
L 1291 181.184375 
Q 1291 179.184375 1289 179.184375 
L 1244.275 179.184375 
Q 1242.275 179.184375 1242.275 181.184375 
L 1242.275 371 
Q 1242.275 373 1244.275 373 
z
" style="fill: #ffffff; opacity: 0.8; stroke: #cccccc; stroke-linejoin: miter"/>
    </g>
    <g id="text_16">
     <!-- mnth -->
     <g transform="translate(1253.469531 190.782813)scale(0.1 -0.1)">
      <defs>
       <path id="DejaVuSans-6d" d="M 3328 2828 
Q 3544 3216 3844 3400 
Q 4144 3584 4550 3584 
Q 5097 3584 5394 3201 
Q 5691 2819 5691 2113 
L 5691 0 
L 5113 0 
L 5113 2094 
Q 5113 2597 4934 2840 
Q 4756 3084 4391 3084 
Q 3944 3084 3684 2787 
Q 3425 2491 3425 1978 
L 3425 0 
L 2847 0 
L 2847 2094 
Q 2847 2600 2669 2842 
Q 2491 3084 2119 3084 
Q 1678 3084 1418 2786 
Q 1159 2488 1159 1978 
L 1159 0 
L 581 0 
L 581 3500 
L 1159 3500 
L 1159 2956 
Q 1356 3278 1631 3431 
Q 1906 3584 2284 3584 
Q 2666 3584 2933 3390 
Q 3200 3197 3328 2828 
z
" transform="scale(0.015625)"/>
       <path id="DejaVuSans-6e" d="M 3513 2113 
L 3513 0 
L 2938 0 
L 2938 2094 
Q 2938 2591 2744 2837 
Q 2550 3084 2163 3084 
Q 1697 3084 1428 2787 
Q 1159 2491 1159 1978 
L 1159 0 
L 581 0 
L 581 3500 
L 1159 3500 
L 1159 2956 
Q 1366 3272 1645 3428 
Q 1925 3584 2291 3584 
Q 2894 3584 3203 3211 
Q 3513 2838 3513 2113 
z
" transform="scale(0.015625)"/>
       <path id="DejaVuSans-74" d="M 1172 4494 
L 1172 3500 
L 2356 3500 
L 2356 3053 
L 1172 3053 
L 1172 1153 
Q 1172 725 1289 603 
Q 1406 481 1766 481 
L 2356 481 
L 2356 0 
L 1766 0 
Q 1100 0 847 248 
Q 594 497 594 1153 
L 594 3053 
L 172 3053 
L 172 3500 
L 594 3500 
L 594 4494 
L 1172 4494 
z
" transform="scale(0.015625)"/>
       <path id="DejaVuSans-68" d="M 3513 2113 
L 3513 0 
L 2938 0 
L 2938 2094 
Q 2938 2591 2744 2837 
Q 2550 3084 2163 3084 
Q 1697 3084 1428 2787 
Q 1159 2491 1159 1978 
L 1159 0 
L 581 0 
L 581 4863 
L 1159 4863 
L 1159 2956 
Q 1366 3272 1645 3428 
Q 1925 3584 2291 3584 
Q 2894 3584 3203 3211 
Q 3513 2838 3513 2113 
z
" transform="scale(0.015625)"/>
      </defs>
      <use xlink:href="#DejaVuSans-6d"/>
      <use xlink:href="#DejaVuSans-6e" x="97.412109"/>
      <use xlink:href="#DejaVuSans-74" x="160.791016"/>
      <use xlink:href="#DejaVuSans-68" x="200"/>
     </g>
    </g>
    <g id="line2d_37">
     <path d="M 1246.275 201.960938 
L 1256.275 201.960938 
L 1266.275 201.960938 
" style="fill: none; stroke: #a1c9f4; stroke-width: 1.5; stroke-linecap: square"/>
    </g>
    <g id="text_17">
     <!-- 1 -->
     <g transform="translate(1274.275 205.460938)scale(0.1 -0.1)">
      <use xlink:href="#DejaVuSans-31"/>
     </g>
    </g>
    <g id="line2d_38">
     <path d="M 1246.275 216.639063 
L 1256.275 216.639063 
L 1266.275 216.639063 
" style="fill: none; stroke: #ffb482; stroke-width: 1.5; stroke-linecap: square"/>
    </g>
    <g id="text_18">
     <!-- 2 -->
     <g transform="translate(1274.275 220.139063)scale(0.1 -0.1)">
      <use xlink:href="#DejaVuSans-32"/>
     </g>
    </g>
    <g id="line2d_39">
     <path d="M 1246.275 231.317188 
L 1256.275 231.317188 
L 1266.275 231.317188 
" style="fill: none; stroke: #8de5a1; stroke-width: 1.5; stroke-linecap: square"/>
    </g>
    <g id="text_19">
     <!-- 3 -->
     <g transform="translate(1274.275 234.817188)scale(0.1 -0.1)">
      <use xlink:href="#DejaVuSans-33"/>
     </g>
    </g>
    <g id="line2d_40">
     <path d="M 1246.275 245.995313 
L 1256.275 245.995313 
L 1266.275 245.995313 
" style="fill: none; stroke: #ff9f9b; stroke-width: 1.5; stroke-linecap: square"/>
    </g>
    <g id="text_20">
     <!-- 4 -->
     <g transform="translate(1274.275 249.495313)scale(0.1 -0.1)">
      <use xlink:href="#DejaVuSans-34"/>
     </g>
    </g>
    <g id="line2d_41">
     <path d="M 1246.275 260.673438 
L 1256.275 260.673438 
L 1266.275 260.673438 
" style="fill: none; stroke: #d0bbff; stroke-width: 1.5; stroke-linecap: square"/>
    </g>
    <g id="text_21">
     <!-- 5 -->
     <g transform="translate(1274.275 264.173438)scale(0.1 -0.1)">
      <use xlink:href="#DejaVuSans-35"/>
     </g>
    </g>
    <g id="line2d_42">
     <path d="M 1246.275 275.351563 
L 1256.275 275.351563 
L 1266.275 275.351563 
" style="fill: none; stroke: #debb9b; stroke-width: 1.5; stroke-linecap: square"/>
    </g>
    <g id="text_22">
     <!-- 6 -->
     <g transform="translate(1274.275 278.851563)scale(0.1 -0.1)">
      <use xlink:href="#DejaVuSans-36"/>
     </g>
    </g>
    <g id="line2d_43">
     <path d="M 1246.275 290.029688 
L 1256.275 290.029688 
L 1266.275 290.029688 
" style="fill: none; stroke: #fab0e4; stroke-width: 1.5; stroke-linecap: square"/>
    </g>
    <g id="text_23">
     <!-- 7 -->
     <g transform="translate(1274.275 293.529688)scale(0.1 -0.1)">
      <defs>
       <path id="DejaVuSans-37" d="M 525 4666 
L 3525 4666 
L 3525 4397 
L 1831 0 
L 1172 0 
L 2766 4134 
L 525 4134 
L 525 4666 
z
" transform="scale(0.015625)"/>
      </defs>
      <use xlink:href="#DejaVuSans-37"/>
     </g>
    </g>
    <g id="line2d_44">
     <path d="M 1246.275 304.707813 
L 1256.275 304.707813 
L 1266.275 304.707813 
" style="fill: none; stroke: #cfcfcf; stroke-width: 1.5; stroke-linecap: square"/>
    </g>
    <g id="text_24">
     <!-- 8 -->
     <g transform="translate(1274.275 308.207813)scale(0.1 -0.1)">
      <defs>
       <path id="DejaVuSans-38" d="M 2034 2216 
Q 1584 2216 1326 1975 
Q 1069 1734 1069 1313 
Q 1069 891 1326 650 
Q 1584 409 2034 409 
Q 2484 409 2743 651 
Q 3003 894 3003 1313 
Q 3003 1734 2745 1975 
Q 2488 2216 2034 2216 
z
M 1403 2484 
Q 997 2584 770 2862 
Q 544 3141 544 3541 
Q 544 4100 942 4425 
Q 1341 4750 2034 4750 
Q 2731 4750 3128 4425 
Q 3525 4100 3525 3541 
Q 3525 3141 3298 2862 
Q 3072 2584 2669 2484 
Q 3125 2378 3379 2068 
Q 3634 1759 3634 1313 
Q 3634 634 3220 271 
Q 2806 -91 2034 -91 
Q 1263 -91 848 271 
Q 434 634 434 1313 
Q 434 1759 690 2068 
Q 947 2378 1403 2484 
z
M 1172 3481 
Q 1172 3119 1398 2916 
Q 1625 2713 2034 2713 
Q 2441 2713 2670 2916 
Q 2900 3119 2900 3481 
Q 2900 3844 2670 4047 
Q 2441 4250 2034 4250 
Q 1625 4250 1398 4047 
Q 1172 3844 1172 3481 
z
" transform="scale(0.015625)"/>
      </defs>
      <use xlink:href="#DejaVuSans-38"/>
     </g>
    </g>
    <g id="line2d_45">
     <path d="M 1246.275 319.385938 
L 1256.275 319.385938 
L 1266.275 319.385938 
" style="fill: none; stroke: #fffea3; stroke-width: 1.5; stroke-linecap: square"/>
    </g>
    <g id="text_25">
     <!-- 9 -->
     <g transform="translate(1274.275 322.885938)scale(0.1 -0.1)">
      <defs>
       <path id="DejaVuSans-39" d="M 703 97 
L 703 672 
Q 941 559 1184 500 
Q 1428 441 1663 441 
Q 2288 441 2617 861 
Q 2947 1281 2994 2138 
Q 2813 1869 2534 1725 
Q 2256 1581 1919 1581 
Q 1219 1581 811 2004 
Q 403 2428 403 3163 
Q 403 3881 828 4315 
Q 1253 4750 1959 4750 
Q 2769 4750 3195 4129 
Q 3622 3509 3622 2328 
Q 3622 1225 3098 567 
Q 2575 -91 1691 -91 
Q 1453 -91 1209 -44 
Q 966 3 703 97 
z
M 1959 2075 
Q 2384 2075 2632 2365 
Q 2881 2656 2881 3163 
Q 2881 3666 2632 3958 
Q 2384 4250 1959 4250 
Q 1534 4250 1286 3958 
Q 1038 3666 1038 3163 
Q 1038 2656 1286 2365 
Q 1534 2075 1959 2075 
z
" transform="scale(0.015625)"/>
      </defs>
      <use xlink:href="#DejaVuSans-39"/>
     </g>
    </g>
    <g id="line2d_46">
     <path d="M 1246.275 334.064062 
L 1256.275 334.064062 
L 1266.275 334.064062 
" style="fill: none; stroke: #b9f2f0; stroke-width: 1.5; stroke-linecap: square"/>
    </g>
    <g id="text_26">
     <!-- 10 -->
     <g transform="translate(1274.275 337.564062)scale(0.1 -0.1)">
      <use xlink:href="#DejaVuSans-31"/>
      <use xlink:href="#DejaVuSans-30" x="63.623047"/>
     </g>
    </g>
    <g id="line2d_47">
     <path d="M 1246.275 348.742188 
L 1256.275 348.742188 
L 1266.275 348.742188 
" style="fill: none; stroke: #a1c9f4; stroke-width: 1.5; stroke-linecap: square"/>
    </g>
    <g id="text_27">
     <!-- 11 -->
     <g transform="translate(1274.275 352.242188)scale(0.1 -0.1)">
      <use xlink:href="#DejaVuSans-31"/>
      <use xlink:href="#DejaVuSans-31" x="63.623047"/>
     </g>
    </g>
    <g id="line2d_48">
     <path d="M 1246.275 363.420313 
L 1256.275 363.420313 
L 1266.275 363.420313 
" style="fill: none; stroke: #ffb482; stroke-width: 1.5; stroke-linecap: square"/>
    </g>
    <g id="text_28">
     <!-- 12 -->
     <g transform="translate(1274.275 366.920313)scale(0.1 -0.1)">
      <use xlink:href="#DejaVuSans-31"/>
      <use xlink:href="#DejaVuSans-32" x="63.623047"/>
     </g>
    </g>
   </g>
  </g>
 </g>
 <defs>
  <clipPath id="pa82c80c181">
   <rect x="180" y="51.84" width="1116" height="326.16"/>
  </clipPath>
 </defs>
</svg>
