<?xml version="1.0" encoding="utf-8" standalone="no"?>
<!DOCTYPE svg PUBLIC "-//W3C//DTD SVG 1.1//EN"
  "http://www.w3.org/Graphics/SVG/1.1/DTD/svg11.dtd">
<svg xmlns:xlink="http://www.w3.org/1999/xlink" width="1080pt" height="432pt" viewBox="0 0 1080 432" xmlns="http://www.w3.org/2000/svg" version="1.1">
 <metadata>
  <rdf:RDF xmlns:dc="http://purl.org/dc/elements/1.1/" xmlns:cc="http://creativecommons.org/ns#" xmlns:rdf="http://www.w3.org/1999/02/22-rdf-syntax-ns#">
   <cc:Work>
    <dc:type rdf:resource="http://purl.org/dc/dcmitype/StillImage"/>
    <dc:date>2022-09-15T21:42:47.183797</dc:date>
    <dc:format>image/svg+xml</dc:format>
    <dc:creator>
     <cc:Agent>
      <dc:title>Matplotlib v3.5.3, https://matplotlib.org/</dc:title>
     </cc:Agent>
    </dc:creator>
   </cc:Work>
  </rdf:RDF>
 </metadata>
 <defs>
  <style type="text/css">*{stroke-linejoin: round; stroke-linecap: butt}</style>
 </defs>
 <g id="figure_1">
  <g id="patch_1">
   <path d="M 0 432 
L 1080 432 
L 1080 0 
L 0 0 
L 0 432 
z
" style="fill: none"/>
  </g>
  <g id="axes_1">
   <g id="patch_2">
    <path d="M 50.675 180.232284 
L 534.6 180.232284 
L 534.6 12.064568 
L 50.675 12.064568 
z
" style="fill: #ffffff"/>
   </g>
   <g id="PolyCollection_1">
    <defs>
     <path id="m5d0fe743cc" d="M 72.671591 -280.181492 
L 72.671591 -259.411703 
L 81.649791 -259.702196 
L 90.627992 -263.981517 
L 99.606192 -260.555863 
L 108.584392 -265.276412 
L 117.562593 -268.488834 
L 126.540793 -268.899378 
L 135.518994 -272.311216 
L 144.497194 -270.480906 
L 153.475394 -276.149823 
L 162.453595 -273.801881 
L 171.431795 -276.744599 
L 180.409995 -279.119806 
L 189.388196 -283.202886 
L 198.366396 -287.029535 
L 207.344596 -291.912276 
L 216.322797 -292.51891 
L 225.300997 -296.014093 
L 234.279198 -299.251144 
L 243.257398 -301.251458 
L 252.235598 -302.857257 
L 261.213799 -298.225138 
L 270.191999 -299.72659 
L 279.170199 -306.373136 
L 288.1484 -308.935325 
L 297.1266 -310.184295 
L 306.104801 -309.520895 
L 315.083001 -313.414189 
L 324.061201 -314.65069 
L 333.039402 -315.969451 
L 342.017602 -311.112951 
L 350.995802 -316.844374 
L 359.974003 -316.83328 
L 368.952203 -310.913208 
L 377.930404 -326.100848 
L 386.908604 -334.179094 
L 395.886804 -342.223177 
L 404.865005 -349.505352 
L 413.843205 -338.321179 
L 422.821405 -351.172715 
L 431.799606 -347.591599 
L 440.777806 -342.790841 
L 449.756006 -341.01925 
L 458.734207 -350.341177 
L 467.712407 -336.507933 
L 476.690608 -337.622455 
L 485.668808 -308.727474 
L 494.647008 -321.432577 
L 494.647008 -350.250121 
L 494.647008 -350.250121 
L 485.668808 -329.973783 
L 476.690608 -360.426114 
L 467.712407 -355.649946 
L 458.734207 -372.672025 
L 449.756006 -357.964931 
L 440.777806 -358.216944 
L 431.799606 -361.970803 
L 422.821405 -363.066853 
L 413.843205 -355.554964 
L 404.865005 -360.888289 
L 395.886804 -351.582618 
L 386.908604 -343.739152 
L 377.930404 -334.888714 
L 368.952203 -322.530862 
L 359.974003 -325.770346 
L 350.995802 -325.591499 
L 342.017602 -319.279462 
L 333.039402 -324.830624 
L 324.061201 -326.367941 
L 315.083001 -322.479037 
L 306.104801 -318.1827 
L 297.1266 -319.090143 
L 288.1484 -317.556052 
L 279.170199 -316.300907 
L 270.191999 -306.952106 
L 261.213799 -306.182277 
L 252.235598 -310.830997 
L 243.257398 -307.942242 
L 234.279198 -307.987694 
L 225.300997 -301.754611 
L 216.322797 -298.409727 
L 207.344596 -297.756256 
L 198.366396 -292.152614 
L 189.388196 -290.77344 
L 180.409995 -283.789443 
L 171.431795 -281.936051 
L 162.453595 -278.81661 
L 153.475394 -282.356108 
L 144.497194 -276.645985 
L 135.518994 -277.73655 
L 126.540793 -275.128017 
L 117.562593 -277.4694 
L 108.584392 -276.088056 
L 99.606192 -268.167385 
L 90.627992 -272.250974 
L 81.649791 -274.971954 
L 72.671591 -280.181492 
z
" style="stroke: #1f77b4; stroke-opacity: 0.2"/>
    </defs>
    <g clip-path="url(#p15ecd93cd0)">
     <use xlink:href="#m5d0fe743cc" x="0" y="432" style="fill: #1f77b4; fill-opacity: 0.2; stroke: #1f77b4; stroke-opacity: 0.2"/>
    </g>
   </g>
   <g id="matplotlib.axis_1">
    <g id="xtick_1">
     <g id="line2d_1">
      <defs>
       <path id="m33e7d43ce2" d="M 0 0 
L 0 3.5 
" style="stroke: #000000; stroke-width: 0.8"/>
      </defs>
      <g>
       <use xlink:href="#m33e7d43ce2" x="63.693391" y="180.232284" style="stroke: #000000; stroke-width: 0.8"/>
      </g>
     </g>
     <g id="text_1">
      <!-- 0.0 -->
      <g transform="translate(55.741828 194.830721)scale(0.1 -0.1)">
       <defs>
        <path id="DejaVuSans-30" d="M 2034 4250 
Q 1547 4250 1301 3770 
Q 1056 3291 1056 2328 
Q 1056 1369 1301 889 
Q 1547 409 2034 409 
Q 2525 409 2770 889 
Q 3016 1369 3016 2328 
Q 3016 3291 2770 3770 
Q 2525 4250 2034 4250 
z
M 2034 4750 
Q 2819 4750 3233 4129 
Q 3647 3509 3647 2328 
Q 3647 1150 3233 529 
Q 2819 -91 2034 -91 
Q 1250 -91 836 529 
Q 422 1150 422 2328 
Q 422 3509 836 4129 
Q 1250 4750 2034 4750 
z
" transform="scale(0.015625)"/>
        <path id="DejaVuSans-2e" d="M 684 794 
L 1344 794 
L 1344 0 
L 684 0 
L 684 794 
z
" transform="scale(0.015625)"/>
       </defs>
       <use xlink:href="#DejaVuSans-30"/>
       <use xlink:href="#DejaVuSans-2e" x="63.623047"/>
       <use xlink:href="#DejaVuSans-30" x="95.410156"/>
      </g>
     </g>
    </g>
    <g id="xtick_2">
     <g id="line2d_2">
      <g>
       <use xlink:href="#m33e7d43ce2" x="153.475394" y="180.232284" style="stroke: #000000; stroke-width: 0.8"/>
      </g>
     </g>
     <g id="text_2">
      <!-- 0.2 -->
      <g transform="translate(145.523832 194.830721)scale(0.1 -0.1)">
       <defs>
        <path id="DejaVuSans-32" d="M 1228 531 
L 3431 531 
L 3431 0 
L 469 0 
L 469 531 
Q 828 903 1448 1529 
Q 2069 2156 2228 2338 
Q 2531 2678 2651 2914 
Q 2772 3150 2772 3378 
Q 2772 3750 2511 3984 
Q 2250 4219 1831 4219 
Q 1534 4219 1204 4116 
Q 875 4013 500 3803 
L 500 4441 
Q 881 4594 1212 4672 
Q 1544 4750 1819 4750 
Q 2544 4750 2975 4387 
Q 3406 4025 3406 3419 
Q 3406 3131 3298 2873 
Q 3191 2616 2906 2266 
Q 2828 2175 2409 1742 
Q 1991 1309 1228 531 
z
" transform="scale(0.015625)"/>
       </defs>
       <use xlink:href="#DejaVuSans-30"/>
       <use xlink:href="#DejaVuSans-2e" x="63.623047"/>
       <use xlink:href="#DejaVuSans-32" x="95.410156"/>
      </g>
     </g>
    </g>
    <g id="xtick_3">
     <g id="line2d_3">
      <g>
       <use xlink:href="#m33e7d43ce2" x="243.257398" y="180.232284" style="stroke: #000000; stroke-width: 0.8"/>
      </g>
     </g>
     <g id="text_3">
      <!-- 0.4 -->
      <g transform="translate(235.305835 194.830721)scale(0.1 -0.1)">
       <defs>
        <path id="DejaVuSans-34" d="M 2419 4116 
L 825 1625 
L 2419 1625 
L 2419 4116 
z
M 2253 4666 
L 3047 4666 
L 3047 1625 
L 3713 1625 
L 3713 1100 
L 3047 1100 
L 3047 0 
L 2419 0 
L 2419 1100 
L 313 1100 
L 313 1709 
L 2253 4666 
z
" transform="scale(0.015625)"/>
       </defs>
       <use xlink:href="#DejaVuSans-30"/>
       <use xlink:href="#DejaVuSans-2e" x="63.623047"/>
       <use xlink:href="#DejaVuSans-34" x="95.410156"/>
      </g>
     </g>
    </g>
    <g id="xtick_4">
     <g id="line2d_4">
      <g>
       <use xlink:href="#m33e7d43ce2" x="333.039402" y="180.232284" style="stroke: #000000; stroke-width: 0.8"/>
      </g>
     </g>
     <g id="text_4">
      <!-- 0.6 -->
      <g transform="translate(325.087839 194.830721)scale(0.1 -0.1)">
       <defs>
        <path id="DejaVuSans-36" d="M 2113 2584 
Q 1688 2584 1439 2293 
Q 1191 2003 1191 1497 
Q 1191 994 1439 701 
Q 1688 409 2113 409 
Q 2538 409 2786 701 
Q 3034 994 3034 1497 
Q 3034 2003 2786 2293 
Q 2538 2584 2113 2584 
z
M 3366 4563 
L 3366 3988 
Q 3128 4100 2886 4159 
Q 2644 4219 2406 4219 
Q 1781 4219 1451 3797 
Q 1122 3375 1075 2522 
Q 1259 2794 1537 2939 
Q 1816 3084 2150 3084 
Q 2853 3084 3261 2657 
Q 3669 2231 3669 1497 
Q 3669 778 3244 343 
Q 2819 -91 2113 -91 
Q 1303 -91 875 529 
Q 447 1150 447 2328 
Q 447 3434 972 4092 
Q 1497 4750 2381 4750 
Q 2619 4750 2861 4703 
Q 3103 4656 3366 4563 
z
" transform="scale(0.015625)"/>
       </defs>
       <use xlink:href="#DejaVuSans-30"/>
       <use xlink:href="#DejaVuSans-2e" x="63.623047"/>
       <use xlink:href="#DejaVuSans-36" x="95.410156"/>
      </g>
     </g>
    </g>
    <g id="xtick_5">
     <g id="line2d_5">
      <g>
       <use xlink:href="#m33e7d43ce2" x="422.821405" y="180.232284" style="stroke: #000000; stroke-width: 0.8"/>
      </g>
     </g>
     <g id="text_5">
      <!-- 0.8 -->
      <g transform="translate(414.869843 194.830721)scale(0.1 -0.1)">
       <defs>
        <path id="DejaVuSans-38" d="M 2034 2216 
Q 1584 2216 1326 1975 
Q 1069 1734 1069 1313 
Q 1069 891 1326 650 
Q 1584 409 2034 409 
Q 2484 409 2743 651 
Q 3003 894 3003 1313 
Q 3003 1734 2745 1975 
Q 2488 2216 2034 2216 
z
M 1403 2484 
Q 997 2584 770 2862 
Q 544 3141 544 3541 
Q 544 4100 942 4425 
Q 1341 4750 2034 4750 
Q 2731 4750 3128 4425 
Q 3525 4100 3525 3541 
Q 3525 3141 3298 2862 
Q 3072 2584 2669 2484 
Q 3125 2378 3379 2068 
Q 3634 1759 3634 1313 
Q 3634 634 3220 271 
Q 2806 -91 2034 -91 
Q 1263 -91 848 271 
Q 434 634 434 1313 
Q 434 1759 690 2068 
Q 947 2378 1403 2484 
z
M 1172 3481 
Q 1172 3119 1398 2916 
Q 1625 2713 2034 2713 
Q 2441 2713 2670 2916 
Q 2900 3119 2900 3481 
Q 2900 3844 2670 4047 
Q 2441 4250 2034 4250 
Q 1625 4250 1398 4047 
Q 1172 3844 1172 3481 
z
" transform="scale(0.015625)"/>
       </defs>
       <use xlink:href="#DejaVuSans-30"/>
       <use xlink:href="#DejaVuSans-2e" x="63.623047"/>
       <use xlink:href="#DejaVuSans-38" x="95.410156"/>
      </g>
     </g>
    </g>
    <g id="xtick_6">
     <g id="line2d_6">
      <g>
       <use xlink:href="#m33e7d43ce2" x="512.603409" y="180.232284" style="stroke: #000000; stroke-width: 0.8"/>
      </g>
     </g>
     <g id="text_6">
      <!-- 1.0 -->
      <g transform="translate(504.651847 194.830721)scale(0.1 -0.1)">
       <defs>
        <path id="DejaVuSans-31" d="M 794 531 
L 1825 531 
L 1825 4091 
L 703 3866 
L 703 4441 
L 1819 4666 
L 2450 4666 
L 2450 531 
L 3481 531 
L 3481 0 
L 794 0 
L 794 531 
z
" transform="scale(0.015625)"/>
       </defs>
       <use xlink:href="#DejaVuSans-31"/>
       <use xlink:href="#DejaVuSans-2e" x="63.623047"/>
       <use xlink:href="#DejaVuSans-30" x="95.410156"/>
      </g>
     </g>
    </g>
    <g id="text_7">
     <!-- temp -->
     <g transform="translate(279.55625 208.508846)scale(0.1 -0.1)">
      <defs>
       <path id="DejaVuSans-74" d="M 1172 4494 
L 1172 3500 
L 2356 3500 
L 2356 3053 
L 1172 3053 
L 1172 1153 
Q 1172 725 1289 603 
Q 1406 481 1766 481 
L 2356 481 
L 2356 0 
L 1766 0 
Q 1100 0 847 248 
Q 594 497 594 1153 
L 594 3053 
L 172 3053 
L 172 3500 
L 594 3500 
L 594 4494 
L 1172 4494 
z
" transform="scale(0.015625)"/>
       <path id="DejaVuSans-65" d="M 3597 1894 
L 3597 1613 
L 953 1613 
Q 991 1019 1311 708 
Q 1631 397 2203 397 
Q 2534 397 2845 478 
Q 3156 559 3463 722 
L 3463 178 
Q 3153 47 2828 -22 
Q 2503 -91 2169 -91 
Q 1331 -91 842 396 
Q 353 884 353 1716 
Q 353 2575 817 3079 
Q 1281 3584 2069 3584 
Q 2775 3584 3186 3129 
Q 3597 2675 3597 1894 
z
M 3022 2063 
Q 3016 2534 2758 2815 
Q 2500 3097 2075 3097 
Q 1594 3097 1305 2825 
Q 1016 2553 972 2059 
L 3022 2063 
z
" transform="scale(0.015625)"/>
       <path id="DejaVuSans-6d" d="M 3328 2828 
Q 3544 3216 3844 3400 
Q 4144 3584 4550 3584 
Q 5097 3584 5394 3201 
Q 5691 2819 5691 2113 
L 5691 0 
L 5113 0 
L 5113 2094 
Q 5113 2597 4934 2840 
Q 4756 3084 4391 3084 
Q 3944 3084 3684 2787 
Q 3425 2491 3425 1978 
L 3425 0 
L 2847 0 
L 2847 2094 
Q 2847 2600 2669 2842 
Q 2491 3084 2119 3084 
Q 1678 3084 1418 2786 
Q 1159 2488 1159 1978 
L 1159 0 
L 581 0 
L 581 3500 
L 1159 3500 
L 1159 2956 
Q 1356 3278 1631 3431 
Q 1906 3584 2284 3584 
Q 2666 3584 2933 3390 
Q 3200 3197 3328 2828 
z
" transform="scale(0.015625)"/>
       <path id="DejaVuSans-70" d="M 1159 525 
L 1159 -1331 
L 581 -1331 
L 581 3500 
L 1159 3500 
L 1159 2969 
Q 1341 3281 1617 3432 
Q 1894 3584 2278 3584 
Q 2916 3584 3314 3078 
Q 3713 2572 3713 1747 
Q 3713 922 3314 415 
Q 2916 -91 2278 -91 
Q 1894 -91 1617 61 
Q 1341 213 1159 525 
z
M 3116 1747 
Q 3116 2381 2855 2742 
Q 2594 3103 2138 3103 
Q 1681 3103 1420 2742 
Q 1159 2381 1159 1747 
Q 1159 1113 1420 752 
Q 1681 391 2138 391 
Q 2594 391 2855 752 
Q 3116 1113 3116 1747 
z
" transform="scale(0.015625)"/>
      </defs>
      <use xlink:href="#DejaVuSans-74"/>
      <use xlink:href="#DejaVuSans-65" x="39.208984"/>
      <use xlink:href="#DejaVuSans-6d" x="100.732422"/>
      <use xlink:href="#DejaVuSans-70" x="198.144531"/>
     </g>
    </g>
   </g>
   <g id="matplotlib.axis_2">
    <g id="ytick_1">
     <g id="line2d_7">
      <defs>
       <path id="mf24e96145f" d="M 0 0 
L -3.5 0 
" style="stroke: #000000; stroke-width: 0.8"/>
      </defs>
      <g>
       <use xlink:href="#mf24e96145f" x="50.675" y="176.068557" style="stroke: #000000; stroke-width: 0.8"/>
      </g>
     </g>
     <g id="text_8">
      <!-- 0 -->
      <g transform="translate(37.3125 179.867776)scale(0.1 -0.1)">
       <use xlink:href="#DejaVuSans-30"/>
      </g>
     </g>
    </g>
    <g id="ytick_2">
     <g id="line2d_8">
      <g>
       <use xlink:href="#mf24e96145f" x="50.675" y="147.05928" style="stroke: #000000; stroke-width: 0.8"/>
      </g>
     </g>
     <g id="text_9">
      <!-- 100 -->
      <g transform="translate(24.5875 150.858499)scale(0.1 -0.1)">
       <use xlink:href="#DejaVuSans-31"/>
       <use xlink:href="#DejaVuSans-30" x="63.623047"/>
       <use xlink:href="#DejaVuSans-30" x="127.246094"/>
      </g>
     </g>
    </g>
    <g id="ytick_3">
     <g id="line2d_9">
      <g>
       <use xlink:href="#mf24e96145f" x="50.675" y="118.050003" style="stroke: #000000; stroke-width: 0.8"/>
      </g>
     </g>
     <g id="text_10">
      <!-- 200 -->
      <g transform="translate(24.5875 121.849222)scale(0.1 -0.1)">
       <use xlink:href="#DejaVuSans-32"/>
       <use xlink:href="#DejaVuSans-30" x="63.623047"/>
       <use xlink:href="#DejaVuSans-30" x="127.246094"/>
      </g>
     </g>
    </g>
    <g id="ytick_4">
     <g id="line2d_10">
      <g>
       <use xlink:href="#mf24e96145f" x="50.675" y="89.040726" style="stroke: #000000; stroke-width: 0.8"/>
      </g>
     </g>
     <g id="text_11">
      <!-- 300 -->
      <g transform="translate(24.5875 92.839945)scale(0.1 -0.1)">
       <defs>
        <path id="DejaVuSans-33" d="M 2597 2516 
Q 3050 2419 3304 2112 
Q 3559 1806 3559 1356 
Q 3559 666 3084 287 
Q 2609 -91 1734 -91 
Q 1441 -91 1130 -33 
Q 819 25 488 141 
L 488 750 
Q 750 597 1062 519 
Q 1375 441 1716 441 
Q 2309 441 2620 675 
Q 2931 909 2931 1356 
Q 2931 1769 2642 2001 
Q 2353 2234 1838 2234 
L 1294 2234 
L 1294 2753 
L 1863 2753 
Q 2328 2753 2575 2939 
Q 2822 3125 2822 3475 
Q 2822 3834 2567 4026 
Q 2313 4219 1838 4219 
Q 1578 4219 1281 4162 
Q 984 4106 628 3988 
L 628 4550 
Q 988 4650 1302 4700 
Q 1616 4750 1894 4750 
Q 2613 4750 3031 4423 
Q 3450 4097 3450 3541 
Q 3450 3153 3228 2886 
Q 3006 2619 2597 2516 
z
" transform="scale(0.015625)"/>
       </defs>
       <use xlink:href="#DejaVuSans-33"/>
       <use xlink:href="#DejaVuSans-30" x="63.623047"/>
       <use xlink:href="#DejaVuSans-30" x="127.246094"/>
      </g>
     </g>
    </g>
    <g id="ytick_5">
     <g id="line2d_11">
      <g>
       <use xlink:href="#mf24e96145f" x="50.675" y="60.03145" style="stroke: #000000; stroke-width: 0.8"/>
      </g>
     </g>
     <g id="text_12">
      <!-- 400 -->
      <g transform="translate(24.5875 63.830668)scale(0.1 -0.1)">
       <use xlink:href="#DejaVuSans-34"/>
       <use xlink:href="#DejaVuSans-30" x="63.623047"/>
       <use xlink:href="#DejaVuSans-30" x="127.246094"/>
      </g>
     </g>
    </g>
    <g id="ytick_6">
     <g id="line2d_12">
      <g>
       <use xlink:href="#mf24e96145f" x="50.675" y="31.022173" style="stroke: #000000; stroke-width: 0.8"/>
      </g>
     </g>
     <g id="text_13">
      <!-- 500 -->
      <g transform="translate(24.5875 34.821392)scale(0.1 -0.1)">
       <defs>
        <path id="DejaVuSans-35" d="M 691 4666 
L 3169 4666 
L 3169 4134 
L 1269 4134 
L 1269 2991 
Q 1406 3038 1543 3061 
Q 1681 3084 1819 3084 
Q 2600 3084 3056 2656 
Q 3513 2228 3513 1497 
Q 3513 744 3044 326 
Q 2575 -91 1722 -91 
Q 1428 -91 1123 -41 
Q 819 9 494 109 
L 494 744 
Q 775 591 1075 516 
Q 1375 441 1709 441 
Q 2250 441 2565 725 
Q 2881 1009 2881 1497 
Q 2881 1984 2565 2268 
Q 2250 2553 1709 2553 
Q 1456 2553 1204 2497 
Q 953 2441 691 2322 
L 691 4666 
z
" transform="scale(0.015625)"/>
       </defs>
       <use xlink:href="#DejaVuSans-35"/>
       <use xlink:href="#DejaVuSans-30" x="63.623047"/>
       <use xlink:href="#DejaVuSans-30" x="127.246094"/>
      </g>
     </g>
    </g>
    <g id="text_14">
     <!-- cnt -->
     <g transform="translate(18.507812 104.026551)rotate(-90)scale(0.1 -0.1)">
      <defs>
       <path id="DejaVuSans-63" d="M 3122 3366 
L 3122 2828 
Q 2878 2963 2633 3030 
Q 2388 3097 2138 3097 
Q 1578 3097 1268 2742 
Q 959 2388 959 1747 
Q 959 1106 1268 751 
Q 1578 397 2138 397 
Q 2388 397 2633 464 
Q 2878 531 3122 666 
L 3122 134 
Q 2881 22 2623 -34 
Q 2366 -91 2075 -91 
Q 1284 -91 818 406 
Q 353 903 353 1747 
Q 353 2603 823 3093 
Q 1294 3584 2113 3584 
Q 2378 3584 2631 3529 
Q 2884 3475 3122 3366 
z
" transform="scale(0.015625)"/>
       <path id="DejaVuSans-6e" d="M 3513 2113 
L 3513 0 
L 2938 0 
L 2938 2094 
Q 2938 2591 2744 2837 
Q 2550 3084 2163 3084 
Q 1697 3084 1428 2787 
Q 1159 2491 1159 1978 
L 1159 0 
L 581 0 
L 581 3500 
L 1159 3500 
L 1159 2956 
Q 1366 3272 1645 3428 
Q 1925 3584 2291 3584 
Q 2894 3584 3203 3211 
Q 3513 2838 3513 2113 
z
" transform="scale(0.015625)"/>
      </defs>
      <use xlink:href="#DejaVuSans-63"/>
      <use xlink:href="#DejaVuSans-6e" x="54.980469"/>
      <use xlink:href="#DejaVuSans-74" x="118.359375"/>
     </g>
    </g>
   </g>
   <g id="line2d_13">
    <path d="M 72.671591 163.918789 
L 81.649791 165.734002 
L 90.627992 163.884661 
L 99.606192 167.877702 
L 108.584392 161.76869 
L 117.562593 159.121032 
L 126.540793 160.081923 
L 135.518994 157.044778 
L 144.497194 158.629303 
L 153.475394 152.934888 
L 162.453595 155.786869 
L 171.431795 152.81501 
L 180.409995 150.55181 
L 189.388196 145.100913 
L 198.366396 142.441782 
L 207.344596 137.129181 
L 216.322797 136.816532 
L 225.300997 133.180654 
L 234.279198 128.431737 
L 243.257398 127.495027 
L 252.235598 125.203331 
L 261.213799 129.970699 
L 270.191999 128.810421 
L 279.170199 120.825023 
L 288.1484 118.505629 
L 297.1266 117.189116 
L 306.104801 117.967411 
L 315.083001 114.063858 
L 324.061201 111.64894 
L 333.039402 111.644325 
L 342.017602 116.857266 
L 350.995802 111.097419 
L 359.974003 110.680893 
L 368.952203 115.282901 
L 377.930404 101.528169 
L 386.908604 92.883692 
L 395.886804 85.225107 
L 404.865005 76.689807 
L 413.843205 85.212875 
L 422.821405 75.29747 
L 431.799606 77.526904 
L 440.777806 81.550868 
L 449.756006 82.381879 
L 458.734207 70.573311 
L 467.712407 86.346087 
L 476.690608 83.232951 
L 485.668808 113.101362 
L 494.647008 96.438092 
L 503.625209 19.708555 
L 512.603409 90.781283 
" clip-path="url(#p15ecd93cd0)" style="fill: none; stroke: #1f77b4; stroke-width: 1.5; stroke-linecap: square"/>
   </g>
   <g id="patch_3">
    <path d="M 50.675 180.232284 
L 50.675 12.064568 
" style="fill: none; stroke: #000000; stroke-width: 0.8; stroke-linejoin: miter; stroke-linecap: square"/>
   </g>
   <g id="patch_4">
    <path d="M 534.6 180.232284 
L 534.6 12.064568 
" style="fill: none; stroke: #000000; stroke-width: 0.8; stroke-linejoin: miter; stroke-linecap: square"/>
   </g>
   <g id="patch_5">
    <path d="M 50.675 180.232284 
L 534.6 180.232284 
" style="fill: none; stroke: #000000; stroke-width: 0.8; stroke-linejoin: miter; stroke-linecap: square"/>
   </g>
   <g id="patch_6">
    <path d="M 50.675 12.064568 
L 534.6 12.064568 
" style="fill: none; stroke: #000000; stroke-width: 0.8; stroke-linejoin: miter; stroke-linecap: square"/>
   </g>
  </g>
  <g id="axes_2">
   <g id="patch_7">
    <path d="M 585.275 180.232284 
L 1069.2 180.232284 
L 1069.2 12.064568 
L 585.275 12.064568 
z
" style="fill: #ffffff"/>
   </g>
   <g id="PolyCollection_2">
    <path d="M 607.271591 162.330295 
L 607.271591 168.248373 
L 613.958555 172.588297 
L 620.601525 171.05946 
L 627.288489 169.256638 
L 633.931459 167.319798 
L 640.618423 164.783127 
L 647.261393 161.906924 
L 653.948357 155.027104 
L 660.591327 151.288606 
L 667.278291 153.772096 
L 673.921261 153.05122 
L 680.608225 156.944511 
L 687.251195 148.469169 
L 693.938159 149.068938 
L 700.58113 144.857592 
L 707.268093 143.415179 
L 713.911064 141.140208 
L 720.598027 142.827235 
L 727.240998 138.788698 
L 733.927961 134.655927 
L 740.570932 127.643367 
L 747.257895 128.352044 
L 753.900866 121.433316 
L 760.58783 121.534076 
L 767.2308 129.701458 
L 773.917764 130.452067 
L 780.560734 113.971906 
L 787.247698 111.200364 
L 793.890668 109.061237 
L 800.577632 115.675469 
L 807.220602 113.671146 
L 813.907566 104.466867 
L 820.550536 100.086117 
L 827.2375 99.778318 
L 833.924464 103.649006 
L 840.567434 94.870012 
L 847.254398 108.123605 
L 853.897368 132.417769 
L 860.584332 121.45398 
L 867.227302 112.337951 
L 873.914266 92.41642 
L 880.557236 53.826823 
L 887.2442 79.968627 
L 893.88717 50.214426 
L 900.574134 76.09122 
L 907.217105 58.274688 
L 913.904068 65.989436 
L 920.547039 60.527765 
L 927.234002 47.857203 
L 933.876973 58.805656 
L 940.563936 49.654809 
L 947.206907 51.659656 
L 953.89387 66.623257 
L 960.536841 62.453768 
L 967.223805 67.592788 
L 973.866775 89.607698 
L 980.553739 76.834099 
L 987.196709 77.943431 
L 993.883673 93.1002 
L 1000.526643 101.33595 
L 1007.213607 75.295091 
L 1013.856577 117.273992 
L 1013.856577 19.708555 
L 1013.856577 19.708555 
L 1007.213607 27.634834 
L 1000.526643 62.373296 
L 993.883673 46.650035 
L 987.196709 25.066882 
L 980.553739 39.566851 
L 973.866775 60.778478 
L 967.223805 38.479333 
L 960.536841 35.63263 
L 953.89387 43.54622 
L 947.206907 31.737888 
L 940.563936 25.940264 
L 933.876973 39.563505 
L 927.234002 25.457541 
L 920.547039 40.15459 
L 913.904068 51.607526 
L 907.217105 45.233325 
L 900.574134 62.540451 
L 893.88717 36.743832 
L 887.2442 64.903976 
L 880.557236 43.079651 
L 873.914266 80.55178 
L 867.227302 98.809277 
L 860.584332 109.572446 
L 853.897368 115.492662 
L 847.254398 96.622666 
L 840.567434 81.88075 
L 833.924464 92.324217 
L 827.2375 88.502578 
L 820.550536 88.903662 
L 813.907566 90.448933 
L 807.220602 103.597021 
L 800.577632 104.511079 
L 793.890668 98.719287 
L 787.247698 102.196708 
L 780.560734 102.092796 
L 773.917764 105.739098 
L 767.2308 114.769892 
L 760.58783 112.60713 
L 753.900866 112.660423 
L 747.257895 118.404752 
L 740.570932 119.725773 
L 733.927961 125.95979 
L 727.240998 130.993946 
L 720.598027 134.821725 
L 713.911064 129.876739 
L 707.268093 135.723675 
L 700.58113 135.968584 
L 693.938159 139.924375 
L 687.251195 138.360968 
L 680.608225 147.349466 
L 673.921261 143.907368 
L 667.278291 143.797833 
L 660.591327 140.169385 
L 653.948357 142.365799 
L 647.261393 133.098782 
L 640.618423 153.269646 
L 633.931459 132.227003 
L 627.288489 146.45779 
L 620.601525 163.711179 
L 613.958555 170.3197 
L 607.271591 162.330295 
z
" clip-path="url(#p0011c7d1ea)" style="fill: #1f77b4; fill-opacity: 0.2; stroke: #1f77b4; stroke-opacity: 0.2"/>
    <path d="M 1040.516445 120.509209 
L 1040.516445 124.454594 
L 1040.516445 120.509209 
L 1040.516445 120.509209 
z
" clip-path="url(#p0011c7d1ea)" style="fill: #1f77b4; fill-opacity: 0.2; stroke: #1f77b4; stroke-opacity: 0.2"/>
   </g>
   <g id="matplotlib.axis_3">
    <g id="xtick_7">
     <g id="line2d_14">
      <g>
       <use xlink:href="#m33e7d43ce2" x="607.271591" y="180.232284" style="stroke: #000000; stroke-width: 0.8"/>
      </g>
     </g>
     <g id="text_15">
      <!-- 0.0 -->
      <g transform="translate(599.320028 194.830721)scale(0.1 -0.1)">
       <use xlink:href="#DejaVuSans-30"/>
       <use xlink:href="#DejaVuSans-2e" x="63.623047"/>
       <use xlink:href="#DejaVuSans-30" x="95.410156"/>
      </g>
     </g>
    </g>
    <g id="xtick_8">
     <g id="line2d_15">
      <g>
       <use xlink:href="#m33e7d43ce2" x="695.257955" y="180.232284" style="stroke: #000000; stroke-width: 0.8"/>
      </g>
     </g>
     <g id="text_16">
      <!-- 0.2 -->
      <g transform="translate(687.306392 194.830721)scale(0.1 -0.1)">
       <use xlink:href="#DejaVuSans-30"/>
       <use xlink:href="#DejaVuSans-2e" x="63.623047"/>
       <use xlink:href="#DejaVuSans-32" x="95.410156"/>
      </g>
     </g>
    </g>
    <g id="xtick_9">
     <g id="line2d_16">
      <g>
       <use xlink:href="#m33e7d43ce2" x="783.244318" y="180.232284" style="stroke: #000000; stroke-width: 0.8"/>
      </g>
     </g>
     <g id="text_17">
      <!-- 0.4 -->
      <g transform="translate(775.292756 194.830721)scale(0.1 -0.1)">
       <use xlink:href="#DejaVuSans-30"/>
       <use xlink:href="#DejaVuSans-2e" x="63.623047"/>
       <use xlink:href="#DejaVuSans-34" x="95.410156"/>
      </g>
     </g>
    </g>
    <g id="xtick_10">
     <g id="line2d_17">
      <g>
       <use xlink:href="#m33e7d43ce2" x="871.230682" y="180.232284" style="stroke: #000000; stroke-width: 0.8"/>
      </g>
     </g>
     <g id="text_18">
      <!-- 0.6 -->
      <g transform="translate(863.279119 194.830721)scale(0.1 -0.1)">
       <use xlink:href="#DejaVuSans-30"/>
       <use xlink:href="#DejaVuSans-2e" x="63.623047"/>
       <use xlink:href="#DejaVuSans-36" x="95.410156"/>
      </g>
     </g>
    </g>
    <g id="xtick_11">
     <g id="line2d_18">
      <g>
       <use xlink:href="#m33e7d43ce2" x="959.217045" y="180.232284" style="stroke: #000000; stroke-width: 0.8"/>
      </g>
     </g>
     <g id="text_19">
      <!-- 0.8 -->
      <g transform="translate(951.265483 194.830721)scale(0.1 -0.1)">
       <use xlink:href="#DejaVuSans-30"/>
       <use xlink:href="#DejaVuSans-2e" x="63.623047"/>
       <use xlink:href="#DejaVuSans-38" x="95.410156"/>
      </g>
     </g>
    </g>
    <g id="xtick_12">
     <g id="line2d_19">
      <g>
       <use xlink:href="#m33e7d43ce2" x="1047.203409" y="180.232284" style="stroke: #000000; stroke-width: 0.8"/>
      </g>
     </g>
     <g id="text_20">
      <!-- 1.0 -->
      <g transform="translate(1039.251847 194.830721)scale(0.1 -0.1)">
       <use xlink:href="#DejaVuSans-31"/>
       <use xlink:href="#DejaVuSans-2e" x="63.623047"/>
       <use xlink:href="#DejaVuSans-30" x="95.410156"/>
      </g>
     </g>
    </g>
    <g id="text_21">
     <!-- atemp -->
     <g transform="translate(811.092187 208.508846)scale(0.1 -0.1)">
      <defs>
       <path id="DejaVuSans-61" d="M 2194 1759 
Q 1497 1759 1228 1600 
Q 959 1441 959 1056 
Q 959 750 1161 570 
Q 1363 391 1709 391 
Q 2188 391 2477 730 
Q 2766 1069 2766 1631 
L 2766 1759 
L 2194 1759 
z
M 3341 1997 
L 3341 0 
L 2766 0 
L 2766 531 
Q 2569 213 2275 61 
Q 1981 -91 1556 -91 
Q 1019 -91 701 211 
Q 384 513 384 1019 
Q 384 1609 779 1909 
Q 1175 2209 1959 2209 
L 2766 2209 
L 2766 2266 
Q 2766 2663 2505 2880 
Q 2244 3097 1772 3097 
Q 1472 3097 1187 3025 
Q 903 2953 641 2809 
L 641 3341 
Q 956 3463 1253 3523 
Q 1550 3584 1831 3584 
Q 2591 3584 2966 3190 
Q 3341 2797 3341 1997 
z
" transform="scale(0.015625)"/>
      </defs>
      <use xlink:href="#DejaVuSans-61"/>
      <use xlink:href="#DejaVuSans-74" x="61.279297"/>
      <use xlink:href="#DejaVuSans-65" x="100.488281"/>
      <use xlink:href="#DejaVuSans-6d" x="162.011719"/>
      <use xlink:href="#DejaVuSans-70" x="259.423828"/>
     </g>
    </g>
   </g>
   <g id="matplotlib.axis_4">
    <g id="ytick_7">
     <g id="line2d_20">
      <g>
       <use xlink:href="#mf24e96145f" x="585.275" y="172.982835" style="stroke: #000000; stroke-width: 0.8"/>
      </g>
     </g>
     <g id="text_22">
      <!-- 0 -->
      <g transform="translate(571.9125 176.782054)scale(0.1 -0.1)">
       <use xlink:href="#DejaVuSans-30"/>
      </g>
     </g>
    </g>
    <g id="ytick_8">
     <g id="line2d_21">
      <g>
       <use xlink:href="#mf24e96145f" x="585.275" y="133.528981" style="stroke: #000000; stroke-width: 0.8"/>
      </g>
     </g>
     <g id="text_23">
      <!-- 100 -->
      <g transform="translate(559.1875 137.328199)scale(0.1 -0.1)">
       <use xlink:href="#DejaVuSans-31"/>
       <use xlink:href="#DejaVuSans-30" x="63.623047"/>
       <use xlink:href="#DejaVuSans-30" x="127.246094"/>
      </g>
     </g>
    </g>
    <g id="ytick_9">
     <g id="line2d_22">
      <g>
       <use xlink:href="#mf24e96145f" x="585.275" y="94.075126" style="stroke: #000000; stroke-width: 0.8"/>
      </g>
     </g>
     <g id="text_24">
      <!-- 200 -->
      <g transform="translate(559.1875 97.874345)scale(0.1 -0.1)">
       <use xlink:href="#DejaVuSans-32"/>
       <use xlink:href="#DejaVuSans-30" x="63.623047"/>
       <use xlink:href="#DejaVuSans-30" x="127.246094"/>
      </g>
     </g>
    </g>
    <g id="ytick_10">
     <g id="line2d_23">
      <g>
       <use xlink:href="#mf24e96145f" x="585.275" y="54.621271" style="stroke: #000000; stroke-width: 0.8"/>
      </g>
     </g>
     <g id="text_25">
      <!-- 300 -->
      <g transform="translate(559.1875 58.42049)scale(0.1 -0.1)">
       <use xlink:href="#DejaVuSans-33"/>
       <use xlink:href="#DejaVuSans-30" x="63.623047"/>
       <use xlink:href="#DejaVuSans-30" x="127.246094"/>
      </g>
     </g>
    </g>
    <g id="ytick_11">
     <g id="line2d_24">
      <g>
       <use xlink:href="#mf24e96145f" x="585.275" y="15.167416" style="stroke: #000000; stroke-width: 0.8"/>
      </g>
     </g>
     <g id="text_26">
      <!-- 400 -->
      <g transform="translate(559.1875 18.966635)scale(0.1 -0.1)">
       <use xlink:href="#DejaVuSans-34"/>
       <use xlink:href="#DejaVuSans-30" x="63.623047"/>
       <use xlink:href="#DejaVuSans-30" x="127.246094"/>
      </g>
     </g>
    </g>
    <g id="text_27">
     <!-- cnt -->
     <g transform="translate(553.107813 104.026551)rotate(-90)scale(0.1 -0.1)">
      <use xlink:href="#DejaVuSans-63"/>
      <use xlink:href="#DejaVuSans-6e" x="54.980469"/>
      <use xlink:href="#DejaVuSans-74" x="118.359375"/>
     </g>
    </g>
   </g>
   <g id="line2d_25">
    <path d="M 607.271591 165.289334 
L 613.958555 171.700585 
L 620.601525 167.508613 
L 627.288489 160.094576 
L 633.931459 153.650447 
L 640.618423 159.441709 
L 647.261393 148.430398 
L 653.948357 149.242887 
L 660.591327 146.016584 
L 667.278291 149.091334 
L 673.921261 148.720401 
L 680.608225 152.298376 
L 687.251195 143.814107 
L 693.938159 144.846007 
L 700.58113 140.763801 
L 707.268093 139.70027 
L 713.911064 135.675378 
L 720.598027 138.979596 
L 727.240998 135.020456 
L 733.927961 130.520172 
L 740.570932 123.858834 
L 747.257895 123.470671 
L 753.900866 116.846576 
L 760.58783 117.051665 
L 767.2308 121.75267 
L 773.917764 119.13563 
L 780.560734 108.194727 
L 787.247698 106.920761 
L 793.890668 103.803957 
L 800.577632 110.287781 
L 807.220602 108.709753 
L 813.907566 97.849271 
L 820.550536 94.694797 
L 827.2375 94.287834 
L 833.924464 98.018596 
L 840.567434 88.653798 
L 847.254398 102.231328 
L 853.897368 124.621514 
L 860.584332 115.749398 
L 867.227302 105.940011 
L 873.914266 86.325261 
L 880.557236 48.607753 
L 887.2442 72.166889 
L 893.88717 43.589275 
L 900.574134 69.368896 
L 907.217105 51.638932 
L 913.904068 59.334359 
L 920.547039 50.192652 
L 927.234002 37.181401 
L 933.876973 49.419432 
L 940.563936 38.378508 
L 947.206907 42.152086 
L 953.89387 55.801804 
L 960.536841 49.192965 
L 967.223805 53.917171 
L 973.866775 75.4837 
L 980.553739 58.578986 
L 987.196709 51.820047 
L 993.883673 72.35474 
L 1000.526643 81.029051 
L 1007.213607 51.464963 
L 1013.856577 71.902059 
L 1027.186511 127.610902 
L 1040.516445 122.481901 
L 1047.203409 133.134442 
" clip-path="url(#p0011c7d1ea)" style="fill: none; stroke: #1f77b4; stroke-width: 1.5; stroke-linecap: square"/>
   </g>
   <g id="patch_8">
    <path d="M 585.275 180.232284 
L 585.275 12.064568 
" style="fill: none; stroke: #000000; stroke-width: 0.8; stroke-linejoin: miter; stroke-linecap: square"/>
   </g>
   <g id="patch_9">
    <path d="M 1069.2 180.232284 
L 1069.2 12.064568 
" style="fill: none; stroke: #000000; stroke-width: 0.8; stroke-linejoin: miter; stroke-linecap: square"/>
   </g>
   <g id="patch_10">
    <path d="M 585.275 180.232284 
L 1069.2 180.232284 
" style="fill: none; stroke: #000000; stroke-width: 0.8; stroke-linejoin: miter; stroke-linecap: square"/>
   </g>
   <g id="patch_11">
    <path d="M 585.275 12.064568 
L 1069.2 12.064568 
" style="fill: none; stroke: #000000; stroke-width: 0.8; stroke-linejoin: miter; stroke-linecap: square"/>
   </g>
  </g>
  <g id="axes_3">
   <g id="patch_12">
    <path d="M 50.675 390.2 
L 534.6 390.2 
L 534.6 222.032284 
L 50.675 222.032284 
z
" style="fill: #ffffff"/>
   </g>
   <g id="PolyCollection_3">
    <path d="M 72.671591 371.024274 
L 72.671591 377.679142 
L 72.671591 371.024274 
L 72.671591 371.024274 
z
" clip-path="url(#p388af2dd81)" style="fill: #1f77b4; fill-opacity: 0.2; stroke: #1f77b4; stroke-opacity: 0.2"/>
    <path d="M 134.262045 373.797551 
L 134.262045 381.304804 
L 138.661364 382.556013 
L 143.060682 336.451311 
L 147.46 326.506546 
L 151.859318 311.812661 
L 156.258636 326.271651 
L 160.657955 285.883105 
L 165.057273 323.147351 
L 169.456591 301.554718 
L 173.855909 303.267789 
L 178.255227 295.263245 
L 182.654545 315.919728 
L 187.053864 306.445416 
L 191.453182 288.095358 
L 195.8525 313.553212 
L 200.251818 300.114109 
L 204.651136 300.537816 
L 209.050455 300.411763 
L 213.449773 305.449237 
L 217.849091 307.265338 
L 222.248409 297.770323 
L 226.647727 303.122142 
L 231.047045 300.145423 
L 235.446364 302.401211 
L 239.845682 303.476331 
L 244.245 301.743221 
L 248.644318 309.551779 
L 253.043636 314.727951 
L 257.442955 312.21185 
L 261.842273 305.987676 
L 266.241591 328.474014 
L 270.640909 312.292151 
L 275.040227 310.742264 
L 279.439545 328.815894 
L 283.838864 314.753817 
L 288.238182 320.354405 
L 292.6375 325.195434 
L 297.036818 318.228802 
L 301.436136 322.630676 
L 305.835455 321.704762 
L 310.234773 319.843744 
L 314.634091 313.007526 
L 319.033409 338.251967 
L 323.432727 324.634147 
L 327.832045 312.216855 
L 332.231364 333.906067 
L 336.630682 336.111707 
L 341.03 328.551523 
L 345.429318 316.23441 
L 349.828636 337.134539 
L 354.227955 332.135079 
L 358.627273 334.266058 
L 363.026591 326.668554 
L 367.425909 339.55751 
L 371.825227 331.9673 
L 376.224545 337.530224 
L 380.623864 336.030665 
L 385.023182 343.627614 
L 389.4225 337.806297 
L 393.821818 329.497897 
L 398.221136 326.520475 
L 402.620455 361.169253 
L 407.019773 350.254434 
L 411.419091 338.575648 
L 415.818409 335.917512 
L 420.217727 339.093458 
L 424.617045 367.111842 
L 429.016364 353.9848 
L 433.415682 347.90532 
L 437.815 340.917394 
L 442.214318 351.548672 
L 446.613636 374.423155 
L 451.012955 369.859638 
L 455.412273 359.362064 
L 459.811591 350.672289 
L 464.210909 349.260997 
L 468.610227 360.175014 
L 468.610227 302.255213 
L 468.610227 302.255213 
L 464.210909 338.024101 
L 459.811591 344.211626 
L 455.412273 353.679656 
L 451.012955 358.564494 
L 446.613636 245.423517 
L 442.214318 336.602087 
L 437.815 333.444859 
L 433.415682 337.883017 
L 429.016364 345.308036 
L 424.617045 353.360164 
L 420.217727 326.7978 
L 415.818409 325.126648 
L 411.419091 326.531505 
L 407.019773 339.482968 
L 402.620455 350.621231 
L 398.221136 314.790346 
L 393.821818 317.04082 
L 389.4225 322.302484 
L 385.023182 330.891417 
L 380.623864 325.703826 
L 376.224545 326.2737 
L 371.825227 315.577918 
L 367.425909 323.506676 
L 363.026591 315.731441 
L 358.627273 323.179017 
L 354.227955 315.744064 
L 349.828636 322.167096 
L 345.429318 303.75016 
L 341.03 317.168106 
L 336.630682 321.831465 
L 332.231364 321.690392 
L 327.832045 299.889204 
L 323.432727 309.144039 
L 319.033409 328.245146 
L 314.634091 300.104745 
L 310.234773 306.543274 
L 305.835455 307.606374 
L 301.436136 310.24278 
L 297.036818 303.292974 
L 292.6375 311.486847 
L 288.238182 308.581921 
L 283.838864 299.663814 
L 279.439545 315.278143 
L 275.040227 299.118593 
L 270.640909 298.386894 
L 266.241591 313.912173 
L 261.842273 291.856314 
L 257.442955 297.408651 
L 253.043636 298.94991 
L 248.644318 295.415317 
L 244.245 285.653812 
L 239.845682 285.298822 
L 235.446364 286.717007 
L 231.047045 281.390755 
L 226.647727 285.771358 
L 222.248409 275.267143 
L 217.849091 290.241173 
L 213.449773 281.828641 
L 209.050455 279.490065 
L 204.651136 277.721731 
L 200.251818 281.913225 
L 195.8525 289.549995 
L 191.453182 256.952151 
L 187.053864 280.081101 
L 182.654545 288.96108 
L 178.255227 260.772331 
L 173.855909 272.54041 
L 169.456591 252.772052 
L 165.057273 279.453692 
L 160.657955 231.72554 
L 156.258636 267.925238 
L 151.859318 243.725001 
L 147.46 229.676271 
L 143.060682 274.384311 
L 138.661364 337.277891 
L 134.262045 373.797551 
z
" clip-path="url(#p388af2dd81)" style="fill: #1f77b4; fill-opacity: 0.2; stroke: #1f77b4; stroke-opacity: 0.2"/>
    <path d="M 477.408864 355.342219 
L 477.408864 364.100682 
L 481.808182 365.713999 
L 486.2075 356.977197 
L 495.006136 374.735957 
L 495.006136 318.535824 
L 495.006136 318.535824 
L 486.2075 350.890443 
L 481.808182 359.460365 
L 477.408864 355.342219 
z
" clip-path="url(#p388af2dd81)" style="fill: #1f77b4; fill-opacity: 0.2; stroke: #1f77b4; stroke-opacity: 0.2"/>
    <path d="M 512.603409 358.65578 
L 512.603409 364.981394 
L 512.603409 358.65578 
L 512.603409 358.65578 
z
" clip-path="url(#p388af2dd81)" style="fill: #1f77b4; fill-opacity: 0.2; stroke: #1f77b4; stroke-opacity: 0.2"/>
   </g>
   <g id="matplotlib.axis_5">
    <g id="xtick_13">
     <g id="line2d_26">
      <g>
       <use xlink:href="#m33e7d43ce2" x="72.671591" y="390.2" style="stroke: #000000; stroke-width: 0.8"/>
      </g>
     </g>
     <g id="text_28">
      <!-- 0.0 -->
      <g transform="translate(64.720028 404.798437)scale(0.1 -0.1)">
       <use xlink:href="#DejaVuSans-30"/>
       <use xlink:href="#DejaVuSans-2e" x="63.623047"/>
       <use xlink:href="#DejaVuSans-30" x="95.410156"/>
      </g>
     </g>
    </g>
    <g id="xtick_14">
     <g id="line2d_27">
      <g>
       <use xlink:href="#m33e7d43ce2" x="160.657955" y="390.2" style="stroke: #000000; stroke-width: 0.8"/>
      </g>
     </g>
     <g id="text_29">
      <!-- 0.2 -->
      <g transform="translate(152.706392 404.798437)scale(0.1 -0.1)">
       <use xlink:href="#DejaVuSans-30"/>
       <use xlink:href="#DejaVuSans-2e" x="63.623047"/>
       <use xlink:href="#DejaVuSans-32" x="95.410156"/>
      </g>
     </g>
    </g>
    <g id="xtick_15">
     <g id="line2d_28">
      <g>
       <use xlink:href="#m33e7d43ce2" x="248.644318" y="390.2" style="stroke: #000000; stroke-width: 0.8"/>
      </g>
     </g>
     <g id="text_30">
      <!-- 0.4 -->
      <g transform="translate(240.692756 404.798437)scale(0.1 -0.1)">
       <use xlink:href="#DejaVuSans-30"/>
       <use xlink:href="#DejaVuSans-2e" x="63.623047"/>
       <use xlink:href="#DejaVuSans-34" x="95.410156"/>
      </g>
     </g>
    </g>
    <g id="xtick_16">
     <g id="line2d_29">
      <g>
       <use xlink:href="#m33e7d43ce2" x="336.630682" y="390.2" style="stroke: #000000; stroke-width: 0.8"/>
      </g>
     </g>
     <g id="text_31">
      <!-- 0.6 -->
      <g transform="translate(328.679119 404.798437)scale(0.1 -0.1)">
       <use xlink:href="#DejaVuSans-30"/>
       <use xlink:href="#DejaVuSans-2e" x="63.623047"/>
       <use xlink:href="#DejaVuSans-36" x="95.410156"/>
      </g>
     </g>
    </g>
    <g id="xtick_17">
     <g id="line2d_30">
      <g>
       <use xlink:href="#m33e7d43ce2" x="424.617045" y="390.2" style="stroke: #000000; stroke-width: 0.8"/>
      </g>
     </g>
     <g id="text_32">
      <!-- 0.8 -->
      <g transform="translate(416.665483 404.798437)scale(0.1 -0.1)">
       <use xlink:href="#DejaVuSans-30"/>
       <use xlink:href="#DejaVuSans-2e" x="63.623047"/>
       <use xlink:href="#DejaVuSans-38" x="95.410156"/>
      </g>
     </g>
    </g>
    <g id="xtick_18">
     <g id="line2d_31">
      <g>
       <use xlink:href="#m33e7d43ce2" x="512.603409" y="390.2" style="stroke: #000000; stroke-width: 0.8"/>
      </g>
     </g>
     <g id="text_33">
      <!-- 1.0 -->
      <g transform="translate(504.651847 404.798437)scale(0.1 -0.1)">
       <use xlink:href="#DejaVuSans-31"/>
       <use xlink:href="#DejaVuSans-2e" x="63.623047"/>
       <use xlink:href="#DejaVuSans-30" x="95.410156"/>
      </g>
     </g>
    </g>
    <g id="text_34">
     <!-- hum -->
     <g transform="translate(281.429687 418.476562)scale(0.1 -0.1)">
      <defs>
       <path id="DejaVuSans-68" d="M 3513 2113 
L 3513 0 
L 2938 0 
L 2938 2094 
Q 2938 2591 2744 2837 
Q 2550 3084 2163 3084 
Q 1697 3084 1428 2787 
Q 1159 2491 1159 1978 
L 1159 0 
L 581 0 
L 581 4863 
L 1159 4863 
L 1159 2956 
Q 1366 3272 1645 3428 
Q 1925 3584 2291 3584 
Q 2894 3584 3203 3211 
Q 3513 2838 3513 2113 
z
" transform="scale(0.015625)"/>
       <path id="DejaVuSans-75" d="M 544 1381 
L 544 3500 
L 1119 3500 
L 1119 1403 
Q 1119 906 1312 657 
Q 1506 409 1894 409 
Q 2359 409 2629 706 
Q 2900 1003 2900 1516 
L 2900 3500 
L 3475 3500 
L 3475 0 
L 2900 0 
L 2900 538 
Q 2691 219 2414 64 
Q 2138 -91 1772 -91 
Q 1169 -91 856 284 
Q 544 659 544 1381 
z
M 1991 3584 
L 1991 3584 
z
" transform="scale(0.015625)"/>
      </defs>
      <use xlink:href="#DejaVuSans-68"/>
      <use xlink:href="#DejaVuSans-75" x="63.378906"/>
      <use xlink:href="#DejaVuSans-6d" x="126.757812"/>
     </g>
    </g>
   </g>
   <g id="matplotlib.axis_6">
    <g id="ytick_12">
     <g id="line2d_32">
      <g>
       <use xlink:href="#mf24e96145f" x="50.675" y="383.49442" style="stroke: #000000; stroke-width: 0.8"/>
      </g>
     </g>
     <g id="text_35">
      <!-- 0 -->
      <g transform="translate(37.3125 387.293638)scale(0.1 -0.1)">
       <use xlink:href="#DejaVuSans-30"/>
      </g>
     </g>
    </g>
    <g id="ytick_13">
     <g id="line2d_33">
      <g>
       <use xlink:href="#mf24e96145f" x="50.675" y="352.214197" style="stroke: #000000; stroke-width: 0.8"/>
      </g>
     </g>
     <g id="text_36">
      <!-- 100 -->
      <g transform="translate(24.5875 356.013416)scale(0.1 -0.1)">
       <use xlink:href="#DejaVuSans-31"/>
       <use xlink:href="#DejaVuSans-30" x="63.623047"/>
       <use xlink:href="#DejaVuSans-30" x="127.246094"/>
      </g>
     </g>
    </g>
    <g id="ytick_14">
     <g id="line2d_34">
      <g>
       <use xlink:href="#mf24e96145f" x="50.675" y="320.933974" style="stroke: #000000; stroke-width: 0.8"/>
      </g>
     </g>
     <g id="text_37">
      <!-- 200 -->
      <g transform="translate(24.5875 324.733193)scale(0.1 -0.1)">
       <use xlink:href="#DejaVuSans-32"/>
       <use xlink:href="#DejaVuSans-30" x="63.623047"/>
       <use xlink:href="#DejaVuSans-30" x="127.246094"/>
      </g>
     </g>
    </g>
    <g id="ytick_15">
     <g id="line2d_35">
      <g>
       <use xlink:href="#mf24e96145f" x="50.675" y="289.653752" style="stroke: #000000; stroke-width: 0.8"/>
      </g>
     </g>
     <g id="text_38">
      <!-- 300 -->
      <g transform="translate(24.5875 293.452971)scale(0.1 -0.1)">
       <use xlink:href="#DejaVuSans-33"/>
       <use xlink:href="#DejaVuSans-30" x="63.623047"/>
       <use xlink:href="#DejaVuSans-30" x="127.246094"/>
      </g>
     </g>
    </g>
    <g id="ytick_16">
     <g id="line2d_36">
      <g>
       <use xlink:href="#mf24e96145f" x="50.675" y="258.373529" style="stroke: #000000; stroke-width: 0.8"/>
      </g>
     </g>
     <g id="text_39">
      <!-- 400 -->
      <g transform="translate(24.5875 262.172748)scale(0.1 -0.1)">
       <use xlink:href="#DejaVuSans-34"/>
       <use xlink:href="#DejaVuSans-30" x="63.623047"/>
       <use xlink:href="#DejaVuSans-30" x="127.246094"/>
      </g>
     </g>
    </g>
    <g id="ytick_17">
     <g id="line2d_37">
      <g>
       <use xlink:href="#mf24e96145f" x="50.675" y="227.093307" style="stroke: #000000; stroke-width: 0.8"/>
      </g>
     </g>
     <g id="text_40">
      <!-- 500 -->
      <g transform="translate(24.5875 230.892525)scale(0.1 -0.1)">
       <use xlink:href="#DejaVuSans-35"/>
       <use xlink:href="#DejaVuSans-30" x="63.623047"/>
       <use xlink:href="#DejaVuSans-30" x="127.246094"/>
      </g>
     </g>
    </g>
    <g id="text_41">
     <!-- cnt -->
     <g transform="translate(18.507812 313.994267)rotate(-90)scale(0.1 -0.1)">
      <use xlink:href="#DejaVuSans-63"/>
      <use xlink:href="#DejaVuSans-6e" x="54.980469"/>
      <use xlink:href="#DejaVuSans-74" x="118.359375"/>
     </g>
    </g>
   </g>
   <g id="line2d_38">
    <path d="M 72.671591 374.636429 
L 107.866136 359.408648 
L 116.664773 350.024581 
L 125.463409 374.423155 
L 129.862727 378.176782 
L 134.262045 377.551177 
L 138.661364 360.659857 
L 143.060682 307.921402 
L 147.46 277.016542 
L 151.859318 280.238405 
L 156.258636 297.571558 
L 160.657955 258.999134 
L 165.057273 301.853039 
L 169.456591 278.972135 
L 173.855909 288.137341 
L 178.255227 279.001719 
L 182.654545 302.261272 
L 187.053864 293.407379 
L 191.453182 273.106073 
L 195.8525 301.640204 
L 200.251818 291.509908 
L 204.651136 289.399081 
L 209.050455 290.305865 
L 213.449773 293.600115 
L 217.849091 299.145948 
L 222.248409 286.302299 
L 226.647727 294.700806 
L 231.047045 290.677468 
L 235.446364 294.384885 
L 239.845682 294.742674 
L 244.245 293.79202 
L 248.644318 302.467472 
L 253.043636 306.99486 
L 257.442955 304.877237 
L 261.842273 298.942819 
L 266.241591 321.136527 
L 270.640909 305.356928 
L 275.040227 305.043423 
L 279.439545 322.268766 
L 283.838864 307.562983 
L 288.238182 314.833853 
L 292.6375 318.458603 
L 297.036818 311.095031 
L 301.436136 317.008908 
L 305.835455 314.875921 
L 310.234773 313.277404 
L 314.634091 306.888088 
L 319.033409 333.346169 
L 323.432727 317.055768 
L 327.832045 306.294103 
L 332.231364 327.784573 
L 336.630682 329.270681 
L 341.03 322.923434 
L 345.429318 310.226514 
L 349.828636 329.696275 
L 354.227955 323.629215 
L 358.627273 328.609349 
L 363.026591 321.482184 
L 367.425909 331.798509 
L 371.825227 324.369343 
L 376.224545 331.755712 
L 380.623864 331.073859 
L 385.023182 337.327728 
L 389.4225 330.527668 
L 393.821818 323.515333 
L 398.221136 320.66979 
L 402.620455 355.82974 
L 407.019773 345.004034 
L 411.419091 332.853974 
L 415.818409 330.657628 
L 420.217727 332.983432 
L 424.617045 360.867417 
L 429.016364 349.737941 
L 433.415682 342.929516 
L 437.815 337.187277 
L 442.214318 344.482432 
L 446.613636 326.376733 
L 451.012955 364.454642 
L 455.412273 356.531252 
L 459.811591 347.498834 
L 464.210909 343.998885 
L 468.610227 333.177947 
L 473.009545 346.270955 
L 477.408864 359.72145 
L 481.808182 362.7304 
L 486.2075 354.112795 
L 495.006136 344.394141 
L 499.405455 363.475077 
L 512.603409 361.981736 
" clip-path="url(#p388af2dd81)" style="fill: none; stroke: #1f77b4; stroke-width: 1.5; stroke-linecap: square"/>
   </g>
   <g id="patch_13">
    <path d="M 50.675 390.2 
L 50.675 222.032284 
" style="fill: none; stroke: #000000; stroke-width: 0.8; stroke-linejoin: miter; stroke-linecap: square"/>
   </g>
   <g id="patch_14">
    <path d="M 534.6 390.2 
L 534.6 222.032284 
" style="fill: none; stroke: #000000; stroke-width: 0.8; stroke-linejoin: miter; stroke-linecap: square"/>
   </g>
   <g id="patch_15">
    <path d="M 50.675 390.2 
L 534.6 390.2 
" style="fill: none; stroke: #000000; stroke-width: 0.8; stroke-linejoin: miter; stroke-linecap: square"/>
   </g>
   <g id="patch_16">
    <path d="M 50.675 222.032284 
L 534.6 222.032284 
" style="fill: none; stroke: #000000; stroke-width: 0.8; stroke-linejoin: miter; stroke-linecap: square"/>
   </g>
  </g>
  <g id="axes_4">
   <g id="patch_17">
    <path d="M 585.275 390.2 
L 1069.2 390.2 
L 1069.2 222.032284 
L 585.275 222.032284 
z
" style="fill: #ffffff"/>
   </g>
   <g id="PolyCollection_4">
    <path d="M 607.271591 311.147093 
L 607.271591 317.132196 
L 653.607421 322.173301 
L 661.312822 315.357468 
L 676.723622 310.716651 
L 692.186137 302.502265 
L 707.596938 300.70196 
L 723.059453 296.489391 
L 738.470254 296.027002 
L 753.932768 295.347728 
L 761.638169 296.966219 
L 777.100684 304.496533 
L 792.511484 300.119206 
L 807.973999 295.156203 
L 823.3848 299.555509 
L 838.847315 305.359432 
L 846.552715 309.02931 
L 861.963516 312.784748 
L 877.426031 313.352159 
L 892.836831 332.59696 
L 908.299346 330.370521 
L 923.710147 330.693083 
L 939.172662 341.05473 
L 946.878062 335.735375 
L 962.340577 372.706618 
L 977.751378 382.556013 
L 993.213892 309.756136 
L 993.213892 302.047914 
L 993.213892 302.047914 
L 977.751378 263.078568 
L 962.340577 292.333412 
L 946.878062 257.308107 
L 939.172662 297.855803 
L 923.710147 299.068425 
L 908.299346 293.910483 
L 892.836831 293.760477 
L 877.426031 277.744582 
L 861.963516 287.735033 
L 846.552715 287.243976 
L 838.847315 282.755338 
L 823.3848 282.314221 
L 807.973999 279.280615 
L 792.511484 285.911616 
L 777.100684 292.486296 
L 761.638169 285.027908 
L 753.932768 285.70534 
L 738.470254 287.03124 
L 723.059453 288.227485 
L 707.596938 293.593873 
L 692.186137 294.882835 
L 676.723622 304.101031 
L 661.312822 308.080115 
L 653.607421 314.947195 
L 607.271591 311.147093 
z
" clip-path="url(#p1d9fe28dbc)" style="fill: #1f77b4; fill-opacity: 0.2; stroke: #1f77b4; stroke-opacity: 0.2"/>
    <path d="M 1024.087208 317.892593 
L 1024.087208 359.431346 
L 1024.087208 317.892593 
L 1024.087208 317.892593 
z
" clip-path="url(#p1d9fe28dbc)" style="fill: #1f77b4; fill-opacity: 0.2; stroke: #1f77b4; stroke-opacity: 0.2"/>
    <path d="M 1047.203409 229.676271 
L 1047.203409 305.47379 
L 1047.203409 229.676271 
L 1047.203409 229.676271 
z
" clip-path="url(#p1d9fe28dbc)" style="fill: #1f77b4; fill-opacity: 0.2; stroke: #1f77b4; stroke-opacity: 0.2"/>
   </g>
   <g id="matplotlib.axis_7">
    <g id="xtick_19">
     <g id="line2d_39">
      <g>
       <use xlink:href="#m33e7d43ce2" x="607.271591" y="390.2" style="stroke: #000000; stroke-width: 0.8"/>
      </g>
     </g>
     <g id="text_42">
      <!-- 0.0 -->
      <g transform="translate(599.320028 404.798437)scale(0.1 -0.1)">
       <use xlink:href="#DejaVuSans-30"/>
       <use xlink:href="#DejaVuSans-2e" x="63.623047"/>
       <use xlink:href="#DejaVuSans-30" x="95.410156"/>
      </g>
     </g>
    </g>
    <g id="xtick_20">
     <g id="line2d_40">
      <g>
       <use xlink:href="#m33e7d43ce2" x="710.699784" y="390.2" style="stroke: #000000; stroke-width: 0.8"/>
      </g>
     </g>
     <g id="text_43">
      <!-- 0.2 -->
      <g transform="translate(702.748221 404.798437)scale(0.1 -0.1)">
       <use xlink:href="#DejaVuSans-30"/>
       <use xlink:href="#DejaVuSans-2e" x="63.623047"/>
       <use xlink:href="#DejaVuSans-32" x="95.410156"/>
      </g>
     </g>
    </g>
    <g id="xtick_21">
     <g id="line2d_41">
      <g>
       <use xlink:href="#m33e7d43ce2" x="814.127977" y="390.2" style="stroke: #000000; stroke-width: 0.8"/>
      </g>
     </g>
     <g id="text_44">
      <!-- 0.4 -->
      <g transform="translate(806.176414 404.798437)scale(0.1 -0.1)">
       <use xlink:href="#DejaVuSans-30"/>
       <use xlink:href="#DejaVuSans-2e" x="63.623047"/>
       <use xlink:href="#DejaVuSans-34" x="95.410156"/>
      </g>
     </g>
    </g>
    <g id="xtick_22">
     <g id="line2d_42">
      <g>
       <use xlink:href="#m33e7d43ce2" x="917.556169" y="390.2" style="stroke: #000000; stroke-width: 0.8"/>
      </g>
     </g>
     <g id="text_45">
      <!-- 0.6 -->
      <g transform="translate(909.604607 404.798437)scale(0.1 -0.1)">
       <use xlink:href="#DejaVuSans-30"/>
       <use xlink:href="#DejaVuSans-2e" x="63.623047"/>
       <use xlink:href="#DejaVuSans-36" x="95.410156"/>
      </g>
     </g>
    </g>
    <g id="xtick_23">
     <g id="line2d_43">
      <g>
       <use xlink:href="#m33e7d43ce2" x="1020.984362" y="390.2" style="stroke: #000000; stroke-width: 0.8"/>
      </g>
     </g>
     <g id="text_46">
      <!-- 0.8 -->
      <g transform="translate(1013.0328 404.798437)scale(0.1 -0.1)">
       <use xlink:href="#DejaVuSans-30"/>
       <use xlink:href="#DejaVuSans-2e" x="63.623047"/>
       <use xlink:href="#DejaVuSans-38" x="95.410156"/>
      </g>
     </g>
    </g>
    <g id="text_47">
     <!-- windspeed -->
     <g transform="translate(800.310156 418.476562)scale(0.1 -0.1)">
      <defs>
       <path id="DejaVuSans-77" d="M 269 3500 
L 844 3500 
L 1563 769 
L 2278 3500 
L 2956 3500 
L 3675 769 
L 4391 3500 
L 4966 3500 
L 4050 0 
L 3372 0 
L 2619 2869 
L 1863 0 
L 1184 0 
L 269 3500 
z
" transform="scale(0.015625)"/>
       <path id="DejaVuSans-69" d="M 603 3500 
L 1178 3500 
L 1178 0 
L 603 0 
L 603 3500 
z
M 603 4863 
L 1178 4863 
L 1178 4134 
L 603 4134 
L 603 4863 
z
" transform="scale(0.015625)"/>
       <path id="DejaVuSans-64" d="M 2906 2969 
L 2906 4863 
L 3481 4863 
L 3481 0 
L 2906 0 
L 2906 525 
Q 2725 213 2448 61 
Q 2172 -91 1784 -91 
Q 1150 -91 751 415 
Q 353 922 353 1747 
Q 353 2572 751 3078 
Q 1150 3584 1784 3584 
Q 2172 3584 2448 3432 
Q 2725 3281 2906 2969 
z
M 947 1747 
Q 947 1113 1208 752 
Q 1469 391 1925 391 
Q 2381 391 2643 752 
Q 2906 1113 2906 1747 
Q 2906 2381 2643 2742 
Q 2381 3103 1925 3103 
Q 1469 3103 1208 2742 
Q 947 2381 947 1747 
z
" transform="scale(0.015625)"/>
       <path id="DejaVuSans-73" d="M 2834 3397 
L 2834 2853 
Q 2591 2978 2328 3040 
Q 2066 3103 1784 3103 
Q 1356 3103 1142 2972 
Q 928 2841 928 2578 
Q 928 2378 1081 2264 
Q 1234 2150 1697 2047 
L 1894 2003 
Q 2506 1872 2764 1633 
Q 3022 1394 3022 966 
Q 3022 478 2636 193 
Q 2250 -91 1575 -91 
Q 1294 -91 989 -36 
Q 684 19 347 128 
L 347 722 
Q 666 556 975 473 
Q 1284 391 1588 391 
Q 1994 391 2212 530 
Q 2431 669 2431 922 
Q 2431 1156 2273 1281 
Q 2116 1406 1581 1522 
L 1381 1569 
Q 847 1681 609 1914 
Q 372 2147 372 2553 
Q 372 3047 722 3315 
Q 1072 3584 1716 3584 
Q 2034 3584 2315 3537 
Q 2597 3491 2834 3397 
z
" transform="scale(0.015625)"/>
      </defs>
      <use xlink:href="#DejaVuSans-77"/>
      <use xlink:href="#DejaVuSans-69" x="81.787109"/>
      <use xlink:href="#DejaVuSans-6e" x="109.570312"/>
      <use xlink:href="#DejaVuSans-64" x="172.949219"/>
      <use xlink:href="#DejaVuSans-73" x="236.425781"/>
      <use xlink:href="#DejaVuSans-70" x="288.525391"/>
      <use xlink:href="#DejaVuSans-65" x="352.001953"/>
      <use xlink:href="#DejaVuSans-65" x="413.525391"/>
      <use xlink:href="#DejaVuSans-64" x="475.048828"/>
     </g>
    </g>
   </g>
   <g id="matplotlib.axis_8">
    <g id="ytick_18">
     <g id="line2d_44">
      <g>
       <use xlink:href="#mf24e96145f" x="585.275" y="382.984247" style="stroke: #000000; stroke-width: 0.8"/>
      </g>
     </g>
     <g id="text_48">
      <!-- 0 -->
      <g transform="translate(571.9125 386.783466)scale(0.1 -0.1)">
       <use xlink:href="#DejaVuSans-30"/>
      </g>
     </g>
    </g>
    <g id="ytick_19">
     <g id="line2d_45">
      <g>
       <use xlink:href="#mf24e96145f" x="585.275" y="361.572519" style="stroke: #000000; stroke-width: 0.8"/>
      </g>
     </g>
     <g id="text_49">
      <!-- 50 -->
      <g transform="translate(565.55 365.371738)scale(0.1 -0.1)">
       <use xlink:href="#DejaVuSans-35"/>
       <use xlink:href="#DejaVuSans-30" x="63.623047"/>
      </g>
     </g>
    </g>
    <g id="ytick_20">
     <g id="line2d_46">
      <g>
       <use xlink:href="#mf24e96145f" x="585.275" y="340.16079" style="stroke: #000000; stroke-width: 0.8"/>
      </g>
     </g>
     <g id="text_50">
      <!-- 100 -->
      <g transform="translate(559.1875 343.960009)scale(0.1 -0.1)">
       <use xlink:href="#DejaVuSans-31"/>
       <use xlink:href="#DejaVuSans-30" x="63.623047"/>
       <use xlink:href="#DejaVuSans-30" x="127.246094"/>
      </g>
     </g>
    </g>
    <g id="ytick_21">
     <g id="line2d_47">
      <g>
       <use xlink:href="#mf24e96145f" x="585.275" y="318.749062" style="stroke: #000000; stroke-width: 0.8"/>
      </g>
     </g>
     <g id="text_51">
      <!-- 150 -->
      <g transform="translate(559.1875 322.548281)scale(0.1 -0.1)">
       <use xlink:href="#DejaVuSans-31"/>
       <use xlink:href="#DejaVuSans-35" x="63.623047"/>
       <use xlink:href="#DejaVuSans-30" x="127.246094"/>
      </g>
     </g>
    </g>
    <g id="ytick_22">
     <g id="line2d_48">
      <g>
       <use xlink:href="#mf24e96145f" x="585.275" y="297.337333" style="stroke: #000000; stroke-width: 0.8"/>
      </g>
     </g>
     <g id="text_52">
      <!-- 200 -->
      <g transform="translate(559.1875 301.136552)scale(0.1 -0.1)">
       <use xlink:href="#DejaVuSans-32"/>
       <use xlink:href="#DejaVuSans-30" x="63.623047"/>
       <use xlink:href="#DejaVuSans-30" x="127.246094"/>
      </g>
     </g>
    </g>
    <g id="ytick_23">
     <g id="line2d_49">
      <g>
       <use xlink:href="#mf24e96145f" x="585.275" y="275.925605" style="stroke: #000000; stroke-width: 0.8"/>
      </g>
     </g>
     <g id="text_53">
      <!-- 250 -->
      <g transform="translate(559.1875 279.724823)scale(0.1 -0.1)">
       <use xlink:href="#DejaVuSans-32"/>
       <use xlink:href="#DejaVuSans-35" x="63.623047"/>
       <use xlink:href="#DejaVuSans-30" x="127.246094"/>
      </g>
     </g>
    </g>
    <g id="ytick_24">
     <g id="line2d_50">
      <g>
       <use xlink:href="#mf24e96145f" x="585.275" y="254.513876" style="stroke: #000000; stroke-width: 0.8"/>
      </g>
     </g>
     <g id="text_54">
      <!-- 300 -->
      <g transform="translate(559.1875 258.313095)scale(0.1 -0.1)">
       <use xlink:href="#DejaVuSans-33"/>
       <use xlink:href="#DejaVuSans-30" x="63.623047"/>
       <use xlink:href="#DejaVuSans-30" x="127.246094"/>
      </g>
     </g>
    </g>
    <g id="ytick_25">
     <g id="line2d_51">
      <g>
       <use xlink:href="#mf24e96145f" x="585.275" y="233.102148" style="stroke: #000000; stroke-width: 0.8"/>
      </g>
     </g>
     <g id="text_55">
      <!-- 350 -->
      <g transform="translate(559.1875 236.901366)scale(0.1 -0.1)">
       <use xlink:href="#DejaVuSans-33"/>
       <use xlink:href="#DejaVuSans-35" x="63.623047"/>
       <use xlink:href="#DejaVuSans-30" x="127.246094"/>
      </g>
     </g>
    </g>
    <g id="text_56">
     <!-- cnt -->
     <g transform="translate(553.107813 313.994267)rotate(-90)scale(0.1 -0.1)">
      <use xlink:href="#DejaVuSans-63"/>
      <use xlink:href="#DejaVuSans-6e" x="54.980469"/>
      <use xlink:href="#DejaVuSans-74" x="118.359375"/>
     </g>
    </g>
   </g>
   <g id="line2d_52">
    <path d="M 607.271591 314.191114 
L 653.607421 318.732834 
L 661.312822 311.79164 
L 676.723622 307.483142 
L 692.186137 298.853713 
L 707.596938 297.077084 
L 723.059453 292.220595 
L 738.470254 291.42472 
L 753.932768 290.68417 
L 761.638169 290.885195 
L 777.100684 298.558015 
L 792.511484 293.042885 
L 807.973999 287.582352 
L 823.3848 291.29286 
L 838.847315 293.90659 
L 846.552715 298.704164 
L 861.963516 300.243211 
L 877.426031 296.557335 
L 892.836831 314.00554 
L 908.299346 312.938697 
L 923.710147 314.187433 
L 939.172662 320.737294 
L 946.878062 300.76321 
L 962.340577 332.538215 
L 977.751378 322.81729 
L 993.213892 305.902025 
L 1008.624693 380.843075 
L 1024.087208 338.661969 
L 1039.498009 376.132494 
L 1047.203409 267.575031 
" clip-path="url(#p1d9fe28dbc)" style="fill: none; stroke: #1f77b4; stroke-width: 1.5; stroke-linecap: square"/>
   </g>
   <g id="patch_18">
    <path d="M 585.275 390.2 
L 585.275 222.032284 
" style="fill: none; stroke: #000000; stroke-width: 0.8; stroke-linejoin: miter; stroke-linecap: square"/>
   </g>
   <g id="patch_19">
    <path d="M 1069.2 390.2 
L 1069.2 222.032284 
" style="fill: none; stroke: #000000; stroke-width: 0.8; stroke-linejoin: miter; stroke-linecap: square"/>
   </g>
   <g id="patch_20">
    <path d="M 585.275 390.2 
L 1069.2 390.2 
" style="fill: none; stroke: #000000; stroke-width: 0.8; stroke-linejoin: miter; stroke-linecap: square"/>
   </g>
   <g id="patch_21">
    <path d="M 585.275 222.032284 
L 1069.2 222.032284 
" style="fill: none; stroke: #000000; stroke-width: 0.8; stroke-linejoin: miter; stroke-linecap: square"/>
   </g>
  </g>
 </g>
 <defs>
  <clipPath id="p15ecd93cd0">
   <rect x="50.675" y="12.064568" width="483.925" height="168.167716"/>
  </clipPath>
  <clipPath id="p0011c7d1ea">
   <rect x="585.275" y="12.064568" width="483.925" height="168.167716"/>
  </clipPath>
  <clipPath id="p388af2dd81">
   <rect x="50.675" y="222.032284" width="483.925" height="168.167716"/>
  </clipPath>
  <clipPath id="p1d9fe28dbc">
   <rect x="585.275" y="222.032284" width="483.925" height="168.167716"/>
  </clipPath>
 </defs>
</svg>
